SplineFontDB: 3.0
FontName: Auvaiyar-Bold
FullName: Auvaiyar Bold
FamilyName: Auvaiyar
Weight: Bold
Copyright: Copyright (c) 1995-2015, NLCI (http://www.nlci.in/fonts/) Derived from TAM Auvaiyar Bold by ttfbuilder v0.33
Version: 1.0 Wed Feb 01 17:17:32 1995
ItalicAngle: 0
UnderlinePosition: -310
UnderlineWidth: 20
Ascent: 800
Descent: 200
InvalidEm: 0
sfntRevision: 0x00010000
LayerCount: 2
Layer: 0 0 "Back" 1
Layer: 1 0 "Fore" 0
XUID: [1021 773 30704567 4204477]
StyleMap: 0x0020
FSType: 0
OS2Version: 1
OS2_WeightWidthSlopeOnly: 0
OS2_UseTypoMetrics: 0
CreationTime: 1547921071
ModificationTime: 1547921082
PfmFamily: 17
TTFWeight: 700
TTFWidth: 5
LineGap: 0
VLineGap: 0
Panose: 2 0 0 3 0 0 0 0 0 0
OS2TypoAscent: 750
OS2TypoAOffset: 0
OS2TypoDescent: -329
OS2TypoDOffset: 0
OS2TypoLinegap: 0
OS2WinAscent: 750
OS2WinAOffset: 0
OS2WinDescent: 329
OS2WinDOffset: 0
HheadAscent: 750
HheadAOffset: 0
HheadDescent: -329
HheadDOffset: 0
OS2SubXSize: 700
OS2SubYSize: 650
OS2SubXOff: 0
OS2SubYOff: 143
OS2SupXSize: 700
OS2SupYSize: 650
OS2SupXOff: 0
OS2SupYOff: 453
OS2StrikeYSize: 50
OS2StrikeYPos: 259
OS2Vendor: 'Phsc'
OS2CodePages: 20000001.00000000
OS2UnicodeRanges: a01080ff.520021cb.08000028.00000000
Lookup: 260 0 0 "_holdAnchorsbase" { "_someAnchorsbase"  } []
DEI: 91125
ShortTable: maxp 16
  1
  0
  243
  223
  12
  347
  16
  1
  0
  0
  0
  0
  122
  0
  3
  2
EndShort

StartChar: .notdef
Encoding: 0 -1 0
Width: 500
Flags: HW
LayerCount: 2
Fore
SplineSet
31 0 m 1
 31 750 l 1
 469 750 l 1
 469 0 l 1
 31 0 l 1
438 31 m 1
 438 719 l 1
 62 719 l 1
 62 31 l 1
 438 31 l 1
EndSplineSet
EndChar

StartChar: exclam.taml
Encoding: 4 -1 4
Width: 320
Flags: HW
LayerCount: 2
Fore
SplineSet
231 370 m 1
 224.333333333 323.333333333 213.666666667 242.333333333 199 127 c 0
 197 110.333333333 194.333333333 89.6666666667 191 65 c 1
 166 65 l 1
 164 81 162 97.3333333333 160 114 c 0
 156 144.666666667 151 183.833333333 145 231.5 c 128
 139 279.166666667 132.666666667 325 126 369 c 0
 125.333333333 373 125 379 125 387 c 0
 125 405.666666667 129.5 420.833333333 138.5 432.5 c 128
 147.5 444.166666667 160.666666667 450 178 450 c 256
 195.333333333 450 208.5 443.5 217.5 430.5 c 128
 226.5 417.5 231 397.333333333 231 370 c 1
228 -24 m 0
 228 -38.6666666667 223.5 -50.8333333333 214.5 -60.5 c 128
 205.5 -70.1666666667 193.333333333 -75 178 -75 c 0
 164 -75 152 -70.3333333333 142 -61 c 128
 132 -51.6666666667 127 -39.3333333333 127 -24 c 0
 127 -10.6666666667 132 0.666666666667 142 10 c 128
 152 19.3333333333 163.666666667 24 177 24 c 0
 191.666666667 24 203.833333333 19.5 213.5 10.5 c 128
 223.166666667 1.5 228 -10 228 -24 c 0
EndSplineSet
EndChar

StartChar: quoteleft.taml
Encoding: 5 -1 5
Width: 250
Flags: HW
LayerCount: 2
Fore
SplineSet
187 632 m 1
 149.666666667 620 121.166666667 602.333333333 101.5 579 c 128
 81.8333333333 555.666666667 76.3333333333 541.333333333 85 536 c 0
 88.3333333333 533.333333333 92.3333333333 532 97 532 c 256
 101.666666667 532 108.666666667 535 118 541 c 128
 127.333333333 547 135 550 141 550 c 0
 146.333333333 550 152.666666667 548 160 544 c 0
 182.666666667 529.333333333 194 509.333333333 194 484 c 0
 194 470.666666667 190.5 459 183.5 449 c 128
 176.5 439 168 431.833333333 158 427.5 c 128
 148 423.166666667 136.333333333 421 123 421 c 0
 114.333333333 421 103.333333333 421.666666667 90 423 c 128
 76.6666666667 424.333333333 63.3333333333 435 50 455 c 128
 36.6666666667 475 30 496.333333333 30 519 c 0
 30 526.333333333 31 533 33 539 c 0
 43 585 71.6666666667 621.666666667 119 649 c 0
 134.333333333 657.666666667 157 667 187 677 c 1
 187 632 l 1
EndSplineSet
EndChar

StartChar: u20A8
Encoding: 6 8360 6
Width: 800
Flags: HW
LayerCount: 2
Fore
SplineSet
706 92 m 0
 706 63.3333333333 695.333333333 39.8333333333 674 21.5 c 128
 652.666666667 3.16666666667 627.333333333 -6 598 -6 c 0
 584.666666667 -6 569 -3.33333333333 551 2 c 128
 533 7.33333333333 522.333333333 10 519 10 c 0
 514.333333333 10 511 8.33333333333 509 5 c 1
 490 8 l 1
 490 115 l 1
 509 115 l 1
 518.333333333 80.3333333333 530.166666667 56.6666666667 544.5 44 c 128
 558.833333333 31.3333333333 577.333333333 25 600 25 c 0
 612 25 622.833333333 29.1666666667 632.5 37.5 c 128
 642.166666667 45.8333333333 647 55 647 65 c 0
 647 81.6666666667 635.333333333 97 612 111 c 0
 603.333333333 116.333333333 589.333333333 123.333333333 570 132 c 0
 539.333333333 147.333333333 519.666666667 159.333333333 511 168 c 0
 496.333333333 182 489 200.666666667 489 224 c 0
 489 250.666666667 497.833333333 272.166666667 515.5 288.5 c 128
 533.166666667 304.833333333 556 313 584 313 c 0
 593.333333333 313 602.833333333 311.833333333 612.5 309.5 c 128
 622.166666667 307.166666667 632.666666667 304.666666667 644 302 c 0
 651.333333333 302 656.333333333 305.666666667 659 313 c 1
 686 313 l 1
 686 204 l 1
 659 204 l 1
 652.333333333 234 643 255 631 267 c 128
 619 279 602.666666667 285 582 285 c 0
 570 285 559.666666667 282.166666667 551 276.5 c 128
 542.333333333 270.833333333 538 262.666666667 538 252 c 0
 538 235.333333333 546.333333333 221.666666667 563 211 c 0
 565.666666667 209 585 200 621 184 c 0
 649 170 668.333333333 158 679 148 c 0
 697 132 706 113.333333333 706 92 c 0
457 4 m 1
 327 4 l 1
 175 207 l 1
 139 205 l 1
 137 86 l 2
 137 61.3333333333 139.666666667 46.3333333333 145 41 c 128
 150.333333333 35.6666666667 161 33 177 33 c 2
 202 33 l 1
 202 4 l 1
 -1 4 l 1
 -1 33 l 1
 19 33 l 2
 35 33 45.6666666667 35.3333333333 51 40 c 0
 59 46.6666666667 63 62 63 86 c 2
 63 367 l 2
 63 388.333333333 59.6666666667 401.666666667 53 407 c 128
 46.3333333333 412.333333333 35.3333333333 415 20 415 c 2
 -3 413 l 1
 -3 446 l 1
 165 446 l 2
 231.666666667 446 280.833333333 437.5 312.5 420.5 c 128
 344.166666667 403.5 360 374 360 332 c 0
 360 306 352.333333333 283.666666667 337 265 c 0
 319 243.666666667 291.333333333 227.333333333 254 216 c 1
 280 181.333333333 305 148.666666667 329 118 c 0
 365.666666667 71.3333333333 387 46.6666666667 393 44 c 0
 400.333333333 39.3333333333 410.666666667 36 424 34 c 128
 437.333333333 32 448.333333333 30.3333333333 457 29 c 1
 457 4 l 1
275 322 m 256
 275 346 268 365.333333333 254 380 c 0
 236.666666667 398.666666667 209.666666667 408 173 408 c 0
 162.333333333 408 151 407 139 405 c 1
 139 240 l 1
 179 240 211.666666667 247.666666667 237 263 c 128
 262.333333333 278.333333333 275 298 275 322 c 256
EndSplineSet
EndChar

StartChar: percent.taml
Encoding: 7 -1 7
Width: 581
Flags: HW
LayerCount: 2
Fore
SplineSet
509 161 m 0
 509 110.333333333 496.666666667 72 472 46 c 0
 452 24.6666666667 427.333333333 14 398 14 c 0
 367.333333333 14 344.333333333 24.6666666667 329 46 c 128
 313.666666667 67.3333333333 306 98.6666666667 306 140 c 0
 306 194 319.333333333 234.666666667 346 262 c 0
 366 282 388.666666667 292 414 292 c 0
 446 292 470.333333333 278.666666667 487 252 c 0
 501.666666667 228.666666667 509 198.333333333 509 161 c 0
444 504 m 1
 144 12 l 1
 80 12 l 1
 379 504 l 1
 444 504 l 1
222 378 m 0
 222 324 208.666666667 283.333333333 182 256 c 0
 162 236 139.333333333 226 114 226 c 0
 82 226 58.1666666667 238.5 42.5 263.5 c 128
 26.8333333333 288.5 19 319.666666667 19 357 c 0
 19 407.666666667 31.3333333333 446 56 472 c 0
 76 493.333333333 100.666666667 504 130 504 c 0
 160.666666667 504 183.666666667 493.333333333 199 472 c 128
 214.333333333 450.666666667 222 419.333333333 222 378 c 0
449 124 m 0
 449 158.666666667 443.5 184 432.5 200 c 128
 421.5 216 407.333333333 224 390 224 c 0
 380.666666667 224 374.333333333 221.333333333 371 216 c 128
 367.666666667 210.666666667 366 200.666666667 366 186 c 0
 366 116 386.333333333 81 427 81 c 0
 441.666666667 81 449 95.3333333333 449 124 c 0
162 332 m 0
 162 402 141.666666667 437 101 437 c 0
 86.3333333333 437 79 422.333333333 79 393 c 0
 79 359 85 333.333333333 97 316 c 0
 107 301.333333333 120.666666667 294 138 294 c 0
 147.333333333 294 153.666666667 296.666666667 157 302 c 128
 160.333333333 307.333333333 162 317.333333333 162 332 c 0
EndSplineSet
EndChar

StartChar: ampersand.taml
Encoding: 8 -1 8
Width: 505
Flags: HW
LayerCount: 2
Fore
SplineSet
497 95 m 1
 487.666666667 62.3333333333 473.833333333 38 455.5 22 c 128
 437.166666667 6 415 -2 389 -2 c 0
 379 -2 369.333333333 -1 360 1 c 128
 350.666666667 3 340.833333333 6.66666666667 330.5 12 c 128
 320.166666667 17.3333333333 310.833333333 23.3333333333 302.5 30 c 128
 294.166666667 36.6666666667 285 45 275 55 c 1
 251.666666667 36.3333333333 227.833333333 22.1666666667 203.5 12.5 c 128
 179.166666667 2.83333333333 156.333333333 -2 135 -2 c 0
 102.333333333 -2 73 8.33333333333 47 29 c 0
 24.3333333333 48.3333333333 13 72 13 100 c 0
 13 125.333333333 22.5 150.5 41.5 175.5 c 128
 60.5 200.5 94 226 142 252 c 1
 126.666666667 286 119 315 119 339 c 0
 119 371.666666667 130.5 398 153.5 418 c 128
 176.5 438 205.333333333 448 240 448 c 0
 266.666666667 448 289.166666667 440 307.5 424 c 128
 325.833333333 408 335 388.333333333 335 365 c 0
 335 343 327.666666667 323.333333333 313 306 c 128
 298.333333333 288.666666667 272 270.333333333 234 251 c 1
 244 233.666666667 255.166666667 215.5 267.5 196.5 c 128
 279.833333333 177.5 292.333333333 160.333333333 305 145 c 1
 335 182.333333333 350 213 350 237 c 0
 350 243 348 248.5 344 253.5 c 128
 340 258.5 332.333333333 261.666666667 321 263 c 1
 321 293 l 1
 473 293 l 1
 473 263 l 1
 461 263 451.833333333 262.166666667 445.5 260.5 c 128
 439.166666667 258.833333333 432.833333333 255.833333333 426.5 251.5 c 128
 420.166666667 247.166666667 408.5 229.666666667 391.5 199 c 128
 374.5 168.333333333 354.666666667 139.333333333 332 112 c 1
 338.666666667 104 346 97 354 91 c 128
 362 85 369 80 375 76 c 0
 387.666666667 69.3333333333 400 66 412 66 c 0
 439.333333333 66 457.333333333 82.6666666667 466 116 c 1
 497 95 l 1
278 366 m 0
 278 377.333333333 274.333333333 386.833333333 267 394.5 c 128
 259.666666667 402.166666667 250 406.666666667 238 408 c 0
 224.666666667 408 214 403.333333333 206 394 c 128
 198 384.666666667 194 374.333333333 194 363 c 0
 194 351 195.166666667 340.833333333 197.5 332.5 c 128
 199.833333333 324.166666667 205.666666667 309.666666667 215 289 c 1
 235.666666667 299 251.333333333 310.333333333 262 323 c 128
 272.666666667 335.666666667 278 350 278 366 c 0
244 86 m 1
 223.333333333 114.666666667 206.833333333 138.5 194.5 157.5 c 128
 182.166666667 176.5 171 195.333333333 161 214 c 1
 151 207 151 207 141 200 c 0
 129.666666667 191.333333333 121.333333333 183.333333333 116 176 c 0
 105.333333333 161.333333333 100 145 100 127 c 0
 100 108.333333333 106 91.3333333333 118 76 c 0
 132.666666667 60 149.333333333 52 168 52 c 0
 179.333333333 52 190.833333333 54.5 202.5 59.5 c 128
 214.166666667 64.5 228 73.3333333333 244 86 c 1
EndSplineSet
EndChar

StartChar: quoteright.taml
Encoding: 9 -1 9
Width: 250
Flags: HW
LayerCount: 2
Fore
SplineSet
160 549 m 0
 150 503 121.333333333 466.333333333 74 439 c 0
 58.6666666667 430.333333333 36 421 6 411 c 1
 6 456 l 1
 43.3333333333 468 72.3333333333 486.333333333 93 511 c 0
 111.666666667 533 116.666666667 546.666666667 108 552 c 0
 104.666666667 554.666666667 100.666666667 556 96 556 c 256
 91.3333333333 556 84.3333333333 553 75 547 c 128
 65.6666666667 541 57.6666666667 538 51 538 c 0
 45.6666666667 538 39.3333333333 540 32 544 c 0
 9.33333333333 558.666666667 -2 578.666666667 -2 604 c 0
 -2 617.333333333 1.5 629 8.5 639 c 128
 15.5 649 24 656.166666667 34 660.5 c 128
 44 664.833333333 56 667 70 667 c 0
 78.6666666667 667 89.6666666667 666.333333333 103 665 c 128
 116.333333333 663.666666667 129.666666667 653 143 633 c 128
 156.333333333 613 163 591.666666667 163 569 c 0
 163 561.666666667 162 555 160 549 c 0
EndSplineSet
EndChar

StartChar: parenleft.taml
Encoding: 10 -1 10
Width: 280
Flags: HW
LayerCount: 2
Fore
SplineSet
316 -232 m 1
 298 -253 l 1
 211.333333333 -205.666666667 146 -142 102 -62 c 0
 60.6666666667 12.6666666667 40 96.3333333333 40 189 c 0
 40 283 60.3333333333 367 101 441 c 0
 145 521 210.333333333 584.666666667 297 632 c 1
 316 614 l 1
 259.333333333 570 215.666666667 510 185 434 c 128
 154.333333333 358 139 277 139 191 c 0
 139 105.666666667 153.833333333 25.8333333333 183.5 -48.5 c 128
 213.166666667 -122.833333333 257.333333333 -184 316 -232 c 1
EndSplineSet
EndChar

StartChar: parenright.taml
Encoding: 11 -1 11
Width: 280
Flags: HW
LayerCount: 2
Fore
SplineSet
200 189 m 0
 200 96.3333333333 179.333333333 12.6666666667 138 -62 c 0
 94 -142 28.6666666667 -205.666666667 -58 -253 c 1
 -76 -233 l 1
 -18 -185.666666667 26 -124.166666667 56 -48.5 c 128
 86 27.1666666667 101 107.333333333 101 192 c 0
 101 277.333333333 85.6666666667 357.833333333 55 433.5 c 128
 24.3333333333 509.166666667 -19.3333333333 569 -76 613 c 1
 -57 632 l 1
 29 584.666666667 94 521.333333333 138 442 c 0
 179.333333333 367.333333333 200 283 200 189 c 0
EndSplineSet
EndChar

StartChar: asterisk.taml
Encoding: 12 -1 12
Width: 600
Flags: HW
LayerCount: 2
Fore
SplineSet
447 331 m 0
 438.333333333 317.666666667 425.333333333 311 408 311 c 0
 398.666666667 311 391 314 385 320 c 0
 374.333333333 328.666666667 361.333333333 340 346 354 c 128
 330.666666667 368 320.333333333 377 315 381 c 1
 316.333333333 369.666666667 320 354 326 334 c 0
 330 320.666666667 334 306.666666667 338 292 c 1
 338 279.333333333 334.333333333 268.666666667 327 260 c 128
 319.666666667 251.333333333 310 247 298 247 c 0
 288 247 278.833333333 251.166666667 270.5 259.5 c 128
 262.166666667 267.833333333 258 278.666666667 258 292 c 1
 260.666666667 304.666666667 265 321.333333333 271 342 c 0
 275 356.666666667 278 370 280 382 c 1
 273.333333333 377.333333333 266.333333333 371.333333333 259 364 c 0
 236 342 236 342 213 320 c 0
 204.333333333 313.333333333 194.666666667 310 184 310 c 0
 168.666666667 310 157 316 149 328 c 0
 145.666666667 334.666666667 144 341 144 347 c 0
 144 355.666666667 146.333333333 363.333333333 151 370 c 128
 155.666666667 376.666666667 162.5 381.5 171.5 384.5 c 128
 180.5 387.5 195.5 391.5 216.5 396.5 c 128
 237.5 401.5 253 406 263 410 c 1
 259.666666667 411.333333333 248.166666667 414.333333333 228.5 419 c 128
 208.833333333 423.666666667 189.666666667 428.666666667 171 434 c 0
 165 436.666666667 159.666666667 440.333333333 155 445 c 0
 148.333333333 452.333333333 145 461.666666667 145 473 c 0
 145 480.333333333 146.333333333 486.333333333 149 491 c 0
 158.333333333 503 171 509 187 509 c 0
 197 509 205.666666667 506.333333333 213 501 c 0
 224.333333333 491 236.666666667 479.166666667 250 465.5 c 128
 263.333333333 451.833333333 273.333333333 442.333333333 280 437 c 1
 277.333333333 450.333333333 275.333333333 459.666666667 274 465 c 0
 264.666666667 500.333333333 259.333333333 521 258 527 c 0
 258 540.333333333 262 551 270 559 c 128
 278 567 287.666666667 571 299 571 c 256
 310.333333333 571 319.666666667 566.666666667 327 558 c 128
 334.333333333 549.333333333 338 538.666666667 338 526 c 0
 337.333333333 524.666666667 332.333333333 507.333333333 323 474 c 0
 319 460 316.333333333 447.666666667 315 437 c 1
 321 441.666666667 333.666666667 453.333333333 353 472 c 0
 363 482 373.666666667 491.666666667 385 501 c 0
 391 505 398.333333333 507 407 507 c 0
 423.666666667 507 436.666666667 501.333333333 446 490 c 0
 449.333333333 483.333333333 451 477 451 471 c 0
 451 450.333333333 439.666666667 437.333333333 417 432 c 128
 394.333333333 426.666666667 377.5 422.833333333 366.5 420.5 c 128
 355.5 418.166666667 344 414.666666667 332 410 c 1
 343.333333333 405.333333333 356.833333333 401 372.5 397 c 128
 388.166666667 393 405 389 423 385 c 0
 441.666666667 379.666666667 451 367.333333333 451 348 c 0
 451 341.333333333 449.666666667 335.666666667 447 331 c 0
EndSplineSet
EndChar

StartChar: plus.taml
Encoding: 13 -1 13
Width: 420
Flags: HW
LayerCount: 2
Fore
SplineSet
319 183 m 2
 254 183 l 1
 254 121 l 2
 254 113 249.833333333 106.833333333 241.5 102.5 c 128
 233.166666667 98.1666666667 222.666666667 96 210 96 c 0
 198.666666667 96 188.5 98.1666666667 179.5 102.5 c 128
 170.5 106.833333333 166 113 166 121 c 2
 166 183 l 1
 101 183 l 2
 93 183 86.8333333333 187 82.5 195 c 128
 78.1666666667 203 76 213 76 225 c 0
 76 236.333333333 78.1666666667 246.166666667 82.5 254.5 c 128
 86.8333333333 262.833333333 93 267 101 267 c 2
 166 267 l 1
 166 329 l 2
 166 336.333333333 170.333333333 342.333333333 179 347 c 128
 187.666666667 351.666666667 198 354 210 354 c 256
 222 354 232.333333333 351.833333333 241 347.5 c 128
 249.666666667 343.166666667 254 337 254 329 c 2
 254 267 l 1
 319 267 l 2
 327 267 333.333333333 262.833333333 338 254.5 c 128
 342.666666667 246.166666667 345 236.333333333 345 225 c 0
 345 213 342.833333333 203 338.5 195 c 128
 334.166666667 187 327.666666667 183 319 183 c 2
EndSplineSet
EndChar

StartChar: comma.taml
Encoding: 14 -1 14
Width: 220
Flags: HW
LayerCount: 2
Fore
SplineSet
164 32 m 0
 164 -6 149.666666667 -38.6666666667 121 -66 c 0
 83 -102 47 -120 13 -120 c 1
 13 -77 l 1
 27.6666666667 -77 46.3333333333 -68.3333333333 69 -51 c 0
 95.6666666667 -30.3333333333 109 -9 109 13 c 1
 107 15 l 1
 103 15 96.3333333333 12 87 6 c 128
 77.6666666667 0 69.6666666667 -3 63 -3 c 0
 51 -3 38.3333333333 4 25 18 c 128
 11.6666666667 32 5 46.6666666667 5 62 c 0
 5 78 12 92.6666666667 26 106 c 128
 40 119.333333333 55.6666666667 126 73 126 c 0
 99.6666666667 126 121.5 116.333333333 138.5 97 c 128
 155.5 77.6666666667 164 56 164 32 c 0
EndSplineSet
EndChar

StartChar: hyphen.taml
Encoding: 15 -1 15
Width: 443
Flags: HW
LayerCount: 2
Fore
SplineSet
361 191 m 2
 81 191 l 2
 64.3333333333 191 50.8333333333 194.666666667 40.5 202 c 128
 30.1666666667 209.333333333 25 217.666666667 25 227 c 256
 25 236.333333333 29.8333333333 244.333333333 39.5 251 c 128
 49.1666666667 257.666666667 63 261 81 261 c 2
 361 261 l 2
 379 261 393 257.333333333 403 250 c 128
 413 242.666666667 418 234 418 224 c 0
 418 214.666666667 413.333333333 206.833333333 404 200.5 c 128
 394.666666667 194.166666667 380.333333333 191 361 191 c 2
EndSplineSet
EndChar

StartChar: period.taml
Encoding: 16 -1 16
Width: 220
Flags: HW
LayerCount: 2
Fore
SplineSet
163 62 m 256
 163 44.6666666667 155.666666667 30 141 18 c 128
 126.333333333 6 109 0 89 0 c 0
 70.3333333333 0 53.6666666667 6 39 18 c 128
 24.3333333333 30 17 44.6666666667 17 62 c 256
 17 79.3333333333 24 94 38 106 c 128
 52 118 69 124 89 124 c 256
 109 124 126.333333333 118 141 106 c 128
 155.666666667 94 163 79.3333333333 163 62 c 256
EndSplineSet
EndChar

StartChar: slash.taml
Encoding: 18 -1 18
Width: 260
Flags: HW
LayerCount: 2
Fore
SplineSet
273 614 m 1
 28 -94 l 1
 -32 -94 l 1
 214 614 l 1
 273 614 l 1
EndSplineSet
EndChar

StartChar: zero.taml
Encoding: 19 -1 19
Width: 534
Flags: HW
LayerCount: 2
Fore
SplineSet
424 225 m 0
 424 151 402.333333333 94 359 54 c 0
 319.666666667 18 267.666666667 0 203 0 c 0
 189 0 175 1 161 3 c 0
 99 11 54.3333333333 34.6666666667 27 74 c 0
 2.33333333333 108.666666667 -10 159 -10 225 c 0
 -10 291.666666667 2.33333333333 342.333333333 27 377 c 0
 54.3333333333 415.666666667 99 438.666666667 161 446 c 0
 168.333333333 446.666666667 176.166666667 447.166666667 184.5 447.5 c 128
 192.833333333 447.833333333 199 448 203 448 c 0
 273.666666667 448 328.666666667 426.666666667 368 384 c 0
 405.333333333 343.333333333 424 290.333333333 424 225 c 0
284 224 m 0
 284 273.333333333 275.333333333 311.333333333 258 338 c 0
 237.333333333 370 205.333333333 386 162 386 c 0
 124 386 95.8333333333 370.5 77.5 339.5 c 128
 59.1666666667 308.5 50 270 50 224 c 0
 50 180 59.5 142.5 78.5 111.5 c 128
 97.5 80.5 125.333333333 65 162 65 c 0
 204 65 235.666666667 81.6666666667 257 115 c 0
 275 143.666666667 284 180 284 224 c 0
EndSplineSet
EndChar

StartChar: one.taml
Encoding: 20 -1 20
Width: 347
Flags: HW
LayerCount: 2
Fore
SplineSet
235 411 m 0
 218.333333333 383 210 348.333333333 210 307 c 0
 210 290.333333333 209.166666667 259.5 207.5 214.5 c 128
 205.833333333 169.5 205 143.333333333 205 136 c 0
 205 89.3333333333 191 53.3333333333 163 28 c 0
 139 6.66666666667 109.666666667 -4 75 -4 c 0
 53.6666666667 -4 43 2.33333333333 43 15 c 0
 43 21.6666666667 45.3333333333 28.3333333333 50 35 c 0
 58.6666666667 49 65.1666666667 64.6666666667 69.5 82 c 128
 73.8333333333 99.3333333333 76 118.333333333 76 139 c 0
 76 154.333333333 81 190.666666667 91 248 c 0
 97 284 97 284 103 320 c 1
 97.6666666667 304.666666667 90.6666666667 290 82 276 c 0
 71.3333333333 258.666666667 59 244.333333333 45 233 c 0
 36.3333333333 224.333333333 26.6666666667 220 16 220 c 0
 4 220 -4 225.333333333 -8 236 c 0
 -9.33333333333 241.333333333 -10 245.333333333 -10 248 c 0
 -10 257.333333333 -4.66666666667 265.833333333 6 273.5 c 128
 16.6666666667 281.166666667 23.3333333333 286.166666667 26 288.5 c 128
 28.6666666667 290.833333333 31.3333333333 293.333333333 34 296 c 0
 40.6666666667 302.666666667 46.6666666667 311.333333333 52 322 c 0
 66 350 75.6666666667 369.666666667 81 381 c 0
 91 400.333333333 102 414.333333333 114 423 c 128
 126 431.666666667 139.5 438.333333333 154.5 443 c 128
 169.5 447.666666667 188.333333333 450 211 450 c 0
 232.333333333 450 243 443.666666667 243 431 c 0
 243 425 240.333333333 418.333333333 235 411 c 0
EndSplineSet
EndChar

StartChar: two.taml
Encoding: 21 -1 21
Width: 475
Flags: HW
LayerCount: 2
Fore
SplineSet
359 24 m 0
 347 18 335.333333333 12 324 6 c 0
 313.333333333 2 295.333333333 0 270 0 c 0
 248.666666667 0 233 1.33333333333 223 4 c 128
 213 6.66666666667 197.666666667 8 177 8 c 0
 155.666666667 8 138 7 124 5 c 0
 86.6666666667 -0.333333333333 64.3333333333 -3 57 -3 c 0
 39 -3 24.6666666667 0.666666666667 14 8 c 0
 -2 18.6666666667 -10 36.6666666667 -10 62 c 0
 -10 92 28.6666666667 126 106 164 c 128
 183.333333333 202 222 250 222 308 c 0
 222 338 216.666666667 359.666666667 206 373 c 128
 195.333333333 386.333333333 177.333333333 393 152 393 c 2
 136 393 l 2
 118.666666667 393 104.666666667 390.333333333 94 385 c 0
 76.6666666667 376.333333333 62 360 50 336 c 0
 46.6666666667 329.333333333 42 324 36 320 c 128
 30 316 24.3333333333 314 19 314 c 0
 2.33333333333 314 -6 322.666666667 -6 340 c 0
 -6 346.666666667 -4.33333333333 353.333333333 -1 360 c 0
 18.3333333333 396 39.8333333333 420 63.5 432 c 128
 87.1666666667 444 115.666666667 450 149 450 c 0
 220.333333333 450 272 437.833333333 304 413.5 c 128
 336 389.166666667 352 352.666666667 352 304 c 0
 352 244 325 200.333333333 271 173 c 1
 209 147.666666667 147.333333333 122.333333333 86 97 c 0
 70.6666666667 89 63 80.3333333333 63 71 c 0
 63 66.3333333333 65.5 62.3333333333 70.5 59 c 128
 75.5 55.6666666667 81.3333333333 54 88 54 c 0
 91.3333333333 54 95.6666666667 54.6666666667 101 56 c 0
 122.333333333 63.3333333333 135 67 139 67 c 0
 147.666666667 65.6666666667 159.666666667 65 175 65 c 0
 191.666666667 65 204.333333333 63.6666666667 213 61 c 128
 221.666666667 58.3333333333 233.666666667 57 249 57 c 0
 267.666666667 57 282 59 292 63 c 0
 302.666666667 69 311.666666667 73.6666666667 319 77 c 0
 332.333333333 83.6666666667 344.333333333 87 355 87 c 0
 377.666666667 87 389 77.6666666667 389 59 c 0
 389 53 386.5 46.6666666667 381.5 40 c 128
 376.5 33.3333333333 369 28 359 24 c 0
EndSplineSet
EndChar

StartChar: three.taml
Encoding: 22 -1 22
Width: 424
Flags: HW
LayerCount: 2
Fore
SplineSet
253 226 m 1
 274.333333333 210 290.166666667 192.666666667 300.5 174 c 128
 310.833333333 155.333333333 316 137.333333333 316 120 c 0
 316 86 299 56.8333333333 265 32.5 c 128
 231 8.16666666667 188.666666667 -4 138 -4 c 0
 123 -4 123 -4 108 -4 c 0
 98.6666666667 -2 92 -0.666666666667 88 0 c 0
 37.3333333333 8 5 32 -9 72 c 0
 -10.3333333333 77.3333333333 -11 81 -11 83 c 0
 -11 91.6666666667 -8.33333333333 99.3333333333 -3 106 c 128
 2.33333333333 112.666666667 9 116 17 116 c 0
 29 116 39.6666666667 107 49 89 c 0
 55 78.3333333333 62 70.5 70 65.5 c 128
 78 60.5 89.6666666667 58 105 58 c 0
 123.666666667 58 141.5 65.6666666667 158.5 81 c 128
 175.5 96.3333333333 184 114.666666667 184 136 c 0
 184 151.333333333 179 166.5 169 181.5 c 128
 159 196.5 142.333333333 211.333333333 119 226 c 1
 141 240.666666667 157.333333333 256.166666667 168 272.5 c 128
 178.666666667 288.833333333 184 304.333333333 184 319 c 0
 184 339 176.166666667 355.666666667 160.5 369 c 128
 144.833333333 382.333333333 126.333333333 389 105 389 c 0
 95 389 95 389 85 389 c 0
 77.6666666667 387 70.6666666667 381.666666667 64 373 c 0
 54 360.333333333 43.6666666667 354 33 354 c 0
 25.6666666667 354 19.3333333333 356.833333333 14 362.5 c 128
 8.66666666667 368.166666667 6 375.333333333 6 384 c 0
 6 390.666666667 8 397.833333333 12 405.5 c 128
 16 413.166666667 26.5 421.666666667 43.5 431 c 128
 60.5 440.333333333 74.6666666667 446 86 448 c 128
 97.3333333333 450 107.333333333 451.333333333 116 452 c 128
 124.666666667 452.666666667 133 453 141 453 c 0
 190.333333333 453 231.333333333 441.666666667 264 419 c 128
 296.666666667 396.333333333 313 367.666666667 313 333 c 0
 313 315.666666667 308.166666667 298.166666667 298.5 280.5 c 128
 288.833333333 262.833333333 273.666666667 244.666666667 253 226 c 1
EndSplineSet
EndChar

StartChar: four.taml
Encoding: 23 -1 23
Width: 509
Flags: HW
LayerCount: 2
Fore
SplineSet
394 140 m 0
 368.666666667 125.333333333 344.333333333 118 321 118 c 2
 314 118 l 1
 310 77.3333333333 294.666666667 46 268 24 c 0
 244.666666667 5.33333333333 217 -4 185 -4 c 0
 163.666666667 -4 153 2.33333333333 153 15 c 0
 153 21.6666666667 155.333333333 28.3333333333 160 35 c 0
 174 57.6666666667 182.333333333 85.3333333333 185 118 c 1
 21 114 l 2
 0.333333333333 114 -10 123 -10 141 c 0
 -10 146.333333333 -7.66666666667 153 -3 161 c 0
 47 211 98.6666666667 269 152 335 c 0
 174.666666667 363 197.666666667 391.333333333 221 420 c 0
 230.333333333 431.333333333 243 439.166666667 259 443.5 c 128
 275 447.833333333 295.666666667 450 321 450 c 0
 342.333333333 450 353 443.666666667 353 431 c 0
 353 425 350.333333333 418.333333333 345 411 c 0
 328.333333333 383 320 348.333333333 320 307 c 2
 315 169 l 1
 310 169 l 2
 321.333333333 169 337.666666667 174.666666667 359 186 c 0
 369.666666667 191.333333333 380 194 390 194 c 0
 408 194 417 186.333333333 417 171 c 0
 417 165 415.333333333 159.5 412 154.5 c 128
 408.666666667 149.5 402.666666667 144.666666667 394 140 c 0
222 352 m 1
 206 326 183 294.333333333 153 257 c 128
 123 219.666666667 95.6666666667 189.333333333 71 166 c 1
 188 174 l 1
 190.666666667 200.666666667 197.666666667 239.666666667 209 291 c 0
 213 311 217.333333333 331.333333333 222 352 c 1
EndSplineSet
EndChar

StartChar: five.taml
Encoding: 24 -1 24
Width: 483
Flags: HW
LayerCount: 2
Fore
SplineSet
373 152 m 0
 373 104.666666667 358.333333333 68.6666666667 329 44 c 0
 293 13.3333333333 231.333333333 -2 144 -2 c 0
 111.333333333 -2 86.1666666667 0.333333333333 68.5 5 c 128
 50.8333333333 9.66666666667 32.6666666667 19.3333333333 14 34 c 0
 6.66666666667 39.3333333333 3 46 3 54 c 256
 3 62 6.33333333333 69 13 75 c 128
 19.6666666667 81 27 84 35 84 c 0
 41 84 46.6666666667 82 52 78 c 0
 66 67.3333333333 78.1666666667 60.8333333333 88.5 58.5 c 128
 98.8333333333 56.1666666667 117.333333333 55 144 55 c 0
 168.666666667 55 190.333333333 64 209 82 c 128
 227.666666667 100 237 123.333333333 237 152 c 0
 237 194 218.333333333 224 181 242 c 0
 154.333333333 254.666666667 120 261 78 261 c 0
 48.6666666667 261 34 268.333333333 34 283 c 0
 34 289.666666667 38.3333333333 299 47 311 c 1
 90 410 l 1
 111 424 l 2
 118.333333333 428 127.333333333 430 138 430 c 0
 144.666666667 430 153.666666667 429.5 165 428.5 c 128
 176.333333333 427.5 182.666666667 427 184 427 c 0
 196.666666667 427 209.833333333 426.5 223.5 425.5 c 128
 237.166666667 424.5 244.333333333 424 245 424 c 0
 258.333333333 424 269.333333333 425.166666667 278 427.5 c 128
 286.666666667 429.833333333 297.333333333 434.333333333 310 441 c 128
 322.666666667 447.666666667 334.666666667 451 346 451 c 0
 368.666666667 451 380 441.666666667 380 423 c 0
 380 417.666666667 379 413.333333333 377 410 c 0
 371.666666667 400.666666667 362 392.833333333 348 386.5 c 128
 334 380.166666667 320.333333333 375.333333333 307 372 c 128
 293.666666667 368.666666667 280 367 266 367 c 0
 251.333333333 367 236.166666667 367.5 220.5 368.5 c 128
 204.833333333 369.5 193.333333333 370 186 370 c 2
 138 368 l 1
 105 318 l 1
 121 320 136.666666667 321 152 321 c 0
 214.666666667 321 266.333333333 307 307 279 c 0
 351 248.333333333 373 206 373 152 c 0
EndSplineSet
EndChar

StartChar: six.taml
Encoding: 25 -1 25
Width: 374
Flags: HW
LayerCount: 2
Fore
SplineSet
314 169 m 0
 314 117 304.666666667 77.6666666667 286 51 c 0
 262 17 222 0 166 0 c 0
 103.333333333 0 59.6666666667 16 35 48 c 0
 14.3333333333 74.6666666667 4 118.333333333 4 179 c 0
 4 264.333333333 21.3333333333 329.333333333 56 374 c 0
 95.3333333333 424.666666667 157.666666667 450 243 450 c 0
 255.666666667 450 265.833333333 447.166666667 273.5 441.5 c 128
 281.166666667 435.833333333 285 429 285 421 c 256
 285 413 281.333333333 406.333333333 274 401 c 128
 266.666666667 395.666666667 255.666666667 393 241 393 c 0
 192.333333333 393 153.666666667 381.666666667 125 359 c 0
 99.6666666667 339 83.6666666667 312.666666667 77 280 c 1
 95.6666666667 287.333333333 118.333333333 291 145 291 c 0
 189 291 227 281 259 261 c 0
 295.666666667 238.333333333 314 207.666666667 314 169 c 0
184 149 m 0
 184 173.666666667 178.666666667 191.666666667 168 203 c 128
 157.333333333 214.333333333 142.333333333 220 123 220 c 0
 90.3333333333 220 74 198.333333333 74 155 c 0
 74 125.666666667 78.1666666667 102 86.5 84 c 128
 94.8333333333 66 106.666666667 57 122 57 c 0
 147.333333333 57 164 63.5 172 76.5 c 128
 180 89.5 184 113.666666667 184 149 c 0
EndSplineSet
EndChar

StartChar: seven.taml
Encoding: 26 -1 26
Width: 455
Flags: HW
LayerCount: 2
Fore
SplineSet
343 406 m 0
 326.333333333 384 315.666666667 357.666666667 311 327 c 2
 278 103 l 2
 272.666666667 69 259.833333333 43.8333333333 239.5 27.5 c 128
 219.166666667 11.1666666667 196.333333333 3 171 3 c 0
 165 3 160.333333333 3.33333333333 157 4 c 0
 139.666666667 7.33333333333 131 13.6666666667 131 23 c 0
 131 29 134 35 140 41 c 0
 156.666666667 63.6666666667 167.333333333 89.6666666667 172 119 c 2
 205 343 l 2
 206.333333333 355.666666667 209 369.333333333 213 384 c 1
 195.666666667 380.666666667 180.333333333 377.833333333 167 375.5 c 128
 153.666666667 373.166666667 135.333333333 372 112 372 c 0
 100 372 84.5 374 65.5 378 c 128
 46.5 382 32.6666666667 385.666666667 24 389 c 0
 4 395 -6 404 -6 416 c 0
 -6 420 -5 424 -3 428 c 0
 2.33333333333 440 10.6666666667 446 22 446 c 0
 26.6666666667 446 33.6666666667 444.5 43 441.5 c 128
 52.3333333333 438.5 59 436.666666667 63 436 c 0
 71 434.666666667 81.3333333333 433.333333333 94 432 c 128
 106.666666667 430.666666667 120 430 134 430 c 0
 153.333333333 430 170.666666667 431.666666667 186 435 c 0
 209.333333333 440.333333333 222.666666667 443 226 443 c 0
 247.333333333 445 269 447 291 449 c 0
 307 449 321.166666667 445.833333333 333.5 439.5 c 128
 345.833333333 433.166666667 352 427.666666667 352 423 c 0
 352 419 349 413.333333333 343 406 c 0
EndSplineSet
EndChar

StartChar: eight.taml
Encoding: 27 -1 27
Width: 399
Flags: HW
LayerCount: 2
Fore
SplineSet
296 127 m 0
 296 83 280.333333333 49.6666666667 249 27 c 0
 222.333333333 7.66666666667 187.666666667 -2 145 -2 c 0
 132.333333333 -2 119.333333333 -1 106 1 c 0
 69.3333333333 6.33333333333 40.8333333333 19.8333333333 20.5 41.5 c 128
 0.166666666667 63.1666666667 -10 91.6666666667 -10 127 c 0
 -10 151 -4.66666666667 171.333333333 6 188 c 128
 16.6666666667 204.666666667 31 218.666666667 49 230 c 1
 33 241.333333333 20 255.166666667 10 271.5 c 128
 0 287.833333333 -5 305.666666667 -5 325 c 0
 -5 357.666666667 3.66666666667 385.166666667 21 407.5 c 128
 38.3333333333 429.833333333 65.3333333333 443.666666667 102 449 c 0
 117.333333333 451 131 452 143 452 c 0
 191 452 227.666666667 439.333333333 253 414 c 0
 275.666666667 391.333333333 287 361.666666667 287 325 c 0
 287 305 280.333333333 286.666666667 267 270 c 128
 253.666666667 253.333333333 236.666666667 240.666666667 216 232 c 1
 240.666666667 222 259.333333333 209.666666667 272 195 c 0
 288 176.333333333 296 153.666666667 296 127 c 0
160 323 m 0
 160 346.333333333 156.333333333 363.666666667 149 375 c 128
 141.666666667 386.333333333 126.666666667 392 104 392 c 0
 86.6666666667 392 74.1666666667 385.666666667 66.5 373 c 128
 58.8333333333 360.333333333 55 343.666666667 55 323 c 0
 55 303.666666667 59.3333333333 287.166666667 68 273.5 c 128
 76.6666666667 259.833333333 89 253 105 253 c 0
 122.333333333 255.666666667 135.833333333 263.333333333 145.5 276 c 128
 155.166666667 288.666666667 160 304.333333333 160 323 c 0
169 125 m 0
 169 151 164.333333333 171.666666667 155 187 c 128
 145.666666667 202.333333333 129.666666667 210 107 210 c 0
 87.6666666667 210 73.3333333333 201.833333333 64 185.5 c 128
 54.6666666667 169.166666667 50 149 50 125 c 0
 50 104.333333333 55.1666666667 87.8333333333 65.5 75.5 c 128
 75.8333333333 63.1666666667 90.3333333333 57 109 57 c 0
 130.333333333 57 145.666666667 63 155 75 c 128
 164.333333333 87 169 103.666666667 169 125 c 0
EndSplineSet
EndChar

StartChar: nine.taml
Encoding: 28 -1 28
Width: 435
Flags: HW
LayerCount: 2
Fore
SplineSet
325 280 m 0
 325 192 307.333333333 125.333333333 272 80 c 0
 229.333333333 25.3333333333 159.333333333 -2 62 -2 c 0
 49.3333333333 -2 39.1666666667 0.833333333333 31.5 6.5 c 128
 23.8333333333 12.1666666667 20 19 20 27 c 256
 20 35 23.6666666667 41.6666666667 31 47 c 128
 38.3333333333 52.3333333333 49.3333333333 55 64 55 c 0
 116.666666667 55 159.666666667 67 193 91 c 0
 221 111.666666667 239.333333333 138.333333333 248 171 c 1
 220.666666667 151.666666667 189.666666667 142 155 142 c 0
 112.333333333 142 74.3333333333 155.166666667 41 181.5 c 128
 7.66666666667 207.833333333 -9 240 -9 278 c 0
 -9 330.666666667 0.333333333333 370.333333333 19 397 c 0
 42.3333333333 430.333333333 82.3333333333 447 139 447 c 0
 204.333333333 447 251.666666667 433.333333333 281 406 c 128
 310.333333333 378.666666667 325 336.666666667 325 280 c 0
255 305 m 0
 255 330.333333333 247.5 350.833333333 232.5 366.5 c 128
 217.5 382.166666667 201 390 183 390 c 0
 157.666666667 390 140.333333333 382.166666667 131 366.5 c 128
 121.666666667 350.833333333 117 326.666666667 117 294 c 0
 117 269.333333333 123.833333333 249.5 137.5 234.5 c 128
 151.166666667 219.5 167.666666667 212 187 212 c 0
 211.666666667 212 229.666666667 221.666666667 241 241 c 0
 250.333333333 257 255 278.333333333 255 305 c 0
EndSplineSet
EndChar

StartChar: colon.taml
Encoding: 29 -1 29
Width: 235
Flags: HW
LayerCount: 2
Fore
SplineSet
170 325 m 256
 170 305.666666667 162.833333333 289.5 148.5 276.5 c 128
 134.166666667 263.5 116.666666667 257 96 257 c 0
 76.6666666667 257 59.8333333333 263.5 45.5 276.5 c 128
 31.1666666667 289.5 24 305.666666667 24 325 c 256
 24 344.333333333 31 360.666666667 45 374 c 128
 59 387.333333333 76 394 96 394 c 256
 116 394 133.333333333 387.333333333 148 374 c 128
 162.666666667 360.666666667 170 344.333333333 170 325 c 256
170 59 m 0
 170 39.6666666667 162.666666667 23.3333333333 148 10 c 128
 133.333333333 -3.33333333333 116 -10 96 -10 c 0
 77.3333333333 -10 60.6666666667 -3.33333333333 46 10 c 128
 31.3333333333 23.3333333333 24 39.6666666667 24 59 c 0
 24 77.6666666667 31 93.6666666667 45 107 c 128
 59 120.333333333 76 127 96 127 c 256
 116 127 133.333333333 120.333333333 148 107 c 128
 162.666666667 93.6666666667 170 77.6666666667 170 59 c 0
EndSplineSet
EndChar

StartChar: semicolon.taml
Encoding: 30 -1 30
Width: 235
Flags: HW
LayerCount: 2
Fore
SplineSet
164 325 m 0
 164 305 156.666666667 288.333333333 142 275 c 128
 127.333333333 261.666666667 110 255 90 255 c 0
 70.6666666667 255 53.8333333333 261.833333333 39.5 275.5 c 128
 25.1666666667 289.166666667 18 305.666666667 18 325 c 0
 18 343.666666667 25.1666666667 359.833333333 39.5 373.5 c 128
 53.8333333333 387.166666667 70.6666666667 394 90 394 c 0
 110 394 127.333333333 387.333333333 142 374 c 128
 156.666666667 360.666666667 164 344.333333333 164 325 c 0
164 38 m 0
 164 -1.33333333333 149.666666667 -35.3333333333 121 -64 c 0
 83 -101.333333333 47 -120 13 -120 c 1
 13 -85 l 1
 27.6666666667 -83.6666666667 46.3333333333 -72.6666666667 69 -52 c 0
 95.6666666667 -28 109 -4.33333333333 109 19 c 1
 107 21 l 1
 103 21 96.1666666667 17.8333333333 86.5 11.5 c 128
 76.8333333333 5.16666666667 69 2 63 2 c 0
 50.3333333333 2 37.5 9.16666666667 24.5 23.5 c 128
 11.5 37.8333333333 5 53.3333333333 5 70 c 0
 5 87.3333333333 12 102.666666667 26 116 c 128
 40 129.333333333 55.6666666667 136 73 136 c 0
 99.6666666667 136 121.5 126 138.5 106 c 128
 155.5 86 164 63.3333333333 164 38 c 0
EndSplineSet
EndChar

StartChar: less.taml
Encoding: 31 -1 31
Width: 527
Flags: HW
LayerCount: 2
Fore
SplineSet
437 -6 m 1
 13 174 l 1
 13 231 l 1
 437 410 l 1
 437 340 l 1
 113 202 l 1
 437 64 l 1
 437 -6 l 1
EndSplineSet
EndChar

StartChar: equal.taml
Encoding: 32 -1 32
Width: 564
Flags: HW
LayerCount: 2
Fore
SplineSet
494 293 m 1
 70 293 l 1
 70 359 l 1
 494 359 l 1
 494 293 l 1
494 147 m 1
 70 147 l 1
 70 213 l 1
 494 213 l 1
 494 147 l 1
EndSplineSet
EndChar

StartChar: greater.taml
Encoding: 33 -1 33
Width: 527
Flags: HW
LayerCount: 2
Fore
SplineSet
437 174 m 1
 13 -6 l 1
 13 64 l 1
 337 202 l 1
 13 340 l 1
 13 410 l 1
 437 231 l 1
 437 174 l 1
EndSplineSet
EndChar

StartChar: question.taml
Encoding: 34 -1 34
Width: 398
Flags: HW
LayerCount: 2
Fore
SplineSet
318 313 m 0
 318 294.333333333 311 272 297 246 c 0
 285.666666667 225.333333333 272 205.666666667 256 187 c 0
 233.333333333 161.666666667 217.333333333 140 208 122 c 0
 196.666666667 100 188 71.6666666667 182 37 c 1
 149 37 l 1
 149 62.3333333333 152.333333333 88.3333333333 159 115 c 0
 163.666666667 133 168.666666667 148 174 160 c 2
 197 210 l 2
 203 226 209.166666667 245.333333333 215.5 268 c 128
 221.833333333 290.666666667 225 308 225 320 c 0
 225 343.333333333 219 363.333333333 207 380 c 0
 193 399.333333333 173 409 147 409 c 0
 131.666666667 409 117.166666667 405.333333333 103.5 398 c 128
 89.8333333333 390.666666667 83 381.666666667 83 371 c 0
 83 365 88 356.333333333 98 345 c 128
 108 333.666666667 113 323 113 313 c 256
 113 303 109.666666667 293.833333333 103 285.5 c 128
 96.3333333333 277.166666667 86 273 72 273 c 0
 54.6666666667 273 42 278.333333333 34 289 c 128
 26 299.666666667 22 313.333333333 22 330 c 0
 22 368.666666667 38 399.333333333 70 422 c 0
 97.3333333333 441.333333333 128.333333333 451 163 451 c 0
 186.333333333 451 210 446.166666667 234 436.5 c 128
 258 426.833333333 275.666666667 416 287 404 c 0
 298.333333333 390 306.333333333 376.5 311 363.5 c 128
 315.666666667 350.5 318 333.666666667 318 313 c 0
221 -46 m 0
 221 -62 215.5 -74.1666666667 204.5 -82.5 c 128
 193.5 -90.8333333333 181.333333333 -95 168 -95 c 0
 155.333333333 -95 144 -91.3333333333 134 -84 c 0
 121.333333333 -74.6666666667 115 -62 115 -46 c 0
 115 -31.3333333333 120.166666667 -19.1666666667 130.5 -9.5 c 128
 140.833333333 0.166666666667 153.333333333 5 168 5 c 0
 183.333333333 5 196 0 206 -10 c 128
 216 -20 221 -32 221 -46 c 0
EndSplineSet
EndChar

StartChar: u0952
Encoding: 38 2386 38
Width: 10
Flags: HW
LayerCount: 2
Fore
SplineSet
-105 -367 m 1
 -554 -365 l 1
 -600 -292 l 1
 -152 -293 l 1
 -105 -367 l 1
2 0 m 1
 0 2 l 1
 2 0 l 1
2 0 m 1
 0 2 l 1
 2 0 l 1
EndSplineSet
EndChar

StartChar: u0B83
Encoding: 40 2947 40
Width: 611
Flags: HW
LayerCount: 2
Fore
SplineSet
375 364 m 256
 375 340.666666667 366.333333333 320.666666667 349 304 c 128
 331.666666667 287.333333333 310.333333333 279 285 279 c 256
 259.666666667 279 238.333333333 287 221 303 c 128
 203.666666667 319 195 339.333333333 195 364 c 0
 195 388 203.666666667 408.333333333 221 425 c 128
 238.333333333 441.666666667 259.666666667 450 285 450 c 0
 309.666666667 450 330.833333333 441.5 348.5 424.5 c 128
 366.166666667 407.5 375 387.333333333 375 364 c 256
501 85 m 256
 501 61.6666666667 492.333333333 41.6666666667 475 25 c 128
 457.666666667 8.33333333333 436.333333333 0 411 0 c 256
 385.666666667 0 364.333333333 8 347 24 c 128
 329.666666667 40 321 60.3333333333 321 85 c 0
 321 109 329.666666667 129.333333333 347 146 c 128
 364.333333333 162.666666667 385.666666667 171 411 171 c 0
 435.666666667 171 456.833333333 162.5 474.5 145.5 c 128
 492.166666667 128.5 501 108.333333333 501 85 c 256
231 85 m 256
 231 61.6666666667 222.333333333 41.6666666667 205 25 c 128
 187.666666667 8.33333333333 166.333333333 0 141 0 c 256
 115.666666667 0 94.3333333333 8 77 24 c 128
 59.6666666667 40 51 60.3333333333 51 85 c 0
 51 109 59.6666666667 129.333333333 77 146 c 128
 94.3333333333 162.666666667 115.666666667 171 141 171 c 0
 165.666666667 171 186.833333333 162.5 204.5 145.5 c 128
 222.166666667 128.5 231 108.333333333 231 85 c 256
EndSplineSet
EndChar

StartChar: u0B85
Encoding: 41 2949 41
Width: 908
Flags: HW
AnchorPoint: "V" 397 455 basechar 0
AnchorPoint: "N" 397 -48.6962 basechar 0
LayerCount: 2
Fore
SplineSet
796 425 m 0
 779.333333333 397 771 361.666666667 771 319 c 2
 771 48 l 2
 771 1.33333333333 757 -34.6666666667 729 -60 c 0
 705 -82 675.666666667 -93 641 -93 c 0
 619.666666667 -93 609 -86.3333333333 609 -73 c 0
 609 -67 611.333333333 -60.3333333333 616 -53 c 0
 624.666666667 -39 631.166666667 -23.3333333333 635.5 -6 c 128
 639.833333333 11.3333333333 642 30.3333333333 642 51 c 2
 642 125 l 1
 631.333333333 119 618.5 114.166666667 603.5 110.5 c 128
 588.5 106.833333333 572.333333333 105 555 105 c 1
 533 59.6666666667 494.666666667 22.3333333333 440 -7 c 0
 381.333333333 -39 314.666666667 -55 240 -55 c 0
 170.666666667 -55 114.333333333 -40.6666666667 71 -12 c 0
 17 24 -10 63.3333333333 -10 106 c 0
 -10 124.666666667 -3.83333333333 138.833333333 8.5 148.5 c 128
 20.8333333333 158.166666667 37.3333333333 163 58 163 c 2
 438 163 l 1
 442 175 445 191.833333333 447 213.5 c 128
 449 235.166666667 450 250.666666667 450 260 c 0
 450 306 441.5 339.666666667 424.5 361 c 128
 407.5 382.333333333 385.666666667 393 359 393 c 2
 344 392 l 1
 359.333333333 384 371.833333333 372.833333333 381.5 358.5 c 128
 391.166666667 344.166666667 396 325 396 301 c 0
 396 286.333333333 393 271.666666667 387 257 c 0
 379 238.333333333 368 224.333333333 354 215 c 0
 337.333333333 202.333333333 312 196 278 196 c 0
 250.666666667 196 228.833333333 205.333333333 212.5 224 c 128
 196.166666667 242.666666667 188 265 188 291 c 0
 188 343.666666667 205.666666667 383.5 241 410.5 c 128
 276.333333333 437.5 321.666666667 451 377 451 c 0
 443.666666667 451 494.166666667 432.166666667 528.5 394.5 c 128
 562.833333333 356.833333333 580 304 580 236 c 0
 580 212.666666667 578.333333333 188.333333333 575 163 c 1
 602.333333333 163 624.666666667 170.666666667 642 186 c 1
 642 322 l 2
 642 368.666666667 656 405 684 431 c 0
 708 453.666666667 737.333333333 465 772 465 c 0
 793.333333333 465 804 458.333333333 804 445 c 0
 804 440.333333333 801.333333333 433.666666667 796 425 c 0
304 302 m 0
 304 313.333333333 301.833333333 324.666666667 297.5 336 c 128
 293.166666667 347.333333333 286.333333333 353.333333333 277 354 c 1
 267.666666667 351.333333333 260.166666667 343.833333333 254.5 331.5 c 128
 248.833333333 319.166666667 246 306.333333333 246 293 c 0
 246 282.333333333 248.333333333 273.166666667 253 265.5 c 128
 257.666666667 257.833333333 265 254 275 254 c 0
 294.333333333 254 304 270 304 302 c 0
414 105 m 1
 99 105 l 2
 86.3333333333 105 80 98 80 84 c 0
 80 64 91.3333333333 46.3333333333 114 31 c 0
 142 12.3333333333 181.666666667 3 233 3 c 0
 274.333333333 3 311.666666667 13.6666666667 345 35 c 0
 371.666666667 52.3333333333 394.666666667 75.6666666667 414 105 c 1
EndSplineSet
EndChar

StartChar: u0B86
Encoding: 42 2950 42
Width: 1051
Flags: HW
AnchorPoint: "V" 465.5 455 basechar 0
AnchorPoint: "N" 465.5 -184.659 basechar 0
LayerCount: 2
Fore
SplineSet
941 65 m 0
 941 -16.3333333333 909.333333333 -80.3333333333 846 -127 c 0
 788.666666667 -169 718 -190 634 -190 c 0
 565.333333333 -190 508.333333333 -182 463 -166 c 0
 411 -147.333333333 385 -121 385 -87 c 0
 385 -66.3333333333 393.5 -50.5 410.5 -39.5 c 128
 427.5 -28.5 449 -23 475 -23 c 0
 491 -23 506 -24.1666666667 520 -26.5 c 128
 534 -28.8333333333 547.333333333 -32.6666666667 560 -38 c 0
 566 -42 569 -47 569 -53 c 256
 569 -59 566.666666667 -64.3333333333 562 -69 c 128
 557.333333333 -73.6666666667 551 -76 543 -76 c 0
 540.333333333 -76 536.666666667 -75.1666666667 532 -73.5 c 128
 527.333333333 -71.8333333333 519.333333333 -70.1666666667 508 -68.5 c 128
 496.666666667 -66.8333333333 485.333333333 -66 474 -66 c 0
 460 -66 449 -67.1666666667 441 -69.5 c 128
 433 -71.8333333333 429 -76.3333333333 429 -83 c 0
 429 -102.333333333 446.333333333 -116 481 -124 c 0
 505.666666667 -130 538.666666667 -133 580 -133 c 0
 664 -133 729 -114.333333333 775 -77 c 0
 815.666666667 -43.6666666667 836 -0.666666666667 836 52 c 0
 836 69.3333333333 831.666666667 84.1666666667 823 96.5 c 128
 814.333333333 108.833333333 804 115 792 115 c 0
 784 115 777 112.333333333 771 107 c 1
 771 46 l 2
 771 -0.666666666667 757 -37 729 -63 c 0
 705 -85 675.666666667 -96 641 -96 c 0
 619.666666667 -96 609 -89.3333333333 609 -76 c 0
 609 -69.3333333333 611.333333333 -62.6666666667 616 -56 c 0
 624 -42 630.333333333 -26 635 -8 c 128
 639.666666667 10 642 29 642 49 c 2
 642 123 l 1
 631.333333333 117 618.5 112.166666667 603.5 108.5 c 128
 588.5 104.833333333 572.333333333 103 555 103 c 1
 533 58.3333333333 494.666666667 21 440 -9 c 0
 380.666666667 -41.6666666667 314 -58 240 -58 c 0
 171.333333333 -58 115 -43.3333333333 71 -14 c 0
 17 22 -10 61.3333333333 -10 104 c 0
 -10 122.666666667 -3.83333333333 136.833333333 8.5 146.5 c 128
 20.8333333333 156.166666667 37.3333333333 161 58 161 c 2
 438 161 l 1
 442 173.666666667 445 190.666666667 447 212 c 128
 449 233.333333333 450 249 450 259 c 0
 450 305 441.5 338.666666667 424.5 360 c 128
 407.5 381.333333333 385.666666667 392 359 392 c 2
 344 391 l 1
 359.333333333 383.666666667 371.833333333 372.666666667 381.5 358 c 128
 391.166666667 343.333333333 396 324 396 300 c 0
 396 285.333333333 393 270.666666667 387 256 c 0
 379 237.333333333 368 223.333333333 354 214 c 0
 336.666666667 200.666666667 311.333333333 194 278 194 c 0
 250.666666667 194 228.833333333 203.5 212.5 222.5 c 128
 196.166666667 241.5 188 264 188 290 c 0
 188 342.666666667 205.666666667 382.5 241 409.5 c 128
 276.333333333 436.5 321.666666667 450 377 450 c 0
 443 450 493.333333333 431.333333333 528 394 c 128
 562.666666667 356.666666667 580 303.666666667 580 235 c 0
 580 212.333333333 578.333333333 187.666666667 575 161 c 1
 601.666666667 161 624 169 642 185 c 1
 642 321 l 2
 642 368.333333333 656 405 684 431 c 0
 708 453.666666667 737.333333333 465 772 465 c 0
 793.333333333 465 804 458.333333333 804 445 c 0
 804 439 801.333333333 432.333333333 796 425 c 0
 779.333333333 397 771 361.333333333 771 318 c 2
 771 169 l 1
 788.333333333 179.666666667 808.333333333 185 831 185 c 0
 861.666666667 185 887 175.666666667 907 157 c 0
 929.666666667 135.666666667 941 105 941 65 c 0
304 301 m 0
 304 312.333333333 301.833333333 323.666666667 297.5 335 c 128
 293.166666667 346.333333333 286.333333333 352.333333333 277 353 c 0
 267.666666667 351 260.166666667 343.666666667 254.5 331 c 128
 248.833333333 318.333333333 246 305.333333333 246 292 c 0
 246 282 248.5 272.833333333 253.5 264.5 c 128
 258.5 256.166666667 265.666666667 252 275 252 c 256
 284.333333333 252 291.5 256.5 296.5 265.5 c 128
 301.5 274.5 304 286.333333333 304 301 c 0
414 103 m 1
 99 103 l 2
 86.3333333333 103 80 96 80 82 c 0
 80 62 91.3333333333 44.3333333333 114 29 c 0
 142 9.66666666667 181.666666667 0 233 0 c 0
 274.333333333 0 311.666666667 11 345 33 c 0
 372.333333333 51 395.333333333 74.3333333333 414 103 c 1
EndSplineSet
EndChar

StartChar: u0B87
Encoding: 43 2951 43
Width: 756
Flags: HW
AnchorPoint: "V" 320.5 633.434 basechar 0
AnchorPoint: "N" 320.5 -160 basechar 0
LayerCount: 2
Fore
SplineSet
651 373 m 0
 651 352.333333333 649.333333333 329 646 303 c 128
 642.666666667 277 637.666666667 252.333333333 631 229 c 0
 631 220.333333333 633.5 211.666666667 638.5 203 c 128
 643.5 194.333333333 646 186.666666667 646 180 c 0
 646 172 642.666666667 164.333333333 636 157 c 128
 629.333333333 149.666666667 621 146 611 146 c 0
 598.333333333 146 588.5 151.833333333 581.5 163.5 c 128
 574.5 175.166666667 572 187.666666667 574 201 c 0
 579.333333333 225 582 249.333333333 582 274 c 0
 582 339.333333333 561.666666667 394 521 438 c 0
 477.666666667 484.666666667 420.666666667 508 350 508 c 0
 261.333333333 508 192 478.666666667 142 420 c 0
 97.3333333333 368 75 303 75 225 c 0
 75 203 77.5 181.833333333 82.5 161.5 c 128
 87.5 141.166666667 95 120.666666667 105 100 c 1
 137.666666667 116 176.666666667 127.5 222 134.5 c 128
 267.333333333 141.5 316 145 368 145 c 1
 377.333333333 179.666666667 382 215 382 251 c 0
 382 285.666666667 375.666666667 314.333333333 363 337 c 0
 348.333333333 363 327.333333333 376 300 376 c 2
 285 376 l 1
 299 368 310.5 356.5 319.5 341.5 c 128
 328.5 326.5 333 307.333333333 333 284 c 0
 333 268.666666667 329.333333333 252.833333333 322 236.5 c 128
 314.666666667 220.166666667 303.333333333 207 288 197 c 0
 271.333333333 184.333333333 246 178 212 178 c 0
 184.666666667 178 163.333333333 187.333333333 148 206 c 128
 132.666666667 224.666666667 125 247.333333333 125 274 c 0
 125 324.666666667 142.666666667 365 178 395 c 0
 210 422.333333333 250.333333333 436 299 436 c 0
 367.666666667 436 419 421.333333333 453 392 c 0
 491.666666667 358.666666667 511 305 511 231 c 0
 511 193.666666667 504.333333333 155.666666667 491 117 c 1
 520.333333333 104.333333333 543 87.3333333333 559 66 c 128
 575 44.6666666667 583 18.3333333333 583 -13 c 0
 583 -57.6666666667 567 -92.6666666667 535 -118 c 0
 499.666666667 -146 448 -160 380 -160 c 0
 340 -160 299.666666667 -150.666666667 259 -132 c 1
 213.666666667 -150.666666667 165.666666667 -160 115 -160 c 0
 74.3333333333 -160 43.3333333333 -150.333333333 22 -131 c 128
 0.666666666667 -111.666666667 -10 -86 -10 -54 c 0
 -10 -30.6666666667 -4.66666666667 -8.66666666667 6 12 c 128
 16.6666666667 32.6666666667 31.6666666667 51 51 67 c 1
 35 99 23.3333333333 132.5 16 167.5 c 128
 8.66666666667 202.5 5 232 5 256 c 0
 5 306 11.6666666667 353.333333333 25 398 c 0
 45 464.666666667 78.3333333333 518 125 558 c 0
 185 609.333333333 263.666666667 635 361 635 c 0
 441 635 508.333333333 612 563 566 c 0
 621.666666667 516.666666667 651 452.333333333 651 373 c 0
241 285 m 0
 241 297 239.333333333 308.666666667 236 320 c 128
 232.666666667 331.333333333 226.666666667 337 218 337 c 0
 208.666666667 335 200.5 327.5 193.5 314.5 c 128
 186.5 301.5 183 288.666666667 183 276 c 0
 183 264.666666667 185 255.166666667 189 247.5 c 128
 193 239.833333333 199.666666667 236 209 236 c 256
 218.333333333 236 226 240.666666667 232 250 c 128
 238 259.333333333 241 271 241 285 c 0
493 -26 m 0
 493 -2 481.333333333 21 458 43 c 1
 441.333333333 15 422.833333333 -10.1666666667 402.5 -32.5 c 128
 382.166666667 -54.8333333333 358.333333333 -75.3333333333 331 -94 c 1
 341 -96 349.166666667 -97.3333333333 355.5 -98 c 128
 361.833333333 -98.6666666667 371.333333333 -99 384 -99 c 0
 419.333333333 -99 446.333333333 -92 465 -78 c 128
 483.666666667 -64 493 -46.6666666667 493 -26 c 0
351 89 m 1
 339.666666667 91 327.666666667 92 315 92 c 0
 285 92 254.833333333 87.8333333333 224.5 79.5 c 128
 194.166666667 71.1666666667 165.666666667 58.6666666667 139 42 c 1
 153 23.3333333333 171.333333333 4 194 -16 c 0
 212.666666667 -32.6666666667 231.666666667 -47.3333333333 251 -60 c 1
 271.666666667 -42 290.666666667 -20 308 6 c 128
 325.333333333 32 339.666666667 59.6666666667 351 89 c 1
193 -95 m 1
 174.333333333 -81.6666666667 155.833333333 -66 137.5 -48 c 128
 119.166666667 -30 104.666666667 -13.6666666667 94 1 c 1
 81.3333333333 -15.6666666667 75 -34 75 -54 c 0
 75 -68.6666666667 79.1666666667 -81.1666666667 87.5 -91.5 c 128
 95.8333333333 -101.833333333 108 -107 124 -107 c 0
 137.333333333 -107 149 -106 159 -104 c 128
 169 -102 180.333333333 -99 193 -95 c 1
EndSplineSet
EndChar

StartChar: u0B88
Encoding: 44 2952 44
Width: 627
Flags: HW
AnchorPoint: "V" 252.5 455 basechar 0
AnchorPoint: "N" 252.5 -2 basechar 0
LayerCount: 2
Fore
SplineSet
517 217 m 256
 517 202.333333333 511 189.333333333 499 178 c 128
 487 166.666666667 473.333333333 161 458 161 c 0
 442 161 428.166666667 166.5 416.5 177.5 c 128
 404.833333333 188.5 399 201.666666667 399 217 c 0
 399 231.666666667 405 244.666666667 417 256 c 128
 429 267.333333333 442.666666667 273 458 273 c 256
 473.333333333 273 487 267.333333333 499 256 c 128
 511 244.666666667 517 231.666666667 517 217 c 256
415 393 m 0
 397 385.666666667 384 372.166666667 376 352.5 c 128
 368 332.833333333 362.666666667 308 360 278 c 0
 358.666666667 247.333333333 357.5 217.5 356.5 188.5 c 128
 355.5 159.5 355 142.333333333 355 137 c 0
 355 90.3333333333 341 54.6666666667 313 30 c 0
 289 8.66666666667 259.666666667 -2 225 -2 c 0
 203.666666667 -2 193 4.33333333333 193 17 c 0
 193 23.6666666667 195.333333333 30.3333333333 200 37 c 0
 217.333333333 66.3333333333 226 100.666666667 226 140 c 0
 226 160 226.5 181.166666667 227.5 203.5 c 128
 228.5 225.833333333 229.666666667 252 231 282 c 0
 231 299.333333333 233.5 316.833333333 238.5 334.5 c 128
 243.5 352.166666667 250.333333333 369 259 385 c 1
 235.666666667 389.666666667 211.333333333 392 186 392 c 0
 152 392 126.833333333 383.666666667 110.5 367 c 128
 94.1666666667 350.333333333 86 322.333333333 86 283 c 0
 86 213 83.6666666667 159.166666667 79 121.5 c 128
 74.3333333333 83.8333333333 63.3333333333 50 46 20 c 0
 36.6666666667 4 25 -4 11 -4 c 0
 -4.33333333333 -4 -12 3.66666666667 -12 19 c 0
 -12 27.6666666667 -9.33333333333 36 -4 44 c 0
 8.66666666667 66 16.8333333333 92.6666666667 20.5 124 c 128
 24.1666666667 155.333333333 26 194.666666667 26 242 c 2
 26 302 l 2
 26 342 35.3333333333 374 54 398 c 0
 80.6666666667 432 125.333333333 449 188 449 c 0
 214 449 240 446.833333333 266 442.5 c 128
 292 438.166666667 319.333333333 433.666666667 348 429 c 0
 364 429 381 433.666666667 399 443 c 0
 409 449 417.666666667 452 425 452 c 0
 439.666666667 452 447 444.666666667 447 430 c 0
 447 422.666666667 444.5 415.833333333 439.5 409.5 c 128
 434.5 403.166666667 426.333333333 397.666666667 415 393 c 0
217 217 m 256
 217 202.333333333 211 189.333333333 199 178 c 128
 187 166.666666667 173.333333333 161 158 161 c 0
 142 161 128.166666667 166.5 116.5 177.5 c 128
 104.833333333 188.5 99 201.666666667 99 217 c 0
 99 231.666666667 105 244.666666667 117 256 c 128
 129 267.333333333 142.666666667 273 158 273 c 256
 173.333333333 273 187 267.333333333 199 256 c 128
 211 244.666666667 217 231.666666667 217 217 c 256
EndSplineSet
EndChar

StartChar: u0B89
Encoding: 45 2953 45
Width: 965
Flags: HW
AnchorPoint: "V" 434.5 455 basechar 0
AnchorPoint: "N" 434.5 6.30883 basechar 0
LayerCount: 2
Fore
SplineSet
849 24 m 0
 831.666666667 16 813.166666667 10 793.5 6 c 128
 773.833333333 2 749.333333333 0 720 0 c 0
 696.666666667 0 644.833333333 1.5 564.5 4.5 c 128
 484.166666667 7.5 428.666666667 9 398 9 c 0
 350 9 297.333333333 7.66666666667 240 5 c 128
 182.666666667 2.33333333333 121.666666667 -0.333333333333 57 -3 c 0
 39 -3 24.6666666667 0.666666666667 14 8 c 0
 -2 18.6666666667 -10 36.6666666667 -10 62 c 0
 -10 96 33.3333333333 116.333333333 120 123 c 0
 151.333333333 124.333333333 182.666666667 126 214 128 c 0
 258.666666667 134.666666667 290.666666667 153 310 183 c 0
 325.333333333 207 333 238.333333333 333 277 c 0
 333 313 323.666666667 341.333333333 305 362 c 128
 286.333333333 382.666666667 261.333333333 393 230 393 c 0
 210.666666667 393 192.833333333 391.166666667 176.5 387.5 c 128
 160.166666667 383.833333333 144.666666667 378 130 370 c 1
 141 371 l 2
 165 371 186 362.666666667 204 346 c 128
 222 329.333333333 231 307 231 279 c 0
 231 237 223.666666667 205.666666667 209 185 c 0
 191 159.666666667 160.666666667 147 118 147 c 0
 86.6666666667 147 62.3333333333 158.5 45 181.5 c 128
 27.6666666667 204.5 19 237.666666667 19 281 c 0
 19 327 36 365.666666667 70 397 c 0
 108.666666667 432.333333333 161 450 227 450 c 0
 309.666666667 450 371.666666667 430.666666667 413 392 c 0
 446.333333333 360.666666667 463 320.333333333 463 271 c 0
 463 233.666666667 457 201.833333333 445 175.5 c 128
 433 149.166666667 412.666666667 127.666666667 384 111 c 0
 337.333333333 82.3333333333 261.666666667 68 157 68 c 0
 142 68 142 68 127 68 c 0
 119.666666667 66.6666666667 116 63.3333333333 116 58 c 1
 136 57.3333333333 165 58 203 60 c 0
 307.666666667 64.6666666667 372 67 396 67 c 0
 431.333333333 67 477.166666667 65.8333333333 533.5 63.5 c 128
 589.833333333 61.1666666667 648.333333333 59 709 57 c 0
 732.333333333 57 751.333333333 58.6666666667 766 62 c 128
 780.666666667 65.3333333333 794.833333333 70.3333333333 808.5 77 c 128
 822.166666667 83.6666666667 834.333333333 87 845 87 c 0
 867.666666667 87 879 77.6666666667 879 59 c 0
 879 53 876.5 46.6666666667 871.5 40 c 128
 866.5 33.3333333333 859 28 849 24 c 0
127 264 m 0
 127 274.666666667 125.166666667 283 121.5 289 c 128
 117.833333333 295 111.333333333 298 102 298 c 0
 93.3333333333 298 88 294.166666667 86 286.5 c 128
 84 278.833333333 83 270 83 260 c 0
 83 242.666666667 84.5 229.833333333 87.5 221.5 c 128
 90.5 213.166666667 96 209 104 209 c 0
 114.666666667 209 121.166666667 213.5 123.5 222.5 c 128
 125.833333333 231.5 127 245.333333333 127 264 c 0
EndSplineSet
EndChar

StartChar: u0B8A
Encoding: 46 2954 46
Width: 1270
Flags: HW
AnchorPoint: "V" 580 455 basechar 0
AnchorPoint: "N" 580 6.55122 basechar 0
LayerCount: 2
Fore
SplineSet
1154 401 m 0
 1139.33333333 395 1129.16666667 384.5 1123.5 369.5 c 128
 1117.83333333 354.5 1113.66666667 334.833333333 1111 310.5 c 128
 1108.33333333 286.166666667 1107 248.333333333 1107 197 c 0
 1107 160.333333333 1094 131.333333333 1068 110 c 0
 1046 92 1020.33333333 83 991 83 c 0
 981 83 972.666666667 85.1666666667 966 89.5 c 128
 959.333333333 93.8333333333 956 99.6666666667 956 107 c 0
 956 110.333333333 957 114 959 118 c 0
 973 140.666666667 980 167.666666667 980 199 c 2
 984 314 l 2
 984 340.666666667 989.666666667 365.333333333 1001 388 c 1
 982.333333333 391.333333333 962.333333333 393 941 393 c 1
 927.666666667 387 919 377.833333333 915 365.5 c 128
 911 353.166666667 907.666666667 334.833333333 905 310.5 c 128
 902.333333333 286.166666667 901 248.333333333 901 197 c 0
 901 159.666666667 888 130.666666667 862 110 c 0
 839.333333333 92 813.666666667 83 785 83 c 0
 761 83 749 91 749 107 c 0
 749 111 750.333333333 114.666666667 753 118 c 0
 766.333333333 139.333333333 773 166.333333333 773 199 c 2
 777 314 l 2
 777 328.666666667 779.666666667 343 785 357 c 1
 776.333333333 365.666666667 763.666666667 373.833333333 747 381.5 c 128
 730.333333333 389.166666667 713.333333333 393 696 393 c 0
 670 393 646.5 386.166666667 625.5 372.5 c 128
 604.5 358.833333333 588.333333333 341 577 319 c 1
 589 323.666666667 602.333333333 326 617 326 c 0
 643 326 664 318.666666667 680 304 c 0
 699.333333333 286 709 259.333333333 709 224 c 0
 709 180.666666667 701.666666667 148.333333333 687 127 c 0
 668.333333333 99.6666666667 637.666666667 86 595 86 c 0
 561.666666667 86 537 98 521 122 c 128
 505 146 497 180.666666667 497 226 c 0
 497 292.666666667 515.333333333 346.666666667 552 388 c 128
 588.666666667 429.333333333 638.333333333 450 701 450 c 0
 725.666666667 450 747.666666667 446.333333333 767 439 c 128
 786.333333333 431.666666667 802.333333333 422.666666667 815 412 c 1
 828.333333333 424.666666667 844.833333333 434.166666667 864.5 440.5 c 128
 884.166666667 446.833333333 908.666666667 450 938 450 c 0
 958 450 979.666666667 448.333333333 1003 445 c 128
 1026.33333333 441.666666667 1051.66666667 438.333333333 1079 435 c 0
 1092.33333333 435 1105.66666667 438.333333333 1119 445 c 0
 1126.33333333 449 1133.33333333 451 1140 451 c 0
 1149.33333333 451 1157.16666667 448.166666667 1163.5 442.5 c 128
 1169.83333333 436.833333333 1173 430.333333333 1173 423 c 0
 1173 414.333333333 1166.66666667 407 1154 401 c 0
1116 24 m 0
 1098.66666667 16 1080.16666667 10 1060.5 6 c 128
 1040.83333333 2 1016.33333333 0 987 0 c 0
 961 0 932.333333333 0.333333333333 901 1 c 128
 869.666666667 1.66666666667 804 3.16666666667 704 5.5 c 128
 604 7.83333333333 547.666666667 9 535 9 c 0
 482.333333333 9 413.166666667 7.66666666667 327.5 5 c 128
 241.833333333 2.33333333333 150.666666667 -0.333333333333 54 -3 c 0
 36 -3 21.6666666667 0.666666666667 11 8 c 0
 -5 18.6666666667 -13 36.6666666667 -13 62 c 0
 -13 96 30.3333333333 116.333333333 117 123 c 0
 148.333333333 124.333333333 179.666666667 126 211 128 c 0
 255.666666667 134.666666667 287.666666667 153.333333333 307 184 c 0
 322.333333333 208 330 239 330 277 c 0
 330 313 320.666666667 341.333333333 302 362 c 128
 283.333333333 382.666666667 258.333333333 393 227 393 c 0
 207.666666667 393 189.833333333 391.166666667 173.5 387.5 c 128
 157.166666667 383.833333333 141.666666667 378 127 370 c 1
 138 371 l 2
 162 371 183 362.666666667 201 346 c 128
 219 329.333333333 228 307 228 279 c 0
 228 237 220.666666667 205.666666667 206 185 c 0
 188 159.666666667 157.666666667 147 115 147 c 0
 83.6666666667 147 59.3333333333 158.5 42 181.5 c 128
 24.6666666667 204.5 16 237.666666667 16 281 c 0
 16 327 33 365.666666667 67 397 c 0
 105.666666667 432.333333333 158 450 224 450 c 0
 306.666666667 450 368.666666667 430.666666667 410 392 c 0
 443.333333333 360.666666667 460 320.333333333 460 271 c 0
 460 233.666666667 454 201.833333333 442 175.5 c 128
 430 149.166666667 409.666666667 127.666666667 381 111 c 0
 334.333333333 82.3333333333 258.666666667 68 154 68 c 0
 139 68 139 68 124 68 c 0
 116.666666667 66.6666666667 113 63.3333333333 113 58 c 1
 124 58 l 2
 164 58 219.666666667 58.8333333333 291 60.5 c 128
 362.333333333 62.1666666667 443 64.3333333333 533 67 c 0
 569.666666667 67 630.166666667 65.8333333333 714.5 63.5 c 128
 798.833333333 61.1666666667 886 59 976 57 c 0
 999.333333333 57 1018.33333333 58.6666666667 1033 62 c 128
 1047.66666667 65.3333333333 1061.83333333 70.3333333333 1075.5 77 c 128
 1089.16666667 83.6666666667 1101.33333333 87 1112 87 c 0
 1134.66666667 87 1146 77.6666666667 1146 59 c 0
 1146 53 1143.5 46.6666666667 1138.5 40 c 128
 1133.5 33.3333333333 1126 28 1116 24 c 0
601 206 m 0
 601 218.666666667 599.666666667 227.833333333 597 233.5 c 128
 594.333333333 239.166666667 588.333333333 242 579 242 c 0
 568.333333333 242 562 238.333333333 560 231 c 128
 558 223.666666667 557 214.666666667 557 204 c 0
 557 168 563.666666667 150 577 150 c 0
 587.666666667 150 594.333333333 154.5 597 163.5 c 128
 599.666666667 172.5 601 186.666666667 601 206 c 0
124 264 m 0
 124 274.666666667 122.166666667 283 118.5 289 c 128
 114.833333333 295 108.333333333 298 99 298 c 0
 90.3333333333 298 85 294.166666667 83 286.5 c 128
 81 278.833333333 80 270 80 260 c 0
 80 242.666666667 81.5 229.833333333 84.5 221.5 c 128
 87.5 213.166666667 93 209 101 209 c 0
 111 209 117.333333333 213.666666667 120 223 c 128
 122.666666667 232.333333333 124 246 124 264 c 0
EndSplineSet
EndChar

StartChar: u0B8E
Encoding: 47 2958 47
Width: 631
Flags: HW
AnchorPoint: "V" 268.5 455 basechar 0
AnchorPoint: "N" 268.5 -4 basechar 0
LayerCount: 2
Fore
SplineSet
515 393 m 0
 497 385.666666667 484 372.166666667 476 352.5 c 128
 468 332.833333333 462.666666667 307.666666667 460 277 c 0
 458.666666667 246.333333333 457.5 216.5 456.5 187.5 c 128
 455.5 158.5 455 141.333333333 455 136 c 0
 455 89.3333333333 441 53.3333333333 413 28 c 0
 389 6.66666666667 359.666666667 -4 325 -4 c 0
 303.666666667 -4 293 2.33333333333 293 15 c 0
 293 21.6666666667 295.333333333 28.3333333333 300 35 c 0
 317.333333333 64.3333333333 326 98.6666666667 326 138 c 0
 326 156 326.5 178.5 327.5 205.5 c 128
 328.5 232.5 329.666666667 257.666666667 331 281 c 0
 331 298.333333333 333.5 315.833333333 338.5 333.5 c 128
 343.5 351.166666667 350.333333333 368.333333333 359 385 c 1
 335.666666667 389.666666667 307.333333333 392 274 392 c 0
 227.333333333 392 186.333333333 382.166666667 151 362.5 c 128
 115.666666667 342.833333333 89.6666666667 316.666666667 73 284 c 1
 91 290.666666667 107.333333333 294 122 294 c 0
 159.333333333 294 189 284.666666667 211 266 c 0
 237 244 250 211.666666667 250 169 c 0
 250 116.333333333 241 76.6666666667 223 50 c 0
 200.333333333 16.6666666667 163 0 111 0 c 0
 69.6666666667 0 39.1666666667 14.5 19.5 43.5 c 128
 -0.166666666667 72.5 -10 115.333333333 -10 172 c 0
 -10 255.333333333 14 321.666666667 62 371 c 0
 112.666666667 423 184 449 276 449 c 0
 310 449 340.333333333 446.833333333 367 442.5 c 128
 393.666666667 438.166666667 420.666666667 433.666666667 448 429 c 1
 464 429 481 433.666666667 499 443 c 0
 509 449 517.666666667 452 525 452 c 0
 539.666666667 452 547 444.666666667 547 430 c 0
 547 422.666666667 544.5 415.833333333 539.5 409.5 c 128
 534.5 403.166666667 526.333333333 397.666666667 515 393 c 0
130 149 m 0
 130 170.333333333 128 185 124 193 c 0
 118 204.333333333 107 210 91 210 c 0
 73 210 61 201.333333333 55 184 c 0
 51.6666666667 174.666666667 50 161.333333333 50 144 c 0
 50 116 53 94.5 59 79.5 c 128
 65 64.5 74.6666666667 57 88 57 c 0
 105.333333333 57 116.666666667 65.1666666667 122 81.5 c 128
 127.333333333 97.8333333333 130 120.333333333 130 149 c 0
EndSplineSet
EndChar

StartChar: u0B8F
Encoding: 48 2959 48
Width: 631
Flags: HW
AnchorPoint: "V" 268.5 455 basechar 0
AnchorPoint: "N" 268.5 -116.134 basechar 0
LayerCount: 2
Fore
SplineSet
515 392 m 0
 497 384.666666667 484 370.833333333 476 350.5 c 128
 468 330.166666667 462.666666667 305 460 275 c 0
 458.666666667 244.333333333 457.5 214.166666667 456.5 184.5 c 128
 455.5 154.833333333 455 137.333333333 455 132 c 0
 455 92.6666666667 445.333333333 61.3333333333 426 38 c 0
 418 28 403.666666667 18.1666666667 383 8.5 c 128
 362.333333333 -1.16666666667 341.666666667 -11 321 -21 c 0
 308.333333333 -27.6666666667 292.333333333 -37.3333333333 273 -50 c 128
 253.666666667 -62.6666666667 237.333333333 -73.6666666667 224 -83 c 0
 218 -90.3333333333 212.333333333 -97.6666666667 207 -105 c 0
 199.666666667 -113 191.333333333 -117 182 -117 c 0
 179.333333333 -117 175.333333333 -116.333333333 170 -115 c 0
 156 -109.666666667 149 -100 149 -86 c 0
 149 -78 152.333333333 -70.6666666667 159 -64 c 0
 181 -50.6666666667 203.666666667 -34.6666666667 227 -16 c 128
 250.333333333 2.66666666667 266.333333333 15.6666666667 275 23 c 0
 291.666666667 36.3333333333 304.333333333 53.1666666667 313 73.5 c 128
 321.666666667 93.8333333333 326 114.333333333 326 135 c 256
 326 155.666666667 326.5 177.333333333 327.5 200 c 128
 328.5 222.666666667 329.666666667 249 331 279 c 0
 331 297 333.5 314.833333333 338.5 332.5 c 128
 343.5 350.166666667 350.333333333 367.333333333 359 384 c 1
 335.666666667 388.666666667 307.333333333 391 274 391 c 0
 228 391 187.166666667 381 151.5 361 c 128
 115.833333333 341 89.6666666667 314.666666667 73 282 c 1
 89.6666666667 289.333333333 106 293 122 293 c 0
 158.666666667 293 188.333333333 283.333333333 211 264 c 0
 237 241.333333333 250 208.666666667 250 166 c 0
 250 112 241 71.6666666667 223 45 c 0
 200.333333333 11.6666666667 163 -5 111 -5 c 0
 69.6666666667 -5 39.1666666667 9.66666666667 19.5 39 c 128
 -0.166666666667 68.3333333333 -10 111.666666667 -10 169 c 0
 -10 253 14 320 62 370 c 0
 112.666666667 422.666666667 184 449 276 449 c 0
 310 449 340.333333333 446.833333333 367 442.5 c 128
 393.666666667 438.166666667 420.666666667 433.666666667 448 429 c 1
 464 429 481 433.666666667 499 443 c 0
 507 448.333333333 515.333333333 451 524 451 c 0
 539.333333333 451 547 443.666666667 547 429 c 0
 547 421.666666667 544.5 414.833333333 539.5 408.5 c 128
 534.5 402.166666667 526.333333333 396.666666667 515 392 c 0
130 146 m 0
 130 167.333333333 128 182 124 190 c 0
 118 202 107 208 91 208 c 0
 77 208 66.6666666667 202.666666667 60 192 c 128
 53.3333333333 181.333333333 50 164.333333333 50 141 c 0
 50 82.3333333333 62.6666666667 53 88 53 c 0
 105.333333333 53 116.666666667 61.1666666667 122 77.5 c 128
 127.333333333 93.8333333333 130 116.666666667 130 146 c 0
EndSplineSet
EndChar

StartChar: u0B90
Encoding: 49 2960 49
Width: 725
Flags: HW
AnchorPoint: "V" 302.5 455 basechar 0
AnchorPoint: "N" 302.5 -141.814 basechar 0
LayerCount: 2
Fore
SplineSet
615 -5 m 0
 615 -52.3333333333 602.666666667 -87.6666666667 578 -111 c 0
 550.666666667 -137 508 -150 450 -150 c 0
 414 -150 384.333333333 -143.5 361 -130.5 c 128
 337.666666667 -117.5 320 -99.6666666667 308 -77 c 1
 295.333333333 -99.6666666667 278.666666667 -116.666666667 258 -128 c 0
 231.333333333 -142.666666667 197 -150 155 -150 c 0
 101 -150 60 -136.166666667 32 -108.5 c 128
 4 -80.8333333333 -10 -46.3333333333 -10 -5 c 0
 -10 37 9.33333333333 69.6666666667 48 93 c 0
 76.6666666667 110.333333333 119.5 124.166666667 176.5 134.5 c 128
 233.5 144.833333333 288 155 340 165 c 1
 382.666666667 176.333333333 415.333333333 193 438 215 c 0
 464.666666667 241 478 274 478 314 c 0
 478 342 475.333333333 362 470 374 c 128
 464.666666667 386 454.666666667 392 440 392 c 0
 423.333333333 392 410 386 400 374 c 0
 392.666666667 365.333333333 387.333333333 354 384 340 c 1
 388 328 390 317.333333333 390 308 c 2
 390 274 l 2
 390 250.666666667 381.666666667 230 365 212 c 128
 348.333333333 194 325.666666667 185 297 185 c 0
 281.666666667 185 265 188 247 194 c 1
 257.666666667 208.666666667 264.166666667 221.333333333 266.5 232 c 128
 268.833333333 242.666666667 270 258 270 278 c 2
 270 317 l 2
 270 342.333333333 264.166666667 361.166666667 252.5 373.5 c 128
 240.833333333 385.833333333 225 392 205 392 c 0
 182.333333333 392 162 389 144 383 c 1
 196 375.666666667 222 343 222 285 c 0
 222 250.333333333 209 224 183 206 c 0
 161.666666667 191.333333333 135 184 103 184 c 0
 69.6666666667 184 45 191.666666667 29 207 c 128
 13 222.333333333 5 248.666666667 5 286 c 0
 5 336.666666667 23.6666666667 376.666666667 61 406 c 128
 98.3333333333 435.333333333 147 450 207 450 c 0
 238.333333333 450 265.5 445.333333333 288.5 436 c 128
 311.5 426.666666667 331 414 347 398 c 1
 357 412.666666667 371.166666667 425 389.5 435 c 128
 407.833333333 445 429.666666667 450 455 450 c 0
 557 450 608 403.333333333 608 310 c 0
 608 261.333333333 581.666666667 220 529 186 c 0
 489.666666667 160.666666667 438.166666667 140.333333333 374.5 125 c 128
 310.833333333 109.666666667 248.666666667 95 188 81 c 1
 141.333333333 64.3333333333 118 35.6666666667 118 -5 c 0
 118 -28.3333333333 122 -48.6666666667 130 -66 c 128
 138 -83.3333333333 149.666666667 -92 165 -92 c 0
 187 -92 206.5 -86 223.5 -74 c 128
 240.5 -62 251.666666667 -44.6666666667 257 -22 c 1
 257 4 l 2
 257 30.6666666667 265 52.6666666667 281 70 c 128
 297 87.3333333333 320.333333333 96 351 96 c 0
 369.666666667 96 389.333333333 92.6666666667 410 86 c 1
 398 70 389.833333333 54.8333333333 385.5 40.5 c 128
 381.166666667 26.1666666667 379 9.66666666667 379 -9 c 0
 379 -32.3333333333 383.333333333 -51 392 -65 c 0
 403.333333333 -83 420.666666667 -92 444 -92 c 0
 460.666666667 -92 473.333333333 -85.5 482 -72.5 c 128
 490.666666667 -59.5 495 -33.6666666667 495 5 c 0
 495 23.6666666667 494 39 492 51 c 128
 490 63 485 76 477 90 c 1
 483.666666667 90.6666666667 490 91.5 496 92.5 c 128
 502 93.5 508.333333333 94 515 94 c 0
 548.333333333 94 573.333333333 85 590 67 c 128
 606.666666667 49 615 25 615 -5 c 0
107 297 m 0
 107 306.333333333 105.333333333 314.166666667 102 320.5 c 128
 98.6666666667 326.833333333 93.3333333333 330 86 330 c 0
 79.3333333333 330 74.1666666667 326.166666667 70.5 318.5 c 128
 66.8333333333 310.833333333 65 301.333333333 65 290 c 0
 65 274.666666667 66 262.833333333 68 254.5 c 128
 70 246.166666667 75.3333333333 242 84 242 c 0
 94.6666666667 242 101.166666667 246.5 103.5 255.5 c 128
 105.833333333 264.5 107 278.333333333 107 297 c 0
EndSplineSet
EndChar

StartChar: u0B92
Encoding: 50 2962 50
Width: 695
Flags: HW
AnchorPoint: "V" 287.5 455 basechar 0
AnchorPoint: "N" 287.5 -147.629 basechar 0
LayerCount: 2
Fore
SplineSet
585 226 m 0
 585 174.666666667 570.166666667 134.166666667 540.5 104.5 c 128
 510.833333333 74.8333333333 466.333333333 60 407 60 c 0
 377 60 353.5 67.5 336.5 82.5 c 128
 319.5 97.5 307.333333333 117.666666667 300 143 c 1
 303.333333333 112.333333333 320.333333333 88 351 70 c 0
 379 54 410.333333333 46 445 46 c 0
 452.333333333 46 458.333333333 43.3333333333 463 38 c 128
 467.666666667 32.6666666667 470 26.3333333333 470 19 c 0
 470 12.3333333333 468 6.66666666667 464 2 c 128
 460 -2.66666666667 454 -5 446 -5 c 2
 397 -5 l 2
 379 -5 358 -28.8333333333 334 -76.5 c 128
 310 -124.166666667 263.666666667 -148 195 -148 c 0
 159 -148 129.166666667 -136.5 105.5 -113.5 c 128
 81.8333333333 -90.5 66.6666666667 -59.6666666667 60 -21 c 1
 100 -9 l 1
 106.666666667 -36.3333333333 116.666666667 -56.6666666667 130 -70 c 128
 143.333333333 -83.3333333333 162.333333333 -90 187 -90 c 0
 208.333333333 -90 224 -76 234 -48 c 0
 239.333333333 -32 244.666666667 -17.6666666667 250 -5 c 128
 255.333333333 7.66666666667 261.666666667 16.8333333333 269 22.5 c 128
 276.333333333 28.1666666667 288 32.6666666667 304 36 c 1
 288 47.3333333333 275.333333333 60.6666666667 266 76 c 0
 254 95.3333333333 248 116.333333333 248 139 c 0
 248 175 255 207.666666667 269 237 c 0
 278.333333333 256.333333333 293.333333333 278.333333333 314 303 c 0
 324.666666667 315.666666667 336.666666667 322 350 322 c 0
 357.333333333 322 363.666666667 319.666666667 369 315 c 128
 374.333333333 310.333333333 377 305.333333333 377 300 c 0
 377 297.333333333 376 294.333333333 374 291 c 0
 361.333333333 273.666666667 354.333333333 263.666666667 353 261 c 0
 347.666666667 248.333333333 345 226.333333333 345 195 c 0
 345 171 349.666666667 152.166666667 359 138.5 c 128
 368.333333333 124.833333333 383.666666667 118 405 118 c 0
 423.666666667 118 437.333333333 130 446 154 c 0
 452.666666667 172.666666667 456 199.666666667 456 235 c 0
 456 279 443.333333333 314.666666667 418 342 c 0
 387.333333333 375.333333333 340.333333333 392 277 392 c 0
 233 392 193.666666667 383.333333333 159 366 c 0
 128.333333333 350.666666667 105.666666667 330.666666667 91 306 c 1
 98.3333333333 308 106 309 114 309 c 0
 142.666666667 309 167.666666667 299.333333333 189 280 c 0
 213.666666667 258 226 229 226 193 c 0
 226 154.333333333 214.666666667 123 192 99 c 0
 166 71.6666666667 130.333333333 58 85 58 c 0
 58.3333333333 58 36.6666666667 68 20 88 c 0
 0 111.333333333 -10 144.666666667 -10 188 c 0
 -10 272.666666667 19.3333333333 338.666666667 78 386 c 0
 131.333333333 428.666666667 199.333333333 450 282 450 c 0
 368 450 438 432.666666667 492 398 c 0
 554 358 585 300.666666667 585 226 c 0
103 184 m 0
 103 218 93.6666666667 235 75 235 c 0
 65.6666666667 235 59.1666666667 229.5 55.5 218.5 c 128
 51.8333333333 207.5 50 192.666666667 50 174 c 256
 50 155.333333333 51.5 141 54.5 131 c 128
 57.5 121 65.3333333333 116 78 116 c 0
 92 116 99.6666666667 123 101 137 c 128
 102.333333333 151 103 166.666666667 103 184 c 0
EndSplineSet
EndChar

StartChar: u0B93
Encoding: 51 2963 51
Width: 695
Flags: HW
AnchorPoint: "V" 287.5 455 basechar 0
AnchorPoint: "N" 287.5 -147.629 basechar 0
LayerCount: 2
Fore
SplineSet
585 226 m 0
 585 174.666666667 570.166666667 134.166666667 540.5 104.5 c 128
 510.833333333 74.8333333333 466.333333333 60 407 60 c 0
 377 60 353.5 67.5 336.5 82.5 c 128
 319.5 97.5 307.333333333 117.666666667 300 143 c 1
 303.333333333 112.333333333 320.333333333 88 351 70 c 0
 379 54 410.333333333 46 445 46 c 0
 452.333333333 46 458.333333333 43.3333333333 463 38 c 128
 467.666666667 32.6666666667 470 26.3333333333 470 19 c 0
 470 12.3333333333 468 6.66666666667 464 2 c 128
 460 -2.66666666667 454 -5 446 -5 c 2
 397 -5 l 2
 379 -5 358 -28.8333333333 334 -76.5 c 128
 310 -124.166666667 263.666666667 -148 195 -148 c 0
 149.666666667 -148 112.5 -137.666666667 83.5 -117 c 128
 54.5 -96.3333333333 40 -66 40 -26 c 0
 40 -1.33333333333 47.5 18.8333333333 62.5 34.5 c 128
 77.5 50.1666666667 101 58 133 58 c 0
 163.666666667 58 186.333333333 50 201 34 c 0
 213.666666667 20 220 1.33333333333 220 -22 c 0
 220 -38 215.666666667 -56.3333333333 207 -77 c 0
 205 -83.6666666667 203.333333333 -90.3333333333 202 -97 c 1
 192 -93.6666666667 186.333333333 -91.6666666667 185 -91 c 1
 185.666666667 -90.3333333333 186.666666667 -90 188 -90 c 0
 208.666666667 -90 224 -76 234 -48 c 0
 239.333333333 -32 244.666666667 -17.6666666667 250 -5 c 128
 255.333333333 7.66666666667 261.666666667 16.8333333333 269 22.5 c 128
 276.333333333 28.1666666667 288 32.6666666667 304 36 c 1
 288 47.3333333333 275.333333333 60.6666666667 266 76 c 0
 254 95.3333333333 248 116.333333333 248 139 c 0
 248 175 255 207.666666667 269 237 c 0
 278.333333333 256.333333333 293.333333333 278.333333333 314 303 c 0
 324.666666667 315.666666667 336.666666667 322 350 322 c 0
 357.333333333 322 363.666666667 319.666666667 369 315 c 128
 374.333333333 310.333333333 377 305.333333333 377 300 c 0
 377 297.333333333 376 294.333333333 374 291 c 0
 361.333333333 273.666666667 354.333333333 263.666666667 353 261 c 0
 347.666666667 248.333333333 345 226.333333333 345 195 c 0
 345 171 349.666666667 152.166666667 359 138.5 c 128
 368.333333333 124.833333333 383.666666667 118 405 118 c 0
 423.666666667 118 437.333333333 130 446 154 c 0
 452.666666667 172.666666667 456 199.666666667 456 235 c 0
 456 279 443.333333333 314.666666667 418 342 c 0
 387.333333333 375.333333333 340.333333333 392 277 392 c 0
 233 392 193.666666667 383.333333333 159 366 c 0
 128.333333333 350.666666667 105.666666667 330.666666667 91 306 c 1
 98.3333333333 308 106 309 114 309 c 0
 142.666666667 309 167.666666667 299.333333333 189 280 c 0
 213.666666667 258 226 229 226 193 c 0
 226 154.333333333 214.666666667 123 192 99 c 0
 166 71.6666666667 130.333333333 58 85 58 c 0
 58.3333333333 58 36.6666666667 68 20 88 c 0
 0 111.333333333 -10 144.666666667 -10 188 c 0
 -10 272.666666667 19.3333333333 338.666666667 78 386 c 0
 131.333333333 428.666666667 199.333333333 450 282 450 c 0
 368 450 438 432.666666667 492 398 c 0
 554 358 585 300.666666667 585 226 c 0
103 184 m 0
 103 218 93.6666666667 235 75 235 c 0
 65.6666666667 235 59.1666666667 229.5 55.5 218.5 c 128
 51.8333333333 207.5 50 192.666666667 50 174 c 256
 50 155.333333333 51.5 141 54.5 131 c 128
 57.5 121 65.3333333333 116 78 116 c 0
 92 116 99.6666666667 123 101 137 c 128
 102.333333333 151 103 166.666666667 103 184 c 0
147 -29 m 0
 147 -6.33333333333 139.333333333 5 124 5 c 0
 112.666666667 5 105 1.16666666667 101 -6.5 c 128
 97 -14.1666666667 95 -24 95 -36 c 0
 95 -41.3333333333 97.5 -47.1666666667 102.5 -53.5 c 128
 107.5 -59.8333333333 114.666666667 -63 124 -63 c 256
 133.333333333 -63 140 -57.6666666667 144 -47 c 0
 146 -41.6666666667 147 -35.6666666667 147 -29 c 0
EndSplineSet
EndChar

StartChar: u0B95
Encoding: 53 2965 53
Width: 668
Flags: HW
AnchorPoint: "V" 330 455 basechar 0
AnchorPoint: "N" 330 -4 basechar 0
LayerCount: 2
Fore
SplineSet
558 153 m 0
 558 108.333333333 545.666666667 71.6666666667 521 43 c 0
 493.666666667 11.6666666667 455.666666667 -4 407 -4 c 0
 396.333333333 -4 388.333333333 -1.66666666667 383 3 c 128
 377.666666667 7.66666666667 375 13.3333333333 375 20 c 0
 375 27.3333333333 378.333333333 33.3333333333 385 38 c 0
 402.333333333 49.3333333333 414.333333333 68.3333333333 421 95 c 0
 425.666666667 113 428 134 428 158 c 256
 428 182 422.833333333 199.166666667 412.5 209.5 c 128
 402.166666667 219.833333333 383.666666667 226.333333333 357 229 c 1
 356 164 l 2
 356 113.333333333 341.666666667 73.3333333333 313 44 c 128
 284.333333333 14.6666666667 241.666666667 0 185 0 c 0
 125 0 77.5 10.6666666667 42.5 32 c 128
 7.5 53.3333333333 -10 83.6666666667 -10 123 c 0
 -10 161 -1.66666666667 192.166666667 15 216.5 c 128
 31.6666666667 240.833333333 59 259 97 271 c 1
 97 301 l 2
 97 345.666666667 106.666666667 380.666666667 126 406 c 0
 148 434.666666667 182.333333333 449 229 449 c 0
 249.666666667 449 267.666666667 447.333333333 283 444 c 0
 319 436 341 432 349 432 c 0
 363 432 372.5 432.5 377.5 433.5 c 128
 382.5 434.5 390 437.833333333 400 443.5 c 128
 410 449.166666667 418.666666667 452 426 452 c 0
 440.666666667 452 448 444.666666667 448 430 c 0
 448 422.666666667 445.5 415.833333333 440.5 409.5 c 128
 435.5 403.166666667 427.333333333 397.666666667 416 393 c 0
 396 383.666666667 381.333333333 367.333333333 372 344 c 0
 370 337.333333333 367.833333333 327.666666667 365.5 315 c 128
 363.166666667 302.333333333 362 293 362 287 c 1
 424 287 472.166666667 276 506.5 254 c 128
 540.833333333 232 558 198.333333333 558 153 c 0
265 387 m 1
 257.666666667 389.666666667 252.833333333 391.166666667 250.5 391.5 c 128
 248.166666667 391.833333333 240.333333333 392 227 392 c 0
 199 392 180.333333333 383.666666667 171 367 c 0
 166.333333333 359.666666667 162.666666667 348.166666667 160 332.5 c 128
 157.333333333 316.833333333 156 300.333333333 156 283 c 1
 233 288 l 1
 236.333333333 314 240.5 333.833333333 245.5 347.5 c 128
 250.5 361.166666667 257 374.333333333 265 387 c 1
228 228 m 1
 200.666666667 228 179.166666667 223.666666667 163.5 215 c 128
 147.833333333 206.333333333 136.666666667 193.333333333 130 176 c 128
 123.333333333 158.666666667 120 138.666666667 120 116 c 0
 120 95.3333333333 124.333333333 80.3333333333 133 71 c 128
 141.666666667 61.6666666667 154.333333333 57 171 57 c 0
 193.666666667 57 209.333333333 66 218 84 c 0
 224 96.6666666667 227 115.333333333 227 140 c 2
 227 167 l 1
 228 228 l 1
EndSplineSet
EndChar

StartChar: u0B95_u0BBF
Encoding: 54 -1 54
Width: 679
Flags: HW
AnchorPoint: "V" 330 660.79 basechar 0
AnchorPoint: "N" 330 -4 basechar 0
LayerCount: 2
Fore
SplineSet
569 499 m 0
 569 475.666666667 567 454.166666667 563 434.5 c 128
 559 414.833333333 552.666666667 388.666666667 544 356 c 0
 544 348 547.333333333 339.666666667 554 331 c 128
 560.666666667 322.333333333 564 314.666666667 564 308 c 0
 564 298.666666667 560.666666667 290.666666667 554 284 c 128
 547.333333333 277.333333333 539 274 529 274 c 0
 516.333333333 274 505.666666667 280 497 292 c 128
 488.333333333 304 485 316 487 328 c 0
 497 374.666666667 507.333333333 421.666666667 518 469 c 1
 518 501 510.333333333 525.333333333 495 542 c 0
 477.666666667 560.666666667 452 570 418 570 c 0
 385.333333333 570 361 562.333333333 345 547 c 128
 329 531.666666667 321 511.666666667 321 487 c 0
 321 475.666666667 322.166666667 466.333333333 324.5 459 c 128
 326.833333333 451.666666667 329.666666667 445.666666667 333 441 c 1
 349 439 l 2
 363 439 372.5 439.5 377.5 440.5 c 128
 382.5 441.5 389.5 444.833333333 398.5 450.5 c 128
 407.5 456.166666667 416.333333333 459 425 459 c 0
 440.333333333 459 448 451.333333333 448 436 c 0
 448 429.333333333 445.5 422.666666667 440.5 416 c 128
 435.5 409.333333333 427.333333333 403.666666667 416 399 c 0
 396 389.666666667 381.333333333 373.333333333 372 350 c 0
 370 342.666666667 368.666666667 337 368 333 c 0
 364 316.333333333 362 302.333333333 362 291 c 1
 424.666666667 291 473 280 507 258 c 128
 541 236 558 201.666666667 558 155 c 0
 558 109.666666667 545.666666667 72.6666666667 521 44 c 0
 493.666666667 12 455.666666667 -4 407 -4 c 0
 396.333333333 -4 388.333333333 -1.66666666667 383 3 c 128
 377.666666667 7.66666666667 375 13.3333333333 375 20 c 0
 375 28 378.333333333 34.3333333333 385 39 c 0
 402.333333333 50.3333333333 414.333333333 69.3333333333 421 96 c 0
 425.666666667 114 428 135.333333333 428 160 c 0
 428 185.333333333 422.833333333 203.166666667 412.5 213.5 c 128
 402.166666667 223.833333333 383.666666667 230.333333333 357 233 c 1
 356 167 l 2
 356 115 341.666666667 74.1666666667 313 44.5 c 128
 284.333333333 14.8333333333 241.666666667 0 185 0 c 0
 124.333333333 0 76.6666666667 10.8333333333 42 32.5 c 128
 7.33333333333 54.1666666667 -10 85 -10 125 c 0
 -10 163.666666667 -1.66666666667 195.5 15 220.5 c 128
 31.6666666667 245.5 59 264 97 276 c 1
 97 306 l 2
 97 351.333333333 106.666666667 387 126 413 c 0
 148 442.333333333 182.333333333 457 229 457 c 1
 270 454 l 1
 267.333333333 462.666666667 264.666666667 474.333333333 262 489 c 128
 259.333333333 503.666666667 258 516.333333333 258 527 c 0
 258 571.666666667 270.333333333 607.333333333 295 634 c 0
 322.333333333 664 362.666666667 679 416 679 c 0
 467.333333333 679 505.666666667 662.833333333 531 630.5 c 128
 556.333333333 598.166666667 569 554.333333333 569 499 c 0
265 393 m 1
 257.666666667 395.666666667 252.833333333 397.166666667 250.5 397.5 c 128
 248.166666667 397.833333333 240.333333333 398 227 398 c 0
 199 398 180.166666667 389.666666667 170.5 373 c 128
 160.833333333 356.333333333 156 327.666666667 156 287 c 1
 233 292 l 1
 236.333333333 319.333333333 240.5 339.833333333 245.5 353.5 c 128
 250.5 367.166666667 257 380.333333333 265 393 c 1
228 232 m 1
 216.666666667 232 205 230.666666667 193 228 c 128
 181 225.333333333 172 222.333333333 166 219 c 0
 148.666666667 209.666666667 136.666666667 196.166666667 130 178.5 c 128
 123.333333333 160.833333333 120 140.666666667 120 118 c 0
 120 96.6666666667 124.333333333 81.3333333333 133 72 c 128
 141.666666667 62.6666666667 154.333333333 58 171 58 c 0
 193.666666667 58 209.333333333 67 218 85 c 0
 224 97.6666666667 227 117 227 143 c 2
 227 170 l 1
 228 232 l 1
EndSplineSet
EndChar

StartChar: u0B95_u0BC0
Encoding: 55 -1 55
Width: 669
Flags: HW
AnchorPoint: "V" 330 667.67 basechar 0
AnchorPoint: "N" 330 -4 basechar 0
LayerCount: 2
Fore
SplineSet
559 581 m 0
 559 558.333333333 551 537.333333333 535 518 c 0
 513 491.333333333 482 478 442 478 c 0
 400.666666667 478 370 487.333333333 350 506 c 0
 334 521.333333333 326 541.666666667 326 567 c 0
 326 575 326.333333333 580.666666667 327 584 c 1
 316.333333333 577.333333333 308 568.166666667 302 556.5 c 128
 296 544.833333333 293 533.666666667 293 523 c 0
 293 508.333333333 297 493.5 305 478.5 c 128
 313 463.5 323 450.666666667 335 440 c 1
 349 439 l 2
 363 439 372.5 439.5 377.5 440.5 c 128
 382.5 441.5 389.5 444.833333333 398.5 450.5 c 128
 407.5 456.166666667 416.333333333 459 425 459 c 0
 440.333333333 459 448 451.333333333 448 436 c 0
 448 429.333333333 445.5 422.666666667 440.5 416 c 128
 435.5 409.333333333 427.666666667 403.833333333 417 399.5 c 128
 406.333333333 395.166666667 397.333333333 388.833333333 390 380.5 c 128
 382.666666667 372.166666667 376.666666667 362 372 350 c 0
 370 342.666666667 368.666666667 337 368 333 c 0
 364 316.333333333 362 302.333333333 362 291 c 1
 424.666666667 291 473 280 507 258 c 128
 541 236 558 201.666666667 558 155 c 0
 558 109.666666667 545.666666667 72.6666666667 521 44 c 0
 493.666666667 12 455.666666667 -4 407 -4 c 0
 396.333333333 -4 388.333333333 -1.66666666667 383 3 c 128
 377.666666667 7.66666666667 375 13.3333333333 375 20 c 0
 375 28 378.333333333 34.3333333333 385 39 c 0
 402.333333333 50.3333333333 414.333333333 69.3333333333 421 96 c 0
 425.666666667 114 428 135.333333333 428 160 c 0
 428 185.333333333 422.833333333 203.166666667 412.5 213.5 c 128
 402.166666667 223.833333333 383.666666667 230.333333333 357 233 c 1
 356 167 l 2
 356 115 341.666666667 74.1666666667 313 44.5 c 128
 284.333333333 14.8333333333 241.666666667 0 185 0 c 0
 124.333333333 0 76.6666666667 10.8333333333 42 32.5 c 128
 7.33333333333 54.1666666667 -10 85 -10 125 c 0
 -10 163.666666667 -1.66666666667 195.5 15 220.5 c 128
 31.6666666667 245.5 59 264 97 276 c 1
 97 306 l 2
 97 352 106.666666667 387.666666667 126 413 c 0
 148 442.333333333 182.333333333 457 229 457 c 2
 248 457 l 1
 243.333333333 467.666666667 239.666666667 478.833333333 237 490.5 c 128
 234.333333333 502.166666667 233 515.333333333 233 530 c 0
 233 572 248.333333333 607.333333333 279 636 c 0
 313 667.333333333 359.333333333 683 418 683 c 0
 455.333333333 683 488.166666667 673.666666667 516.5 655 c 128
 544.833333333 636.333333333 559 611.666666667 559 581 c 0
433 571 m 0
 433 589 424.333333333 598 407 598 c 0
 388.333333333 598 379 589.666666667 379 573 c 0
 379 555 387.666666667 546 405 546 c 0
 414.333333333 546 421.333333333 548.333333333 426 553 c 128
 430.666666667 557.666666667 433 563.666666667 433 571 c 0
265 393 m 1
 257.666666667 395.666666667 252.833333333 397.166666667 250.5 397.5 c 128
 248.166666667 397.833333333 240.333333333 398 227 398 c 0
 199 398 180.333333333 389.666666667 171 373 c 0
 166.333333333 365.666666667 162.666666667 354 160 338 c 128
 157.333333333 322 156 305.333333333 156 288 c 1
 233 292 l 1
 236.333333333 319.333333333 240.5 339.833333333 245.5 353.5 c 128
 250.5 367.166666667 257 380.333333333 265 393 c 1
228 232 m 1
 216.666666667 232 205 230.666666667 193 228 c 128
 181 225.333333333 172 222.333333333 166 219 c 0
 148.666666667 209.666666667 136.666666667 196.166666667 130 178.5 c 128
 123.333333333 160.833333333 120 140.666666667 120 118 c 0
 120 96.6666666667 124.333333333 81.3333333333 133 72 c 128
 141.666666667 62.6666666667 154.333333333 58 171 58 c 0
 193.666666667 58 209.333333333 67 218 85 c 0
 224 97.6666666667 227 117 227 143 c 2
 227 170 l 1
 228 232 l 1
EndSplineSet
EndChar

StartChar: u0B95_u0BC1
Encoding: 56 -1 56
Width: 818
Flags: HW
AnchorPoint: "V" 330 455 basechar 0
AnchorPoint: "N" 330 -4 basechar 0
LayerCount: 2
Fore
SplineSet
708 110 m 0
 708 19.3333333333 681 -53 627 -107 c 0
 562.333333333 -172.333333333 462.333333333 -205 327 -205 c 0
 216.333333333 -205 132.5 -176.166666667 75.5 -118.5 c 128
 18.5 -60.8333333333 -10 19.3333333333 -10 122 c 0
 -10 196.666666667 1.66666666667 258 25 306 c 0
 37 330 56.3333333333 356 83 384 c 0
 92.3333333333 393.333333333 102.333333333 398 113 398 c 0
 129 398 137 390 137 374 c 0
 137 366.666666667 134 358 128 348 c 0
 106 315 106 315 84 282 c 1
 61.3333333333 236.666666667 50 182.333333333 50 119 c 0
 50 35 77 -30.3333333333 131 -77 c 0
 181 -120.333333333 246 -142 326 -142 c 0
 407.333333333 -142 469.666666667 -119.333333333 513 -74 c 128
 556.333333333 -28.6666666667 578 34.3333333333 578 115 c 0
 578 153 572.833333333 180.166666667 562.5 196.5 c 128
 552.166666667 212.833333333 533.666666667 222.666666667 507 226 c 1
 506 160 l 2
 506 108.666666667 491.5 68.1666666667 462.5 38.5 c 128
 433.5 8.83333333333 391 -6 335 -6 c 0
 274.333333333 -6 226.666666667 4.83333333333 192 26.5 c 128
 157.333333333 48.1666666667 140 79 140 119 c 0
 140 157 148.333333333 188.5 165 213.5 c 128
 181.666666667 238.5 209 257 247 269 c 1
 247 299 l 2
 247 344.333333333 256.666666667 379.666666667 276 405 c 0
 298 434.333333333 332.333333333 449 379 449 c 0
 399.666666667 449 417.666666667 447.333333333 433 444 c 0
 469 436 491 432 499 432 c 0
 513 432 522.5 432.5 527.5 433.5 c 128
 532.5 434.5 540 437.666666667 550 443 c 0
 558 448.333333333 566.333333333 451 575 451 c 0
 590.333333333 451 598 443.666666667 598 429 c 0
 598 421.666666667 595.5 414.833333333 590.5 408.5 c 128
 585.5 402.166666667 577.333333333 396.666666667 566 392 c 0
 546 382.666666667 531.333333333 366 522 342 c 0
 520 335.333333333 518.666666667 330 518 326 c 0
 514 309.333333333 512 295.333333333 512 284 c 1
 576 284 623.666666667 271.666666667 655 247 c 0
 690.333333333 219 708 173.333333333 708 110 c 0
415 386 m 1
 407.666666667 388.666666667 402.833333333 390.166666667 400.5 390.5 c 128
 398.166666667 390.833333333 390.333333333 391 377 391 c 0
 349 391 330.166666667 382.666666667 320.5 366 c 128
 310.833333333 349.333333333 306 320.666666667 306 280 c 1
 383 285 l 1
 383.666666667 293 384.833333333 302.333333333 386.5 313 c 128
 388.166666667 323.666666667 391.333333333 335.166666667 396 347.5 c 128
 400.666666667 359.833333333 407 372.666666667 415 386 c 1
378 225 m 1
 364 225 352.333333333 224 343 222 c 128
 333.666666667 220 324.666666667 217 316 213 c 0
 298.666666667 203 286.666666667 189.5 280 172.5 c 128
 273.333333333 155.5 270 135.333333333 270 112 c 0
 270 90.6666666667 274.333333333 75.3333333333 283 66 c 128
 291.666666667 56.6666666667 304.333333333 52 321 52 c 0
 343.666666667 52 359.333333333 61 368 79 c 0
 374 91.6666666667 377 110.666666667 377 136 c 2
 377 163 l 1
 378 225 l 1
EndSplineSet
EndChar

StartChar: u0B95_u0BC2
Encoding: 57 -1 57
Width: 1098
Flags: HW
AnchorPoint: "V" 330 455 basechar 0
AnchorPoint: "N" 330 -4 basechar 0
LayerCount: 2
Fore
SplineSet
982 18 m 0
 966 10.6666666667 947.166666667 4.83333333333 925.5 0.5 c 128
 903.833333333 -3.83333333333 879.666666667 -6 853 -6 c 0
 828 -6 828 -6 801 -6 c 128
 783 -6 764 -6.33333333333 744 -7 c 2
 724 -7 l 2
 670.666666667 -7 629 -4.66666666667 599 0 c 0
 588.333333333 2 583 8.33333333333 583 19 c 0
 583 27 587 34 595 40 c 0
 613.666666667 52.6666666667 629 67.3333333333 641 84 c 0
 656.333333333 104.666666667 664 126 664 148 c 0
 664 175.333333333 656.333333333 199.333333333 641 220 c 0
 621.666666667 246 594.666666667 259 560 259 c 1
 544 257 l 1
 568 243.666666667 584.666666667 226.833333333 594 206.5 c 128
 603.333333333 186.166666667 608 161.333333333 608 132 c 0
 608 106.666666667 595.333333333 79 570 49 c 0
 540 13.6666666667 507.333333333 -4 472 -4 c 0
 432.666666667 -4 404 5.83333333333 386 25.5 c 128
 368 45.1666666667 359 71 359 103 c 0
 359 127.666666667 362.166666667 149.666666667 368.5 169 c 128
 374.833333333 188.333333333 384.333333333 206.333333333 397 223 c 1
 391 225 384.833333333 226.666666667 378.5 228 c 128
 372.166666667 229.333333333 365 230 357 230 c 1
 356 164 l 2
 356 113.333333333 341.666666667 73.3333333333 313 44 c 128
 284.333333333 14.6666666667 241.666666667 0 185 0 c 0
 125 0 77.5 10.6666666667 42.5 32 c 128
 7.5 53.3333333333 -10 83.6666666667 -10 123 c 0
 -10 161 -1.66666666667 192.166666667 15 216.5 c 128
 31.6666666667 240.833333333 59 259 97 271 c 1
 97 301 l 2
 97 345.666666667 106.666666667 380.666666667 126 406 c 0
 148 434.666666667 182.333333333 449 229 449 c 0
 249.666666667 449 267.666666667 447.333333333 283 444 c 0
 319 436 341 432 349 432 c 0
 363 432 372.5 432.5 377.5 433.5 c 128
 382.5 434.5 390 437.833333333 400 443.5 c 128
 410 449.166666667 418.666666667 452 426 452 c 0
 440.666666667 452 448 444.666666667 448 430 c 0
 448 422.666666667 445.5 415.833333333 440.5 409.5 c 128
 435.5 403.166666667 427.333333333 397.666666667 416 393 c 0
 396 383.666666667 381.333333333 367.333333333 372 344 c 0
 367.333333333 330 364 311.333333333 362 288 c 1
 402 288 437 286 467 282 c 1
 489.666666667 294.666666667 514.5 304.166666667 541.5 310.5 c 128
 568.5 316.833333333 592.333333333 320 613 320 c 0
 673 320 719 304 751 272 c 0
 779.666666667 243.333333333 794 206.666666667 794 162 c 0
 794 146 789.666666667 128.333333333 781 109 c 0
 770.333333333 85.6666666667 757 67.3333333333 741 54 c 1
 748.333333333 54 763.5 53.6666666667 786.5 53 c 128
 809.5 52.3333333333 829 52 845 52 c 0
 866.333333333 52 884.666666667 53.5 900 56.5 c 128
 915.333333333 59.5 929.5 64.3333333333 942.5 71 c 128
 955.5 77.6666666667 967.333333333 81 978 81 c 0
 1000.66666667 81 1012 71.6666666667 1012 53 c 0
 1012 47 1009.5 40.6666666667 1004.5 34 c 128
 999.5 27.3333333333 992 22 982 18 c 0
461 129 m 0
 461 133.666666667 461.5 140.333333333 462.5 149 c 128
 463.5 157.666666667 464 162.333333333 464 163 c 0
 464 171.666666667 462.833333333 178.166666667 460.5 182.5 c 128
 458.166666667 186.833333333 454.666666667 191.333333333 450 196 c 1
 440 183.333333333 432.166666667 169.5 426.5 154.5 c 128
 420.833333333 139.5 418 122.666666667 418 104 c 0
 418 91 418 91 418 79 c 0
 419.333333333 67.6666666667 425 62 435 62 c 0
 443 62 449.333333333 69.3333333333 454 84 c 128
 458.666666667 98.6666666667 461 113.666666667 461 129 c 0
265 387 m 1
 257.666666667 389.666666667 252.833333333 391.166666667 250.5 391.5 c 128
 248.166666667 391.833333333 240.333333333 392 227 392 c 0
 199 392 180.333333333 383.666666667 171 367 c 0
 166.333333333 359.666666667 162.666666667 348.166666667 160 332.5 c 128
 157.333333333 316.833333333 156 300.333333333 156 283 c 1
 233 288 l 1
 235 302.666666667 236.833333333 314 238.5 322 c 128
 240.166666667 330 242.333333333 337.666666667 245 345 c 0
 250.333333333 360.333333333 257 374.333333333 265 387 c 1
228 228 m 1
 200.666666667 228 179.166666667 223.666666667 163.5 215 c 128
 147.833333333 206.333333333 136.666666667 193.333333333 130 176 c 128
 123.333333333 158.666666667 120 138.666666667 120 116 c 0
 120 95.3333333333 124.5 80.3333333333 133.5 71 c 128
 142.5 61.6666666667 155 57 171 57 c 0
 193.666666667 57 209.333333333 66 218 84 c 0
 224 96.6666666667 227 115.333333333 227 140 c 2
 227 167 l 1
 228 228 l 1
EndSplineSet
EndChar

StartChar: u0B95_u0BC2.old
Encoding: 58 -1 58
Width: 926
Flags: HW
AnchorPoint: "V" 330 455 basechar 0
AnchorPoint: "N" 330 -4 basechar 0
LayerCount: 2
Fore
SplineSet
830 -3 m 1
 556 -3 l 1
 557 45 l 1
 582.333333333 59.6666666667 601 72.6666666667 613 84 c 0
 635 104.666666667 646 126.333333333 646 149 c 0
 646 168.333333333 639 184.333333333 625 197 c 128
 611 209.666666667 593.666666667 216 573 216 c 0
 550.333333333 216 531.666666667 213 517 207 c 128
 502.333333333 201 493.666666667 192.333333333 491 181 c 1
 491 -3 l 1
 399 -3 l 1
 399 215 l 1
 321 215 l 1
 321 109 l 2
 321 80.3333333333 303.5 54.5 268.5 31.5 c 128
 233.5 8.5 196 -3 156 -3 c 0
 108 -3 70 8.66666666667 42 32 c 0
 12 57.3333333333 -3 94.3333333333 -3 143 c 0
 -3 178.333333333 8 208 30 232 c 0
 47.3333333333 250.666666667 65.6666666667 261.666666667 85 265 c 1
 85 452 l 1
 418 452 l 1
 418 399 l 1
 321 399 l 1
 321 267 l 1
 432 267 l 2
 438 267 445.333333333 265 454 261 c 128
 462.666666667 257 469 251.666666667 473 245 c 1
 484.333333333 254.333333333 500.333333333 261.833333333 521 267.5 c 128
 541.666666667 273.166666667 567.333333333 276 598 276 c 0
 638 276 671.666666667 266.333333333 699 247 c 0
 731 224.333333333 747 193.333333333 747 154 c 0
 747 134 741.833333333 115 731.5 97 c 128
 721.166666667 79 708 63 692 49 c 1
 830 49 l 1
 830 -3 l 1
231 267 m 1
 231 399 l 1
 137 399 l 1
 137 267 l 1
 231 267 l 1
231 105 m 2
 231 215 l 1
 113 215 l 2
 93.6666666667 215 78.1666666667 207 66.5 191 c 128
 54.8333333333 175 49 156 49 134 c 0
 49 77.3333333333 81 49 145 49 c 0
 162.333333333 49 181 54.8333333333 201 66.5 c 128
 221 78.1666666667 231 91 231 105 c 2
EndSplineSet
EndChar

StartChar: u0B95_u0BCD
Encoding: 59 -1 59
Width: 668
Flags: HW
AnchorPoint: "N" 330 -4 basechar 0
LayerCount: 2
Fore
SplineSet
402 579 m 256
 402 558.333333333 395.166666667 541.5 381.5 528.5 c 128
 367.833333333 515.5 350.666666667 509 330 509 c 0
 310 509 293 515.666666667 279 529 c 128
 265 542.333333333 258 559 258 579 c 256
 258 599 264.833333333 615.833333333 278.5 629.5 c 128
 292.166666667 643.166666667 309.333333333 650 330 650 c 0
 350 650 367 643.333333333 381 630 c 128
 395 616.666666667 402 599.666666667 402 579 c 256
558 155 m 0
 558 109.666666667 545.666666667 72.6666666667 521 44 c 0
 493.666666667 12 455.666666667 -4 407 -4 c 0
 396.333333333 -4 388.333333333 -1.66666666667 383 3 c 128
 377.666666667 7.66666666667 375 13.3333333333 375 20 c 0
 375 28 378.333333333 34.3333333333 385 39 c 0
 402.333333333 50.3333333333 414.333333333 69.3333333333 421 96 c 0
 425.666666667 114 428 135.333333333 428 160 c 256
 428 184.666666667 422.666666667 202.333333333 412 213 c 128
 401.333333333 223.666666667 383 230.333333333 357 233 c 1
 356 167 l 2
 356 115 341.666666667 74.1666666667 313 44.5 c 128
 284.333333333 14.8333333333 241.666666667 0 185 0 c 0
 124.333333333 0 76.6666666667 10.8333333333 42 32.5 c 128
 7.33333333333 54.1666666667 -10 85 -10 125 c 0
 -10 164.333333333 -1.66666666667 196.166666667 15 220.5 c 128
 31.6666666667 244.833333333 59 263 97 275 c 1
 97 306 l 2
 97 351.333333333 106.666666667 386.666666667 126 412 c 0
 148 441.333333333 182.333333333 456 229 456 c 0
 250.333333333 456 268.333333333 454.333333333 283 451 c 0
 320.333333333 442.333333333 342.333333333 438 349 438 c 0
 363 438 372.5 438.5 377.5 439.5 c 128
 382.5 440.5 389.5 443.833333333 398.5 449.5 c 128
 407.5 455.166666667 416.333333333 458 425 458 c 0
 440.333333333 458 448 450.666666667 448 436 c 0
 448 428.666666667 445.5 421.833333333 440.5 415.5 c 128
 435.5 409.166666667 427.333333333 403.666666667 416 399 c 0
 396 389.666666667 381.333333333 373 372 349 c 0
 370 343 367.833333333 333.333333333 365.5 320 c 128
 363.166666667 306.666666667 362 297 362 291 c 1
 424.666666667 291 473 279.833333333 507 257.5 c 128
 541 235.166666667 558 201 558 155 c 0
265 393 m 1
 257.666666667 395.666666667 252.833333333 397.166666667 250.5 397.5 c 128
 248.166666667 397.833333333 240.333333333 398 227 398 c 0
 212.333333333 398 200.666666667 396.166666667 192 392.5 c 128
 183.333333333 388.833333333 176.5 382.666666667 171.5 374 c 128
 166.5 365.333333333 162.666666667 353.166666667 160 337.5 c 128
 157.333333333 321.833333333 156 305 156 287 c 1
 233 292 l 1
 235 307.333333333 236.833333333 319.333333333 238.5 328 c 128
 240.166666667 336.666666667 242.166666667 344 244.5 350 c 128
 246.833333333 356 249.666666667 362.666666667 253 370 c 128
 256.333333333 377.333333333 260.333333333 385 265 393 c 1
228 232 m 1
 216.666666667 232 205 230.666666667 193 228 c 128
 181 225.333333333 172 222.333333333 166 219 c 0
 148.666666667 209.666666667 136.666666667 196.166666667 130 178.5 c 128
 123.333333333 160.833333333 120 140.666666667 120 118 c 0
 120 96.6666666667 124.333333333 81.3333333333 133 72 c 128
 141.666666667 62.6666666667 154.333333333 58 171 58 c 0
 193.666666667 58 209.333333333 67 218 85 c 0
 224 97.6666666667 227 117 227 143 c 2
 227 170 l 1
 228 232 l 1
EndSplineSet
EndChar

StartChar: u0B99
Encoding: 60 2969 60
Width: 838
Flags: HW
AnchorPoint: "V" 330 455 basechar 0
AnchorPoint: "N" 330 -1.94737 basechar 0
LayerCount: 2
Fore
SplineSet
726 426 m 0
 709.333333333 398 701 362.666666667 701 320 c 2
 701 146 l 2
 701 98 686 60.3333333333 656 33 c 128
 626 5.66666666667 588.333333333 -8 543 -8 c 0
 531 -7.33333333333 521.333333333 -6.66666666667 514 -6 c 0
 458.666666667 -1.33333333333 419.666666667 1 397 1 c 0
 385 1 385 1 374.5 1 c 128
 367.5 1 360.333333333 0.333333333333 353 -1 c 0
 340.333333333 -3 329.166666667 -1.83333333333 319.5 2.5 c 128
 309.833333333 6.83333333333 305 14 305 24 c 0
 305 30 307.333333333 36.5 312 43.5 c 128
 316.666666667 50.5 323.666666667 58 333 66 c 128
 342.333333333 74 349.833333333 85.1666666667 355.5 99.5 c 128
 361.166666667 113.833333333 364 130.666666667 364 150 c 0
 364 176.666666667 359.833333333 197.833333333 351.5 213.5 c 128
 343.166666667 229.166666667 331.666666667 237 317 237 c 0
 307.666666667 237 297.666666667 233.666666667 287 227 c 1
 285 136 l 2
 285 89.3333333333 271 53.3333333333 243 28 c 0
 219 6.66666666667 189.666666667 -4 155 -4 c 0
 133.666666667 -4 123 2.33333333333 123 15 c 0
 123 21.6666666667 125.333333333 28.3333333333 130 35 c 0
 138.666666667 49 145.166666667 64.6666666667 149.5 82 c 128
 153.833333333 99.3333333333 156 118.333333333 156 139 c 0
 156 159 156.5 180.333333333 157.5 203 c 128
 158.5 225.666666667 159.666666667 252 161 282 c 0
 161 299.333333333 164 316.5 170 333.5 c 128
 176 350.5 184.333333333 368.666666667 195 388 c 1
 186.333333333 390.666666667 180.333333333 392.166666667 177 392.5 c 128
 173.666666667 392.833333333 165 393 151 393 c 0
 128.333333333 393 111.833333333 385 101.5 369 c 128
 91.1666666667 353 86 324.333333333 86 283 c 0
 86 212.333333333 83.6666666667 158 79 120 c 128
 74.3333333333 82 63.3333333333 48 46 18 c 0
 36.6666666667 2 25 -6 11 -6 c 0
 -4.33333333333 -6 -12 1.66666666667 -12 17 c 0
 -12 25.6666666667 -9.33333333333 34 -4 42 c 0
 8 64 16 90.8333333333 20 122.5 c 128
 24 154.166666667 26 194 26 242 c 2
 26 302 l 2
 26 348 36.5 384.333333333 57.5 411 c 128
 78.5 437.666666667 110.333333333 451 153 451 c 0
 175.666666667 451 198.666666667 448 222 442 c 128
 245.333333333 436 264 433 278 433 c 256
 292 433 301.5 433.5 306.5 434.5 c 128
 311.5 435.5 318.5 438.833333333 327.5 444.5 c 128
 336.5 450.166666667 345.333333333 453 354 453 c 0
 369.333333333 453 377 445.666666667 377 431 c 0
 377 423.666666667 374.5 416.833333333 369.5 410.5 c 128
 364.5 404.166666667 356.333333333 398.666666667 345 394 c 0
 328.333333333 386.666666667 316 374 308 356 c 128
 300 338 294.333333333 315.333333333 291 288 c 1
 314.333333333 298.666666667 338.333333333 304 363 304 c 0
 399.666666667 304 430.5 291.166666667 455.5 265.5 c 128
 480.5 239.833333333 493 203 493 155 c 0
 493 135.666666667 487.5 117.333333333 476.5 100 c 128
 465.5 82.6666666667 452 67.3333333333 436 54 c 1
 449.333333333 52 461.333333333 51 472 51 c 0
 494.666666667 51 518.333333333 56 543 66 c 0
 556.333333333 71.3333333333 565 87 569 113 c 0
 571 126.333333333 572 148 572 178 c 2
 572 323 l 2
 572 369 586 405 614 431 c 0
 638.666666667 453.666666667 668 465 702 465 c 0
 723.333333333 465 734 458.666666667 734 446 c 0
 734 440 731.333333333 433.333333333 726 426 c 0
EndSplineSet
EndChar

StartChar: u0B99_u0BBF
Encoding: 61 -1 61
Width: 959
Flags: HW
AnchorPoint: "V" 330 455 basechar 0
AnchorPoint: "N" 330 -1.94737 basechar 0
LayerCount: 2
Fore
SplineSet
849 499 m 0
 849 475.666666667 847 454.166666667 843 434.5 c 128
 839 414.833333333 832.666666667 388.666666667 824 356 c 0
 824 348 827.333333333 339.666666667 834 331 c 128
 840.666666667 322.333333333 844 314.666666667 844 308 c 0
 844 298.666666667 840.666666667 290.666666667 834 284 c 128
 827.333333333 277.333333333 819 274 809 274 c 0
 796.333333333 274 785.666666667 280 777 292 c 128
 768.333333333 304 765 316 767 328 c 0
 777 374.666666667 787.333333333 421.666666667 798 469 c 1
 798 501 790.333333333 525.333333333 775 542 c 0
 757.666666667 560.666666667 732 570 698 570 c 0
 665.333333333 570 641 562.333333333 625 547 c 128
 609 531.666666667 601 511.666666667 601 487 c 0
 601 479 602 470.5 604 461.5 c 128
 606 452.5 609.333333333 444.333333333 614 437 c 1
 638.666666667 459.666666667 668 471 702 471 c 0
 723.333333333 471 734 464.333333333 734 451 c 0
 734 446.333333333 731.333333333 439.666666667 726 431 c 0
 709.333333333 403 701 367.333333333 701 324 c 2
 701 148 l 2
 701 99.3333333333 686.166666667 61.1666666667 656.5 33.5 c 128
 626.833333333 5.83333333333 589 -8 543 -8 c 1
 523 -5.33333333333 507 -3.66666666667 495 -3 c 0
 457.666666667 0.333333333333 425.666666667 2 399 2 c 0
 380.333333333 2 365 1 353 -1 c 0
 340.333333333 -3 329.166666667 -1.83333333333 319.5 2.5 c 128
 309.833333333 6.83333333333 305 14 305 24 c 0
 305 36.6666666667 314.833333333 51.3333333333 334.5 68 c 128
 354.166666667 84.6666666667 364 112.666666667 364 152 c 0
 364 179.333333333 360 200.833333333 352 216.5 c 128
 344 232.166666667 332.333333333 240 317 240 c 0
 307.666666667 240 297.666666667 236.666666667 287 230 c 1
 285 138 l 2
 285 90.6666666667 271 54.3333333333 243 29 c 0
 219 7 189.666666667 -4 155 -4 c 0
 133.666666667 -4 123 2.66666666667 123 16 c 0
 123 22 125.333333333 28.6666666667 130 36 c 0
 138.666666667 50 145.166666667 65.6666666667 149.5 83 c 128
 153.833333333 100.333333333 156 119.666666667 156 141 c 0
 156 161.666666667 156.5 183.333333333 157.5 206 c 128
 158.5 228.666666667 159.666666667 255 161 285 c 0
 161 303.666666667 164.333333333 322.666666667 171 342 c 0
 175.666666667 354.666666667 183.666666667 371.666666667 195 393 c 1
 186.333333333 395.666666667 180.333333333 397.166666667 177 397.5 c 128
 173.666666667 397.833333333 165 398 151 398 c 0
 128.333333333 398 111.833333333 390 101.5 374 c 128
 91.1666666667 358 86 328.666666667 86 286 c 0
 86 214.666666667 83.6666666667 159.833333333 79 121.5 c 128
 74.3333333333 83.1666666667 63.3333333333 48.6666666667 46 18 c 0
 36.6666666667 2 25 -6 11 -6 c 0
 -4.33333333333 -6 -12 2 -12 18 c 0
 -12 26 -9.33333333333 34.3333333333 -4 43 c 0
 8.66666666667 65 16.8333333333 92 20.5 124 c 128
 24.1666666667 156 26 196.333333333 26 245 c 2
 26 306 l 2
 26 352.666666667 36.5 389.333333333 57.5 416 c 128
 78.5 442.666666667 110.333333333 456 153 456 c 0
 174.333333333 456 193 454.333333333 209 451 c 0
 247.666666667 443 270.666666667 439 278 439 c 0
 292 439 301.5 439.5 306.5 440.5 c 128
 311.5 441.5 318.5 444.833333333 327.5 450.5 c 128
 336.5 456.166666667 345.333333333 459 354 459 c 0
 369.333333333 459 377 451.333333333 377 436 c 0
 377 428.666666667 374.5 421.833333333 369.5 415.5 c 128
 364.5 409.166666667 356.333333333 403.666666667 345 399 c 0
 328.333333333 391.666666667 316 379 308 361 c 128
 300 343 294.333333333 320 291 292 c 1
 314.333333333 302.666666667 338.333333333 308 363 308 c 0
 400.333333333 308 430.666666667 295.666666667 454 271 c 0
 480 243.666666667 493 205.666666667 493 157 c 0
 493 137.666666667 487.5 119.333333333 476.5 102 c 128
 465.5 84.6666666667 452 69 436 55 c 1
 449.333333333 53 461.666666667 52 473 52 c 0
 485 52 496.333333333 53 507 55 c 128
 517.666666667 57 529.666666667 60.8333333333 543 66.5 c 128
 556.333333333 72.1666666667 565 88.3333333333 569 115 c 0
 571 128.333333333 572 150.333333333 572 181 c 2
 572 327 l 2
 572 353 576 375 584 393 c 1
 566.666666667 413.666666667 554.666666667 434.666666667 548 456 c 128
 541.333333333 477.333333333 538 501 538 527 c 0
 538 571.666666667 550.333333333 607.333333333 575 634 c 0
 602.333333333 664 642.666666667 679 696 679 c 0
 747.333333333 679 785.666666667 662.833333333 811 630.5 c 128
 836.333333333 598.166666667 849 554.333333333 849 499 c 0
EndSplineSet
EndChar

StartChar: u0B99_u0BC0
Encoding: 62 -1 62
Width: 838
Flags: HW
AnchorPoint: "V" 330 682.453 basechar 0
AnchorPoint: "N" 330 -1.94737 basechar 0
LayerCount: 2
Fore
SplineSet
383 571 m 0
 383 541.666666667 367 527 335 527 c 0
 321 527 309.833333333 531.5 301.5 540.5 c 128
 293.166666667 549.5 289 560.333333333 289 573 c 0
 289 586.333333333 293.5 597.166666667 302.5 605.5 c 128
 311.5 613.833333333 323 618 337 618 c 256
 351 618 362.166666667 613.5 370.5 604.5 c 128
 378.833333333 595.5 383 584.333333333 383 571 c 0
151 398 m 1
 128.333333333 398 111.833333333 390 101.5 374 c 128
 91.1666666667 358 86 328.666666667 86 286 c 0
 86 214.666666667 83.6666666667 159.833333333 79 121.5 c 128
 74.3333333333 83.1666666667 63.3333333333 48.6666666667 46 18 c 0
 36.6666666667 2 25 -6 11 -6 c 0
 -4.33333333333 -6 -12 2 -12 18 c 0
 -12 26 -9.33333333333 34.3333333333 -4 43 c 0
 8.66666666667 65 16.8333333333 92 20.5 124 c 128
 24.1666666667 156 26 196.333333333 26 245 c 2
 26 306 l 2
 26 352 36.5 388.666666667 57.5 416 c 128
 78.5 443.333333333 110.333333333 457 153 457 c 2
 180 456 l 1
 174.666666667 466 170.5 477.5 167.5 490.5 c 128
 164.5 503.5 163 516.666666667 163 530 c 0
 163 572 178.333333333 607.333333333 209 636 c 0
 243 667.333333333 289.333333333 683 348 683 c 0
 385.333333333 683 418.166666667 673.666666667 446.5 655 c 128
 474.833333333 636.333333333 489 611.666666667 489 581 c 0
 489 558.333333333 481 537.333333333 465 518 c 0
 443 491.333333333 412 478 372 478 c 0
 330.666666667 478 300 487 280 505 c 0
 263.333333333 520.333333333 255 540.666666667 255 566 c 0
 255 570 255.666666667 576 257 584 c 1
 246.333333333 577.333333333 238 568.166666667 232 556.5 c 128
 226 544.833333333 223 533.666666667 223 523 c 0
 223 508.333333333 226.833333333 493.666666667 234.5 479 c 128
 242.166666667 464.333333333 252.333333333 451.333333333 265 440 c 1
 278 439 l 2
 292 439 301.5 439.5 306.5 440.5 c 128
 311.5 441.5 318.5 444.833333333 327.5 450.5 c 128
 336.5 456.166666667 345.333333333 459 354 459 c 0
 369.333333333 459 377 451.333333333 377 436 c 0
 377 429.333333333 374.5 422.666666667 369.5 416 c 128
 364.5 409.333333333 356.333333333 403.666666667 345 399 c 0
 328.333333333 391.666666667 316 379 308 361 c 128
 300 343 294.333333333 320 291 292 c 1
 314.333333333 302.666666667 338.333333333 308 363 308 c 0
 400.333333333 308 430.666666667 295.666666667 454 271 c 0
 480 243.666666667 493 205.666666667 493 157 c 0
 493 137.666666667 487.5 119.333333333 476.5 102 c 128
 465.5 84.6666666667 452 69 436 55 c 1
 449.333333333 53 461.666666667 52 473 52 c 0
 485 52 496.333333333 53 507 55 c 128
 517.666666667 57 529.666666667 60.8333333333 543 66.5 c 128
 556.333333333 72.1666666667 565 88.3333333333 569 115 c 0
 571 128.333333333 572 150.333333333 572 181 c 2
 572 327 l 2
 572 374.333333333 586 411 614 437 c 0
 638 459.666666667 667.333333333 471 702 471 c 0
 723.333333333 471 734 464.333333333 734 451 c 0
 734 446.333333333 731.333333333 439.666666667 726 431 c 0
 709.333333333 403 701 367.333333333 701 324 c 2
 701 148 l 2
 701 99.3333333333 686.166666667 61.1666666667 656.5 33.5 c 128
 626.833333333 5.83333333333 589 -8 543 -8 c 1
 523 -5.33333333333 507 -3.66666666667 495 -3 c 0
 457.666666667 0.333333333333 425.666666667 2 399 2 c 0
 380.333333333 2 365 1 353 -1 c 0
 340.333333333 -3 329.166666667 -1.83333333333 319.5 2.5 c 128
 309.833333333 6.83333333333 305 14 305 24 c 0
 305 36.6666666667 314.833333333 51.3333333333 334.5 68 c 128
 354.166666667 84.6666666667 364 112.666666667 364 152 c 0
 364 179.333333333 360 200.833333333 352 216.5 c 128
 344 232.166666667 332.333333333 240 317 240 c 0
 307.666666667 240 297.666666667 236.666666667 287 230 c 1
 285 138 l 2
 285 90.6666666667 271 54.3333333333 243 29 c 0
 219 7 189.666666667 -4 155 -4 c 0
 133.666666667 -4 123 2.66666666667 123 16 c 0
 123 22 125.333333333 28.6666666667 130 36 c 0
 138.666666667 50 145.166666667 65.6666666667 149.5 83 c 128
 153.833333333 100.333333333 156 119.666666667 156 141 c 0
 156 161.666666667 156.5 183.333333333 157.5 206 c 128
 158.5 228.666666667 159.666666667 255.333333333 161 286 c 1
 151 398 l 1
EndSplineSet
EndChar

StartChar: u0B99_u0BC1
Encoding: 63 -1 63
Width: 838
Flags: HW
AnchorPoint: "V" 330 455 basechar 0
AnchorPoint: "N" 330 -1.94737 basechar 0
LayerCount: 2
Fore
SplineSet
726 425 m 0
 710 397.666666667 702 362 702 318 c 2
 701 -48 l 2
 701 -95.3333333333 687 -132 659 -158 c 0
 635 -180 605.666666667 -191 571 -191 c 0
 549.666666667 -191 539 -184.333333333 539 -171 c 0
 539 -164.333333333 541.833333333 -156.5 547.5 -147.5 c 128
 553.166666667 -138.5 558.666666667 -125.5 564 -108.5 c 128
 569.333333333 -91.5 572 -72.3333333333 572 -51 c 2
 572 -11 l 1
 567.333333333 -12.3333333333 562.166666667 -13 556.5 -13 c 128
 548 -13 548 -13 543 -13 c 0
 531.666666667 -12.3333333333 522.333333333 -11.6666666667 515 -11 c 0
 461 -6.33333333333 423 -4 401 -4 c 0
 382.333333333 -4 366.333333333 -5 353 -7 c 0
 341 -8.33333333333 330 -6.83333333333 320 -2.5 c 128
 310 1.83333333333 305 9 305 19 c 0
 305 25 307.333333333 31.5 312 38.5 c 128
 316.666666667 45.5 323.666666667 53.1666666667 333 61.5 c 128
 342.333333333 69.8333333333 349.833333333 81.1666666667 355.5 95.5 c 128
 361.166666667 109.833333333 364 127 364 147 c 0
 364 173.666666667 359.833333333 194.833333333 351.5 210.5 c 128
 343.166666667 226.166666667 331.666666667 234 317 234 c 0
 307.666666667 234 297.666666667 230.666666667 287 224 c 1
 285 132 l 2
 285 84.6666666667 271 48.3333333333 243 23 c 0
 219 1 189.666666667 -10 155 -10 c 0
 133.666666667 -10 123 -3.33333333333 123 10 c 0
 123 16.6666666667 125.333333333 23.3333333333 130 30 c 0
 138.666666667 44 145.166666667 59.6666666667 149.5 77 c 128
 153.833333333 94.3333333333 156 113.666666667 156 135 c 0
 156 155 156.5 176.5 157.5 199.5 c 128
 159 234 159 234 161 280 c 0
 161 297.333333333 164 314.5 170 331.5 c 128
 176 348.5 184.333333333 367 195 387 c 1
 186.333333333 389.666666667 180.333333333 391.166666667 177 391.5 c 128
 173.666666667 391.833333333 165 392 151 392 c 0
 128.333333333 392 111.833333333 384 101.5 368 c 128
 91.1666666667 352 86 323 86 281 c 0
 86 209.666666667 83.6666666667 154.833333333 79 116.5 c 128
 74.3333333333 78.1666666667 63.3333333333 43.6666666667 46 13 c 0
 36.6666666667 -3 25 -11 11 -11 c 0
 -4.33333333333 -11 -12 -3.33333333333 -12 12 c 0
 -12 20 -9.33333333333 28.3333333333 -4 37 c 0
 8.66666666667 59 16.8333333333 86 20.5 118 c 128
 24.1666666667 150 26 190.333333333 26 239 c 2
 26 300 l 2
 26 346.666666667 36.5 383.333333333 57.5 410 c 128
 78.5 436.666666667 110.333333333 450 153 450 c 0
 174.333333333 450 193 448.333333333 209 445 c 0
 247.666666667 437 270.666666667 433 278 433 c 0
 292 433 301.5 433.5 306.5 434.5 c 128
 311.5 435.5 318.5 438.833333333 327.5 444.5 c 128
 336.5 450.166666667 345.333333333 453 354 453 c 0
 369.333333333 453 377 445.333333333 377 430 c 0
 377 422.666666667 374.5 415.833333333 369.5 409.5 c 128
 364.5 403.166666667 356.333333333 397.666666667 345 393 c 0
 328.333333333 385.666666667 316 373 308 355 c 128
 300 337 294.333333333 314 291 286 c 1
 314.333333333 296.666666667 338.333333333 302 363 302 c 0
 399.666666667 302 430.5 289 455.5 263 c 128
 480.5 237 493 200 493 152 c 0
 493 132 487 112.333333333 475 93 c 0
 465.666666667 77.6666666667 452.666666667 63.3333333333 436 50 c 1
 443.333333333 48.6666666667 450.166666667 47.6666666667 456.5 47 c 128
 462.833333333 46.3333333333 470 46 478 46 c 0
 488 46 497.5 46.5 506.5 47.5 c 128
 515.5 48.5 526.833333333 52 540.5 58 c 128
 554.166666667 64 563 73.6666666667 567 87 c 128
 571 100.333333333 573 117.666666667 573 139 c 0
 573 146.333333333 572.833333333 153 572.5 159 c 128
 572.166666667 165 572 170.333333333 572 175 c 2
 572 321 l 2
 572 368.333333333 586 405 614 431 c 0
 638 453.666666667 667.333333333 465 702 465 c 0
 723.333333333 465 734 458.333333333 734 445 c 0
 734 439 731.333333333 432.333333333 726 425 c 0
EndSplineSet
EndChar

StartChar: u0B99_u0BC2
Encoding: 64 -1 64
Width: 996
Flags: HW
AnchorPoint: "V" 330 455 basechar 0
AnchorPoint: "N" 330 -1.94737 basechar 0
LayerCount: 2
Fore
SplineSet
886 4 m 0
 886 -89.3333333333 848.333333333 -155.333333333 773 -194 c 0
 704.333333333 -229.333333333 595.666666667 -247 447 -247 c 0
 327.666666667 -247 239.666666667 -235 183 -211 c 0
 137 -191.666666667 114 -164.666666667 114 -130 c 0
 114 -111.333333333 122.833333333 -95.3333333333 140.5 -82 c 128
 158.166666667 -68.6666666667 181.333333333 -62 210 -62 c 0
 223.333333333 -62 236.833333333 -63.5 250.5 -66.5 c 128
 264.166666667 -69.5 278.666666667 -74.3333333333 294 -81 c 0
 306 -85.6666666667 312 -92 312 -100 c 0
 312 -110 303 -115 285 -115 c 0
 280.333333333 -115 274.333333333 -114 267 -112 c 0
 247 -106 227.333333333 -103 208 -103 c 0
 194 -103 183.166666667 -105 175.5 -109 c 128
 167.833333333 -113 164 -119.666666667 164 -129 c 0
 164 -147.666666667 179.166666667 -162.333333333 209.5 -173 c 128
 239.833333333 -183.666666667 296.666666667 -189 380 -189 c 2
 448 -189 l 2
 538 -189 610.333333333 -174.333333333 665 -145 c 0
 726.333333333 -111.666666667 757 -63.3333333333 757 0 c 0
 757 16.6666666667 753.333333333 30.3333333333 746 41 c 128
 738.666666667 51.6666666667 728.666666667 57 716 57 c 0
 711.333333333 57 706 56 700 54 c 1
 700 29 l 2
 700 -18.3333333333 686 -55 658 -81 c 0
 634 -103 604.666666667 -114 570 -114 c 0
 548.666666667 -114 538 -107.333333333 538 -94 c 0
 538 -87.3333333333 540.333333333 -80.6666666667 545 -74 c 0
 551 -63.3333333333 555.833333333 -53.3333333333 559.5 -44 c 128
 563.166666667 -34.6666666667 566.333333333 -24.3333333333 569 -13 c 1
 563 -14.3333333333 554.333333333 -15 543 -15 c 0
 523 -12.3333333333 507 -10.6666666667 495 -10 c 0
 457.666666667 -6.66666666667 425.666666667 -5 399 -5 c 0
 380.333333333 -5 365 -6 353 -8 c 0
 341 -9.33333333333 330 -7.83333333333 320 -3.5 c 128
 310 0.833333333333 305 8 305 18 c 0
 305 24 307.333333333 30.5 312 37.5 c 128
 316.666666667 44.5 323.666666667 52.1666666667 333 60.5 c 128
 342.333333333 68.8333333333 349.833333333 80.1666666667 355.5 94.5 c 128
 361.166666667 108.833333333 364 126 364 146 c 0
 364 173.333333333 360 194.833333333 352 210.5 c 128
 344 226.166666667 332.333333333 234 317 234 c 0
 307.666666667 234 297.666666667 230.666666667 287 224 c 1
 285 131 l 2
 285 83.6666666667 271 47.3333333333 243 22 c 0
 219 0 189.666666667 -11 155 -11 c 0
 133.666666667 -11 123 -4.33333333333 123 9 c 0
 123 15.6666666667 125.333333333 22.3333333333 130 29 c 0
 138.666666667 43 145.166666667 58.6666666667 149.5 76 c 128
 153.833333333 93.3333333333 156 112.666666667 156 134 c 0
 156 154 156.5 175.5 157.5 198.5 c 128
 159 233 159 233 161 279 c 0
 161 297.666666667 164.333333333 316.666666667 171 336 c 0
 175.666666667 348.666666667 183.666666667 365.666666667 195 387 c 1
 186.333333333 389.666666667 180.333333333 391.166666667 177 391.5 c 128
 173.666666667 391.833333333 165 392 151 392 c 0
 128.333333333 392 111.833333333 384 101.5 368 c 128
 91.1666666667 352 86 322.666666667 86 280 c 0
 86 208.666666667 83.6666666667 153.833333333 79 115.5 c 128
 74.3333333333 77.1666666667 63.3333333333 42.6666666667 46 12 c 0
 41.3333333333 4 35.8333333333 -2.16666666667 29.5 -6.5 c 128
 23.1666666667 -10.8333333333 16.6666666667 -13 10 -13 c 0
 -4.66666666667 -13 -12 -5 -12 11 c 0
 -12 19 -9.33333333333 27.3333333333 -4 36 c 0
 8.66666666667 58 16.8333333333 85.1666666667 20.5 117.5 c 128
 24.1666666667 149.833333333 26 190.333333333 26 239 c 2
 26 300 l 2
 26 346.666666667 36.5 383.333333333 57.5 410 c 128
 78.5 436.666666667 110.333333333 450 153 450 c 0
 174.333333333 450 193 448.333333333 209 445 c 0
 247.666666667 437 270.666666667 433 278 433 c 0
 292 433 301.5 433.5 306.5 434.5 c 128
 311.5 435.5 318.5 438.833333333 327.5 444.5 c 128
 336.5 450.166666667 345.333333333 453 354 453 c 0
 369.333333333 453 377 445.333333333 377 430 c 0
 377 422.666666667 374.5 415.833333333 369.5 409.5 c 128
 364.5 403.166666667 356.333333333 397.666666667 345 393 c 0
 328.333333333 385 316 372.333333333 308 355 c 128
 300 337.666666667 294.333333333 314.666666667 291 286 c 1
 314.333333333 296.666666667 338.333333333 302 363 302 c 0
 400.333333333 302 430.666666667 289.666666667 454 265 c 0
 480 237.666666667 493 199.666666667 493 151 c 0
 493 131 487 111.333333333 475 92 c 0
 465.666666667 76.6666666667 452.666666667 62.3333333333 436 49 c 1
 443.333333333 47.6666666667 450.166666667 46.6666666667 456.5 46 c 128
 462.833333333 45.3333333333 470 45 478 45 c 0
 488 45 497.5 45.5 506.5 46.5 c 128
 515.5 47.5 526.833333333 51 540.5 57 c 128
 554.166666667 63 563 72.6666666667 567 86 c 128
 571 99.3333333333 573 116.666666667 573 138 c 0
 573 145.333333333 572.833333333 152 572.5 158 c 128
 572.166666667 164 572 169.333333333 572 174 c 2
 572 321 l 2
 572 368.333333333 586 405 614 431 c 0
 638 453.666666667 667.333333333 465 702 465 c 0
 723.333333333 465 734 458.333333333 734 445 c 0
 734 439 731.333333333 432.333333333 726 425 c 0
 710 397.666666667 702 362 702 318 c 2
 700 121 l 1
 716 127.666666667 735 131 757 131 c 0
 792.333333333 131 821.666666667 121.333333333 845 102 c 0
 872.333333333 79.3333333333 886 46.6666666667 886 4 c 0
EndSplineSet
EndChar

StartChar: u0B99_u0BCD
Encoding: 65 -1 65
Width: 838
Flags: HW
AnchorPoint: "N" 330 -1.94737 basechar 0
LayerCount: 2
Fore
SplineSet
402 579 m 256
 402 558.333333333 395.166666667 541.5 381.5 528.5 c 128
 367.833333333 515.5 350.666666667 509 330 509 c 0
 310 509 293 515.666666667 279 529 c 128
 265 542.333333333 258 559 258 579 c 256
 258 599 264.833333333 615.833333333 278.5 629.5 c 128
 292.166666667 643.166666667 309.333333333 650 330 650 c 0
 350 650 367 643.333333333 381 630 c 128
 395 616.666666667 402 599.666666667 402 579 c 256
726 431 m 0
 709.333333333 401.666666667 701 366 701 324 c 2
 701 148 l 2
 701 99.3333333333 686.166666667 61.1666666667 656.5 33.5 c 128
 626.833333333 5.83333333333 589 -8 543 -8 c 1
 523 -5.33333333333 507 -3.66666666667 495 -3 c 0
 457.666666667 0.333333333333 425.666666667 2 399 2 c 0
 380.333333333 2 365 1 353 -1 c 0
 340.333333333 -3 329.166666667 -1.83333333333 319.5 2.5 c 128
 309.833333333 6.83333333333 305 14 305 24 c 0
 305 36.6666666667 314.666666667 51.3333333333 334 68 c 0
 342.666666667 74.6666666667 349.833333333 85.5 355.5 100.5 c 128
 361.166666667 115.5 364 132.666666667 364 152 c 0
 364 179.333333333 360 200.833333333 352 216.5 c 128
 344 232.166666667 332.333333333 240 317 240 c 0
 307.666666667 240 297.666666667 236.666666667 287 230 c 1
 285 138 l 2
 285 90.6666666667 271 54.3333333333 243 29 c 0
 219 7 189.666666667 -4 155 -4 c 0
 133.666666667 -4 123 2.66666666667 123 16 c 0
 123 22 125.333333333 28.6666666667 130 36 c 0
 138.666666667 50 145.166666667 65.6666666667 149.5 83 c 128
 153.833333333 100.333333333 156 119.333333333 156 140 c 0
 156 160 156.5 181.5 157.5 204.5 c 128
 159 239 159 239 161 285 c 0
 161 303.666666667 164.333333333 322.666666667 171 342 c 0
 175.666666667 354.666666667 183.666666667 371.666666667 195 393 c 1
 186.333333333 395.666666667 180.333333333 397.166666667 177 397.5 c 128
 173.666666667 397.833333333 165 398 151 398 c 0
 128.333333333 398 111.833333333 389.666666667 101.5 373 c 128
 91.1666666667 356.333333333 86 327.333333333 86 286 c 0
 86 214.666666667 83.6666666667 159.833333333 79 121.5 c 128
 74.3333333333 83.1666666667 63.3333333333 48.6666666667 46 18 c 0
 36.6666666667 2 25 -6 11 -6 c 0
 -4.33333333333 -6 -12 1.66666666667 -12 17 c 0
 -12 25.6666666667 -9.33333333333 34 -4 42 c 0
 8.66666666667 64.6666666667 16.8333333333 92 20.5 124 c 128
 24.1666666667 156 26 196 26 244 c 2
 26 305 l 2
 26 351 36.5 387.666666667 57.5 415 c 128
 78.5 442.333333333 110.333333333 456 153 456 c 0
 175.666666667 456 198.666666667 453 222 447 c 128
 245.333333333 441 264 438 278 438 c 256
 292 438 301.5 438.5 306.5 439.5 c 128
 311.5 440.5 318.5 443.833333333 327.5 449.5 c 128
 336.5 455.166666667 345.333333333 458 354 458 c 0
 369.333333333 458 377 450.666666667 377 436 c 0
 377 428.666666667 374.5 421.833333333 369.5 415.5 c 128
 364.5 409.166666667 356.333333333 403.666666667 345 399 c 0
 328.333333333 391.666666667 316 378.833333333 308 360.5 c 128
 300 342.166666667 294.333333333 319.333333333 291 292 c 1
 314.333333333 302.666666667 338.333333333 308 363 308 c 0
 400.333333333 308 430.666666667 295.666666667 454 271 c 0
 480 243.666666667 493 205.666666667 493 157 c 0
 493 137 487 117.333333333 475 98 c 0
 465.666666667 82.6666666667 452.666666667 68.3333333333 436 55 c 1
 449.333333333 53 461.666666667 52 473 52 c 0
 485 52 496.333333333 53 507 55 c 128
 517.666666667 57 529.666666667 60.8333333333 543 66.5 c 128
 556.333333333 72.1666666667 565 88 569 114 c 0
 571 127.333333333 572 149.333333333 572 180 c 2
 572 327 l 2
 572 373.666666667 586 410 614 436 c 0
 638 458.666666667 667.333333333 470 702 470 c 0
 723.333333333 470 734 463.666666667 734 451 c 0
 734 445 731.333333333 438.333333333 726 431 c 0
EndSplineSet
EndChar

StartChar: u0B99_u0BCD.alt
Encoding: 66 -1 66
Width: 693
Flags: HW
AnchorPoint: "N" 330 -1.94737 basechar 0
LayerCount: 2
Fore
SplineSet
408 583 m 0
 408 553.666666667 397.833333333 528.833333333 377.5 508.5 c 128
 357.166666667 488.166666667 332.666666667 478 304 478 c 0
 274.666666667 478 249.833333333 488.166666667 229.5 508.5 c 128
 209.166666667 528.833333333 199 553.666666667 199 583 c 0
 199 611 209.333333333 635.333333333 230 656 c 128
 250.666666667 676.666666667 275.333333333 687 304 687 c 256
 332.666666667 687 357.166666667 676.833333333 377.5 656.5 c 128
 397.833333333 636.166666667 408 611.666666667 408 583 c 0
597 -3 m 1
 142 -3 l 1
 142 44 l 1
 261 44 l 1
 284.333333333 53.3333333333 301.833333333 69.3333333333 313.5 92 c 128
 325.166666667 114.666666667 331 140 331 168 c 0
 331 190 325 207.666666667 313 221 c 128
 301 234.333333333 287.333333333 241 272 241 c 0
 251.333333333 241 238.333333333 230.333333333 233 209 c 1
 233 123 l 1
 142 123 l 1
 142 399 l 1
 49 399 l 1
 49 -3 l 1
 -3 -3 l 1
 -3 452 l 1
 330 452 l 1
 330 399 l 1
 233 399 l 1
 233 286 l 1
 249.666666667 297.333333333 268.333333333 303 289 303 c 0
 321.666666667 303 350.333333333 291.333333333 375 268 c 0
 403 241.333333333 417 206.666666667 417 164 c 0
 417 136.666666667 412.833333333 112.666666667 404.5 92 c 128
 396.166666667 71.3333333333 384.666666667 55.3333333333 370 44 c 1
 510 44 l 1
 510 452 l 1
 597 452 l 1
 597 -3 l 1
364 586 m 0
 364 601.333333333 358 615 346 627 c 128
 334 639 320 645 304 645 c 256
 288 645 274 639.333333333 262 628 c 128
 250 616.666666667 244 602.666666667 244 586 c 256
 244 569.333333333 249.833333333 555.166666667 261.5 543.5 c 128
 273.166666667 531.833333333 287.333333333 526 304 526 c 0
 320 526 334 532 346 544 c 128
 358 556 364 570 364 586 c 0
EndSplineSet
EndChar

StartChar: u0B95_u0BB7
Encoding: 67 -1 67
Width: 1315
Flags: HW
AnchorPoint: "V" 330 455 basechar 0
AnchorPoint: "N" 330 -4 basechar 0
LayerCount: 2
Fore
SplineSet
1205 35 m 0
 1205 23 1199.66666667 12.8333333333 1189 4.5 c 128
 1178.33333333 -3.83333333333 1163.66666667 -8 1145 -8 c 0
 1139.66666667 -7.33333333333 1135.66666667 -7 1133 -7 c 2
 989 -8 l 1
 971.666666667 -43.3333333333 958.666666667 -77 950 -109 c 0
 945.333333333 -123 943 -136 943 -148 c 0
 943 -156 944 -164.5 946 -173.5 c 128
 948 -182.5 949.5 -190.333333333 950.5 -197 c 128
 951.5 -203.666666667 952 -208 952 -210 c 0
 952 -219.333333333 943.333333333 -224 926 -224 c 0
 900.666666667 -224 880.666666667 -218.333333333 866 -207 c 0
 841.333333333 -187.666666667 829 -152.666666667 829 -102 c 0
 829 -88.6666666667 833.666666667 -70 843 -46 c 0
 851 -28 856.666666667 -14.3333333333 860 -5 c 1
 839.333333333 -5 817 -4.83333333333 793 -4.5 c 128
 769 -4.16666666667 743.666666667 -4 717 -4 c 0
 695.666666667 -4 677.666666667 -4.33333333333 663 -5 c 128
 648.333333333 -5.66666666667 634.666666667 -6.33333333333 622 -7 c 0
 613.333333333 -7 605.666666667 -4 599 2 c 128
 592.333333333 8 589 15.3333333333 589 24 c 0
 589 30 591.166666667 35.5 595.5 40.5 c 128
 599.833333333 45.5 607 49 617 51 c 0
 639 56.3333333333 655 65.3333333333 665 78 c 0
 679 95.3333333333 686 121.333333333 686 156 c 0
 686 186.666666667 675.5 212.5 654.5 233.5 c 128
 633.5 254.5 612.666666667 265 592 265 c 0
 570 265 549 261.333333333 529 254 c 1
 555 243.333333333 574.833333333 228.5 588.5 209.5 c 128
 602.166666667 190.5 609 166.333333333 609 137 c 0
 609 105.666666667 599 75.6666666667 579 47 c 0
 551.666666667 8.33333333333 514 -11 466 -11 c 0
 443.333333333 -11 422 -3.33333333333 402 12 c 0
 374 33.3333333333 360 63.6666666667 360 103 c 0
 360 150.333333333 372 191 396 225 c 1
 357 226 l 1
 356 160 l 2
 356 108 341.666666667 67.1666666667 313 37.5 c 128
 284.333333333 7.83333333333 241.666666667 -7 185 -7 c 0
 124.333333333 -7 76.6666666667 3.83333333333 42 25.5 c 128
 7.33333333333 47.1666666667 -10 78 -10 118 c 0
 -10 156.666666667 -1.66666666667 188.333333333 15 213 c 128
 31.6666666667 237.666666667 59 256.333333333 97 269 c 1
 97 299 l 2
 97 344.333333333 106.666666667 379.666666667 126 405 c 0
 148 434.333333333 182.333333333 449 229 449 c 0
 249.666666667 449 267.666666667 447.333333333 283 444 c 0
 319 436 341 432 349 432 c 0
 363 432 372.5 432.5 377.5 433.5 c 128
 382.5 434.5 390 437.666666667 400 443 c 0
 408 448.333333333 416.333333333 451 425 451 c 0
 440.333333333 451 448 443.666666667 448 429 c 0
 448 421.666666667 445.5 414.833333333 440.5 408.5 c 128
 435.5 402.166666667 427.333333333 396.666666667 416 392 c 0
 395.333333333 382 380.666666667 365.333333333 372 342 c 1
 360 284 l 1
 379.333333333 284 394.5 283.333333333 405.5 282 c 128
 416.5 280.666666667 430.666666667 278.666666667 448 276 c 1
 468.666666667 290.666666667 492.5 302.166666667 519.5 310.5 c 128
 546.5 318.833333333 571.666666667 323 595 323 c 0
 660.333333333 323 713.5 307.166666667 754.5 275.5 c 128
 795.5 243.833333333 816 203 816 153 c 0
 816 119 804.333333333 86 781 54 c 1
 801 54 820.333333333 53.8333333333 839 53.5 c 128
 857.666666667 53.1666666667 873.666666667 52.3333333333 887 51 c 1
 893 59.6666666667 900.5 73.8333333333 909.5 93.5 c 128
 918.5 113.166666667 925 127.666666667 929 137 c 1
 895.666666667 161 872 186 858 212 c 0
 847.333333333 232 842 254 842 278 c 0
 842 325.333333333 854.833333333 365.666666667 880.5 399 c 128
 906.166666667 432.333333333 939.666666667 449 981 449 c 0
 1035 449 1075.33333333 437 1102 413 c 0
 1126 391.666666667 1138 361.666666667 1138 323 c 0
 1138 299 1130.33333333 269.333333333 1115 234 c 0
 1105.66666667 213.333333333 1088.33333333 179.333333333 1063 132 c 1
 1111.66666667 110.666666667 1137.33333333 99.3333333333 1140 98 c 0
 1183.33333333 76 1205 55 1205 35 c 0
1008 319 m 0
 1009.33333333 323.666666667 1010.33333333 328.166666667 1011 332.5 c 128
 1011.66666667 336.833333333 1012 342.666666667 1012 350 c 0
 1012 362 1009.33333333 371.833333333 1004 379.5 c 128
 998.666666667 387.166666667 989 391 975 391 c 0
 954.333333333 391 937 379.5 923 356.5 c 128
 909 333.5 902 306 902 274 c 0
 902 261.333333333 907.666666667 247 919 231 c 0
 928.333333333 217.666666667 940.333333333 205 955 193 c 1
 963.666666667 209 973.5 230 984.5 256 c 128
 995.5 282 1003.33333333 303 1008 319 c 0
1090 48 m 0
 1094 48 1096.5 48.6666666667 1097.5 50 c 128
 1098.5 51.3333333333 1096 53.3333333333 1090 56 c 0
 1084 59.3333333333 1074.83333333 63.5 1062.5 68.5 c 128
 1050.16666667 73.5 1040.33333333 77 1033 79 c 1
 1017 49 l 1
 1029 47.6666666667 1039.33333333 47 1048 47 c 0
 1058 47 1058 47 1068.5 47 c 128
 1075.5 47 1082.66666667 47.3333333333 1090 48 c 0
479 117 m 0
 479 156.333333333 471 184.666666667 455 202 c 1
 431.666666667 170.666666667 420 137 420 101 c 0
 420 67.6666666667 427.666666667 51 443 51 c 0
 451 51 459 58 467 72 c 128
 475 86 479 101 479 117 c 0
265 386 m 1
 257.666666667 388.666666667 252.833333333 390.166666667 250.5 390.5 c 128
 248.166666667 390.833333333 240.333333333 391 227 391 c 0
 199 391 180.166666667 382.666666667 170.5 366 c 128
 160.833333333 349.333333333 156 320.666666667 156 280 c 1
 232 284 l 1
 234 300.666666667 235.833333333 313 237.5 321 c 128
 239.166666667 329 241.333333333 336.5 244 343.5 c 128
 246.666666667 350.5 249.666666667 357.333333333 253 364 c 128
 256.333333333 370.666666667 260.333333333 378 265 386 c 1
230 227 m 1
 202 227 180 222 164 212 c 128
 148 202 136.666666667 189.666666667 130 175 c 128
 123.333333333 160.333333333 120 142.333333333 120 121 c 0
 120 94.3333333333 124.166666667 76 132.5 66 c 128
 140.833333333 56 153.666666667 51 171 51 c 0
 193.666666667 51 209.333333333 60 218 78 c 0
 224 90.6666666667 227 110 227 136 c 2
 227 163 l 1
 230 227 l 1
EndSplineSet
EndChar

StartChar: u0B95_u0BB7_u0BBF
Encoding: 68 -1 68
Width: 1379
Flags: HW
AnchorPoint: "V" 330 455 basechar 0
AnchorPoint: "N" 330 -4 basechar 0
LayerCount: 2
Fore
SplineSet
1269 498 m 0
 1269 474 1267.16666667 452.166666667 1263.5 432.5 c 128
 1259.83333333 412.833333333 1253.33333333 386.666666667 1244 354 c 0
 1244 346 1247.33333333 337.666666667 1254 329 c 128
 1260.66666667 320.333333333 1264 312.333333333 1264 305 c 0
 1264 295 1261.16666667 286.333333333 1255.5 279 c 128
 1249.83333333 271.666666667 1242 268 1232 268 c 0
 1220 268 1209 274.666666667 1199 288 c 128
 1189 301.333333333 1185 314 1187 326 c 0
 1189 337.333333333 1194.66666667 359.5 1204 392.5 c 128
 1213.33333333 425.5 1218 450.666666667 1218 468 c 0
 1218 500 1210.33333333 524.333333333 1195 541 c 0
 1177.66666667 559.666666667 1152 569 1118 569 c 0
 1085.33333333 569 1061 561.333333333 1045 546 c 128
 1029 530.666666667 1021 510.333333333 1021 485 c 0
 1021 474.333333333 1023 463.333333333 1027 452 c 1
 1064.33333333 444.666666667 1092.66666667 429.333333333 1112 406 c 0
 1129.33333333 384.666666667 1138 358.333333333 1138 327 c 0
 1138 297.666666667 1126.66666667 260 1104 214 c 0
 1092.66666667 190.666666667 1079 164.333333333 1063 135 c 1
 1123 109 1161.66666667 89.3333333333 1179 76 c 128
 1196.33333333 62.6666666667 1205 49.6666666667 1205 37 c 0
 1205 25 1199.66666667 14.8333333333 1189 6.5 c 128
 1178.33333333 -1.83333333333 1163.66666667 -6 1145 -6 c 0
 1139.66666667 -5.33333333333 1135.66666667 -5 1133 -5 c 2
 989 -6 l 1
 979 -26 971.333333333 -42.8333333333 966 -56.5 c 128
 960.666666667 -70.1666666667 955.333333333 -87.3333333333 950 -108 c 0
 945.333333333 -122 943 -135.333333333 943 -148 c 0
 943 -155.333333333 944 -163.666666667 946 -173 c 128
 948 -182.333333333 949.5 -190.333333333 950.5 -197 c 128
 951.5 -203.666666667 952 -208 952 -210 c 0
 952 -219.333333333 943.333333333 -224 926 -224 c 0
 900.666666667 -224 880.666666667 -218.333333333 866 -207 c 0
 841.333333333 -187.666666667 829 -152.333333333 829 -101 c 0
 829 -87 833.666666667 -68 843 -44 c 0
 851 -26 856.666666667 -12.3333333333 860 -3 c 1
 839.333333333 -3 817 -2.83333333333 793 -2.5 c 128
 769 -2.16666666667 743.666666667 -2 717 -2 c 0
 695.666666667 -2 677.666666667 -2.33333333333 663 -3 c 128
 648.333333333 -3.66666666667 634.666666667 -4.33333333333 622 -5 c 0
 613.333333333 -5 605.666666667 -2 599 4 c 128
 592.333333333 10 589 17.6666666667 589 27 c 0
 589 40.3333333333 599.166666667 49.5 619.5 54.5 c 128
 639.833333333 59.5 655 68.3333333333 665 81 c 0
 679 98.3333333333 686 124.666666667 686 160 c 0
 686 190.666666667 675.5 216.5 654.5 237.5 c 128
 633.5 258.5 612.666666667 269 592 269 c 0
 570 269 549 265.333333333 529 258 c 1
 555 246.666666667 574.833333333 231.666666667 588.5 213 c 128
 602.166666667 194.333333333 609 170 609 140 c 0
 609 108 599 77.6666666667 579 49 c 0
 552.333333333 10.3333333333 514.666666667 -9 466 -9 c 0
 443.333333333 -9 422 -1.33333333333 402 14 c 0
 374 35.3333333333 360 66 360 106 c 0
 360 132 362.833333333 154.666666667 368.5 174 c 128
 374.166666667 193.333333333 383.333333333 211.666666667 396 229 c 1
 357 230 l 1
 356 163 l 2
 356 111 341.666666667 70 313 40 c 128
 284.333333333 10 241.666666667 -5 185 -5 c 0
 124.333333333 -5 76.6666666667 5.83333333333 42 27.5 c 128
 7.33333333333 49.1666666667 -10 80.3333333333 -10 121 c 0
 -10 160.333333333 -1.66666666667 192.5 15 217.5 c 128
 31.6666666667 242.5 59 261 97 273 c 1
 97 303 l 2
 97 348.333333333 106.666666667 384 126 410 c 0
 148.666666667 440 183 455 229 455 c 0
 250.333333333 455 268.333333333 453.333333333 283 450 c 0
 320.333333333 441.333333333 342.333333333 437 349 437 c 0
 363 437 372.5 437.5 377.5 438.5 c 128
 382.5 439.5 389.5 442.833333333 398.5 448.5 c 128
 407.5 454.166666667 416.333333333 457 425 457 c 0
 440.333333333 457 448 449.333333333 448 434 c 0
 448 427.333333333 445.5 420.666666667 440.5 414 c 128
 435.5 407.333333333 427.333333333 401.666666667 416 397 c 0
 395.333333333 387 380.666666667 370.333333333 372 347 c 1
 360 289 l 1
 379.333333333 289 394.5 288.333333333 405.5 287 c 128
 416.5 285.666666667 430.666666667 283.666666667 448 281 c 1
 468.666666667 295.666666667 492.5 307.166666667 519.5 315.5 c 128
 546.5 323.833333333 571.666666667 328 595 328 c 0
 660.333333333 328 713.5 311.833333333 754.5 279.5 c 128
 795.5 247.166666667 816 206.333333333 816 157 c 0
 816 122.333333333 804.333333333 89 781 57 c 1
 801 57 820.333333333 56.8333333333 839 56.5 c 128
 857.666666667 56.1666666667 873.666666667 55.3333333333 887 54 c 1
 893.666666667 62.6666666667 901.333333333 76.8333333333 910 96.5 c 128
 918.666666667 116.166666667 925 130.666666667 929 140 c 1
 903 158.666666667 883 178 869 198 c 0
 851 223.333333333 842 251.666666667 842 283 c 0
 842 327 853.666666667 365.5 877 398.5 c 128
 900.333333333 431.5 931.333333333 450 970 454 c 1
 966.666666667 463.333333333 964.333333333 471.333333333 963 478 c 0
 959.666666667 492.666666667 958 508.666666667 958 526 c 0
 958 571.333333333 970.333333333 607.333333333 995 634 c 0
 1022.33333333 664 1062.66666667 679 1116 679 c 0
 1167.33333333 679 1205.66666667 662.833333333 1231 630.5 c 128
 1256.33333333 598.166666667 1269 554 1269 498 c 0
1008 324 m 0
 1009.33333333 328.666666667 1010.33333333 333.166666667 1011 337.5 c 128
 1011.66666667 341.833333333 1012 347.666666667 1012 355 c 0
 1012 367 1009.33333333 376.833333333 1004 384.5 c 128
 998.666666667 392.166666667 989 396 975 396 c 0
 954.333333333 396 937 384.333333333 923 361 c 128
 909 337.666666667 902 310 902 278 c 0
 902 265.333333333 907.666666667 251 919 235 c 0
 928.333333333 221.666666667 940.333333333 209 955 197 c 1
 968.333333333 222.333333333 980.333333333 248.333333333 991 275 c 0
 998.333333333 293.666666667 1004 310 1008 324 c 0
1090 50 m 0
 1092 50.6666666667 1094.33333333 51.6666666667 1097 53 c 1
 1096.33333333 55.6666666667 1094 57.6666666667 1090 59 c 0
 1071.33333333 68.3333333333 1052.33333333 75.6666666667 1033 81 c 1
 1017 51 l 1
 1029 49.6666666667 1039.33333333 49 1048 49 c 0
 1058 49 1058 49 1068.5 49 c 128
 1075.5 49 1082.66666667 49.3333333333 1090 50 c 0
479 120 m 0
 479 160.666666667 471 189 455 205 c 1
 431.666666667 173.666666667 420 140 420 104 c 0
 420 70.6666666667 427.666666667 54 443 54 c 0
 451 54 459 61 467 75 c 128
 475 89 479 104 479 120 c 0
265 391 m 1
 257.666666667 393.666666667 252.833333333 395.166666667 250.5 395.5 c 128
 248.166666667 395.833333333 240.333333333 396 227 396 c 0
 199 396 180.166666667 387.666666667 170.5 371 c 128
 160.833333333 354.333333333 156 325.666666667 156 285 c 1
 232 289 l 1
 234 305 235.833333333 317.333333333 237.5 326 c 128
 239.166666667 334.666666667 241.333333333 342 244 348 c 0
 248.666666667 362.666666667 255.666666667 377 265 391 c 1
230 231 m 1
 202 231 179.833333333 225.833333333 163.5 215.5 c 128
 147.166666667 205.166666667 135.833333333 192.833333333 129.5 178.5 c 128
 123.166666667 164.166666667 120 146 120 124 c 0
 120 97.3333333333 124.166666667 79 132.5 69 c 128
 140.833333333 59 153.666666667 54 171 54 c 0
 193.666666667 54 209.333333333 63 218 81 c 0
 224 93.6666666667 227 113 227 139 c 2
 227 166 l 1
 230 231 l 1
EndSplineSet
EndChar

StartChar: u0B95_u0BB7_u0BC0
Encoding: 69 -1 69
Width: 1389
Flags: HW
AnchorPoint: "V" 330 455 basechar 0
AnchorPoint: "N" 330 -4 basechar 0
LayerCount: 2
Fore
SplineSet
1279 580 m 0
 1279 557.333333333 1271 536.333333333 1255 517 c 0
 1233 490.333333333 1202 477 1162 477 c 0
 1120.66666667 477 1090 486.333333333 1070 505 c 0
 1054 520.333333333 1046 540.666666667 1046 566 c 0
 1046 574 1046.33333333 579.666666667 1047 583 c 1
 1037 577 1028.83333333 568 1022.5 556 c 128
 1016.16666667 544 1013 532.666666667 1013 522 c 0
 1013 508.666666667 1015.83333333 495.833333333 1021.5 483.5 c 128
 1027.16666667 471.166666667 1035 459 1045 447 c 1
 1077 438.333333333 1100.5 423.5 1115.5 402.5 c 128
 1130.5 381.5 1138 356.666666667 1138 328 c 0
 1138 303.333333333 1130.33333333 273.333333333 1115 238 c 0
 1105 214.666666667 1087.66666667 180.333333333 1063 135 c 1
 1123 109 1161.66666667 89.3333333333 1179 76 c 128
 1196.33333333 62.6666666667 1205 49.6666666667 1205 37 c 0
 1205 25 1199.66666667 14.8333333333 1189 6.5 c 128
 1178.33333333 -1.83333333333 1163.66666667 -6 1145 -6 c 0
 1139.66666667 -5.33333333333 1135.66666667 -5 1133 -5 c 2
 989 -6 l 1
 979 -26 971.333333333 -42.8333333333 966 -56.5 c 128
 960.666666667 -70.1666666667 955.333333333 -87.3333333333 950 -108 c 0
 945.333333333 -122 943 -135.333333333 943 -148 c 0
 943 -155.333333333 944 -163.666666667 946 -173 c 128
 948 -182.333333333 949.5 -190.333333333 950.5 -197 c 128
 951.5 -203.666666667 952 -208 952 -210 c 0
 952 -219.333333333 943.333333333 -224 926 -224 c 0
 900.666666667 -224 880.666666667 -218.333333333 866 -207 c 0
 841.333333333 -187.666666667 829 -152.333333333 829 -101 c 0
 829 -87 833.666666667 -68 843 -44 c 0
 851 -26 856.666666667 -12.3333333333 860 -3 c 1
 839.333333333 -3 817 -2.83333333333 793 -2.5 c 128
 769 -2.16666666667 743.666666667 -2 717 -2 c 0
 695.666666667 -2 677.666666667 -2.33333333333 663 -3 c 128
 648.333333333 -3.66666666667 634.666666667 -4.33333333333 622 -5 c 0
 613.333333333 -5 605.666666667 -2 599 4 c 128
 592.333333333 10 589 17.6666666667 589 27 c 0
 589 40.3333333333 599.166666667 49.5 619.5 54.5 c 128
 639.833333333 59.5 655 68.3333333333 665 81 c 0
 679 98.3333333333 686 124.666666667 686 160 c 0
 686 190.666666667 675.5 216.5 654.5 237.5 c 128
 633.5 258.5 612.666666667 269 592 269 c 0
 570 269 549 265.333333333 529 258 c 1
 555 246.666666667 574.833333333 231.666666667 588.5 213 c 128
 602.166666667 194.333333333 609 170 609 140 c 0
 609 108 599 77.6666666667 579 49 c 0
 552.333333333 10.3333333333 514.666666667 -9 466 -9 c 0
 443.333333333 -9 422 -1.33333333333 402 14 c 0
 374 35.3333333333 360 66 360 106 c 0
 360 132 362.833333333 154.666666667 368.5 174 c 128
 374.166666667 193.333333333 383.333333333 211.666666667 396 229 c 1
 357 230 l 1
 356 163 l 2
 356 111 341.666666667 70 313 40 c 128
 284.333333333 10 241.666666667 -5 185 -5 c 0
 124.333333333 -5 76.6666666667 5.83333333333 42 27.5 c 128
 7.33333333333 49.1666666667 -10 80.3333333333 -10 121 c 0
 -10 160.333333333 -1.66666666667 192.5 15 217.5 c 128
 31.6666666667 242.5 59 261 97 273 c 1
 97 303 l 2
 97 349 106.666666667 385 126 411 c 0
 148 440.333333333 182.333333333 455 229 455 c 0
 250.333333333 455 268.333333333 453.333333333 283 450 c 0
 320.333333333 441.333333333 342.333333333 437 349 437 c 0
 363 437 372.5 437.5 377.5 438.5 c 128
 382.5 439.5 389.5 442.833333333 398.5 448.5 c 128
 407.5 454.166666667 416.333333333 457 425 457 c 0
 440.333333333 457 448 449.333333333 448 434 c 0
 448 427.333333333 445.5 420.666666667 440.5 414 c 128
 435.5 407.333333333 427.333333333 401.666666667 416 397 c 0
 396 388.333333333 381.333333333 371.666666667 372 347 c 1
 360 289 l 1
 379.333333333 289 394.5 288.333333333 405.5 287 c 128
 416.5 285.666666667 430.666666667 283.666666667 448 281 c 1
 468.666666667 295.666666667 492.5 307.166666667 519.5 315.5 c 128
 546.5 323.833333333 571.666666667 328 595 328 c 0
 660.333333333 328 713.5 311.833333333 754.5 279.5 c 128
 795.5 247.166666667 816 206.333333333 816 157 c 0
 816 122.333333333 804.333333333 89 781 57 c 1
 801 57 820.333333333 56.8333333333 839 56.5 c 128
 857.666666667 56.1666666667 873.666666667 55.3333333333 887 54 c 1
 893.666666667 62.6666666667 901.333333333 76.8333333333 910 96.5 c 128
 918.666666667 116.166666667 925 130.666666667 929 140 c 1
 903 158.666666667 883 178 869 198 c 0
 851 223.333333333 842 251.666666667 842 283 c 0
 842 329.666666667 854.833333333 370 880.5 404 c 128
 906.166666667 438 939.666666667 455 981 455 c 2
 968 455 l 1
 965.333333333 459.666666667 962.166666667 469.166666667 958.5 483.5 c 128
 954.833333333 497.833333333 953 513 953 529 c 0
 953 571.666666667 968.333333333 607.333333333 999 636 c 0
 1033 667.333333333 1079.33333333 683 1138 683 c 0
 1174.66666667 683 1207.33333333 673.333333333 1236 654 c 128
 1264.66666667 634.666666667 1279 610 1279 580 c 0
1153 570 m 0
 1153 588.666666667 1144.33333333 598 1127 598 c 0
 1108.33333333 598 1099 589.333333333 1099 572 c 0
 1099 554 1107.66666667 545 1125 545 c 0
 1134.33333333 545 1141.33333333 547.333333333 1146 552 c 128
 1150.66666667 556.666666667 1153 562.666666667 1153 570 c 0
1008 324 m 0
 1009.33333333 328.666666667 1010.33333333 333.166666667 1011 337.5 c 128
 1011.66666667 341.833333333 1012 347.666666667 1012 355 c 0
 1012 367 1009.33333333 376.833333333 1004 384.5 c 128
 998.666666667 392.166666667 989 396 975 396 c 0
 954.333333333 396 937 384.333333333 923 361 c 128
 909 337.666666667 902 310 902 278 c 0
 902 266 907.5 252.333333333 918.5 237 c 128
 929.5 221.666666667 941.666666667 208.333333333 955 197 c 1
 968.333333333 222.333333333 980.333333333 248.333333333 991 275 c 0
 998.333333333 293.666666667 1004 310 1008 324 c 0
1090 50 m 0
 1092 50.6666666667 1094.33333333 51.6666666667 1097 53 c 1
 1096.33333333 55.6666666667 1094 57.6666666667 1090 59 c 0
 1071.33333333 68.3333333333 1052.33333333 75.6666666667 1033 81 c 1
 1017 51 l 1
 1029 49.6666666667 1039.33333333 49 1048 49 c 0
 1058 49 1058 49 1068.5 49 c 128
 1075.5 49 1082.66666667 49.3333333333 1090 50 c 0
479 120 m 0
 479 160 471 188.666666667 455 206 c 1
 431.666666667 173.333333333 420 139.333333333 420 104 c 0
 420 70.6666666667 427.666666667 54 443 54 c 0
 451 54 459 61 467 75 c 128
 475 89 479 104 479 120 c 0
265 391 m 1
 257.666666667 393.666666667 252.833333333 395.166666667 250.5 395.5 c 128
 248.166666667 395.833333333 240.333333333 396 227 396 c 0
 199 396 180.166666667 387.666666667 170.5 371 c 128
 160.833333333 354.333333333 156 325.666666667 156 285 c 1
 232 289 l 1
 234 305 235.833333333 317.333333333 237.5 326 c 128
 239.166666667 334.666666667 241.333333333 342 244 348 c 0
 248.666666667 362.666666667 255.666666667 377 265 391 c 1
230 231 m 1
 202 231 179.833333333 225.833333333 163.5 215.5 c 128
 147.166666667 205.166666667 135.833333333 192.833333333 129.5 178.5 c 128
 123.166666667 164.166666667 120 146 120 124 c 0
 120 97.3333333333 124.166666667 79 132.5 69 c 128
 140.833333333 59 153.666666667 54 171 54 c 0
 193.666666667 54 209.333333333 63 218 81 c 0
 224 93.6666666667 227 113 227 139 c 2
 227 166 l 1
 230 231 l 1
EndSplineSet
EndChar

StartChar: u0B95_u0BB7_u0BCD
Encoding: 70 -1 70
Width: 1315
Flags: HW
AnchorPoint: "N" 330 -4 basechar 0
LayerCount: 2
Fore
SplineSet
722 579 m 0
 722 559 715.166666667 542.166666667 701.5 528.5 c 128
 687.833333333 514.833333333 670.666666667 508 650 508 c 0
 630 508 613 514.666666667 599 528 c 128
 585 541.333333333 578 558.333333333 578 579 c 0
 578 599 584.833333333 615.833333333 598.5 629.5 c 128
 612.166666667 643.166666667 629.333333333 650 650 650 c 0
 670 650 687 643.333333333 701 630 c 128
 715 616.666666667 722 599.666666667 722 579 c 0
1205 37 m 0
 1205 25 1199.66666667 14.8333333333 1189 6.5 c 128
 1178.33333333 -1.83333333333 1163.66666667 -6 1145 -6 c 0
 1139.66666667 -5.33333333333 1135.66666667 -5 1133 -5 c 2
 989 -6 l 1
 979 -26 971.333333333 -42.8333333333 966 -56.5 c 128
 960.666666667 -70.1666666667 955.333333333 -87.3333333333 950 -108 c 0
 945.333333333 -122 943 -135.333333333 943 -148 c 0
 943 -155.333333333 944 -163.666666667 946 -173 c 128
 948 -182.333333333 949.5 -190.333333333 950.5 -197 c 128
 951.5 -203.666666667 952 -208 952 -210 c 0
 952 -219.333333333 943.333333333 -224 926 -224 c 0
 900.666666667 -224 880.666666667 -218.333333333 866 -207 c 0
 841.333333333 -187.666666667 829 -152.333333333 829 -101 c 0
 829 -87 833.666666667 -68 843 -44 c 0
 851 -26 856.666666667 -12.3333333333 860 -3 c 1
 839.333333333 -3 817 -2.83333333333 793 -2.5 c 128
 769 -2.16666666667 743.666666667 -2 717 -2 c 0
 695.666666667 -2 677.666666667 -2.33333333333 663 -3 c 128
 648.333333333 -3.66666666667 634.666666667 -4.33333333333 622 -5 c 0
 613.333333333 -5 605.666666667 -2 599 4 c 128
 592.333333333 10 589 17.6666666667 589 27 c 0
 589 40.3333333333 599 49.3333333333 619 54 c 128
 639 58.6666666667 654.333333333 67.6666666667 665 81 c 0
 679 98.3333333333 686 124.333333333 686 159 c 0
 686 189.666666667 675 216.333333333 653 239 c 0
 633.666666667 259 613.333333333 269 592 269 c 0
 570 269 549 265.333333333 529 258 c 1
 555 246.666666667 574.833333333 231.5 588.5 212.5 c 128
 602.166666667 193.5 609 169.333333333 609 140 c 0
 609 108 599 77.6666666667 579 49 c 0
 552.333333333 10.3333333333 514.666666667 -9 466 -9 c 0
 443.333333333 -9 422 -1.33333333333 402 14 c 0
 374 35.3333333333 360 65.6666666667 360 105 c 0
 360 131 362.833333333 153.666666667 368.5 173 c 128
 374.166666667 192.333333333 383.333333333 211 396 229 c 1
 357 230 l 1
 356 163 l 2
 356 111 341.666666667 70 313 40 c 128
 284.333333333 10 241.666666667 -5 185 -5 c 0
 124.333333333 -5 76.6666666667 5.83333333333 42 27.5 c 128
 7.33333333333 49.1666666667 -10 80.3333333333 -10 121 c 0
 -10 159.666666667 -1.66666666667 191.5 15 216.5 c 128
 31.6666666667 241.5 59 260.333333333 97 273 c 1
 97 303 l 2
 97 349 106.666666667 384.666666667 126 410 c 0
 148 439.333333333 182.333333333 454 229 454 c 0
 249.666666667 454 267.666666667 452.333333333 283 449 c 0
 319 441 341 437 349 437 c 0
 363 437 372.5 437.5 377.5 438.5 c 128
 382.5 439.5 389.5 442.833333333 398.5 448.5 c 128
 407.5 454.166666667 416.333333333 457 425 457 c 0
 440.333333333 457 448 449.333333333 448 434 c 0
 448 426.666666667 445.5 419.833333333 440.5 413.5 c 128
 435.5 407.166666667 427.333333333 401.666666667 416 397 c 0
 396 387.666666667 381.333333333 371 372 347 c 1
 360 288 l 1
 379.333333333 288 394.5 287.333333333 405.5 286 c 128
 416.5 284.666666667 430.666666667 282.666666667 448 280 c 1
 469.333333333 296 492.833333333 307.833333333 518.5 315.5 c 128
 544.166666667 323.166666667 569.666666667 327 595 327 c 0
 661 327 714.333333333 311 755 279 c 128
 795.666666667 247 816 206 816 156 c 0
 816 122 804.333333333 89 781 57 c 1
 801 57 820.333333333 56.8333333333 839 56.5 c 128
 857.666666667 56.1666666667 873.666666667 55.3333333333 887 54 c 1
 892.333333333 61.3333333333 898 71 904 83 c 0
 906 86.3333333333 914.333333333 105.333333333 929 140 c 1
 903 158.666666667 883 178 869 198 c 0
 851 223.333333333 842 251.333333333 842 282 c 0
 842 328.666666667 854.833333333 369 880.5 403 c 128
 906.166666667 437 939.666666667 454 981 454 c 0
 1034.33333333 454 1074.66666667 441.666666667 1102 417 c 0
 1126 395 1138 365 1138 327 c 0
 1138 297.666666667 1126.66666667 259.666666667 1104 213 c 0
 1096.66666667 198.333333333 1083 172.333333333 1063 135 c 1
 1123 109 1161.66666667 89.3333333333 1179 76 c 128
 1196.33333333 62.6666666667 1205 49.6666666667 1205 37 c 0
1008 323 m 0
 1010.66666667 335 1012 345.666666667 1012 355 c 0
 1012 367 1009.33333333 376.833333333 1004 384.5 c 128
 998.666666667 392.166666667 989 396 975 396 c 0
 954.333333333 396 937 384.333333333 923 361 c 128
 909 337.666666667 902 310 902 278 c 0
 902 265.333333333 907.666666667 251 919 235 c 0
 928.333333333 221.666666667 940.333333333 208.666666667 955 196 c 1
 963 211.333333333 972.666666667 232.5 984 259.5 c 128
 995.333333333 286.5 1003.33333333 307.666666667 1008 323 c 0
1090 50 m 0
 1092 50.6666666667 1094.33333333 51.6666666667 1097 53 c 1
 1096.33333333 55.6666666667 1094 57.6666666667 1090 59 c 0
 1086.66666667 60.3333333333 1077.66666667 64 1063 70 c 128
 1048.33333333 76 1038.33333333 79.6666666667 1033 81 c 1
 1017 51 l 1
 1029 49.6666666667 1039.33333333 49 1048 49 c 0
 1058 49 1058 49 1068.5 49 c 128
 1075.5 49 1082.66666667 49.3333333333 1090 50 c 0
479 120 m 0
 479 160.666666667 471 189 455 205 c 1
 431.666666667 173.666666667 420 140 420 104 c 0
 420 70.6666666667 427.666666667 54 443 54 c 0
 451 54 459 61 467 75 c 128
 475 89 479 104 479 120 c 0
265 391 m 1
 257.666666667 393.666666667 252.833333333 395.166666667 250.5 395.5 c 128
 248.166666667 395.833333333 240.333333333 396 227 396 c 0
 212.333333333 396 200.666666667 394.166666667 192 390.5 c 128
 183.333333333 386.833333333 176.333333333 380 171 370 c 0
 161 354.666666667 156 326 156 284 c 1
 232 288 l 1
 234 304.666666667 235.833333333 317 237.5 325 c 128
 239.166666667 333 241.333333333 340.666666667 244 348 c 128
 246.666666667 355.333333333 249.666666667 362.333333333 253 369 c 128
 256.333333333 375.666666667 260.333333333 383 265 391 c 1
230 231 m 1
 202 231 179.833333333 225.833333333 163.5 215.5 c 128
 147.166666667 205.166666667 135.833333333 192.833333333 129.5 178.5 c 128
 123.166666667 164.166666667 120 146 120 124 c 0
 120 97.3333333333 124.166666667 79 132.5 69 c 128
 140.833333333 59 153.666666667 54 171 54 c 0
 193.666666667 54 209.333333333 63 218 81 c 0
 224 93.6666666667 227 113 227 139 c 2
 227 166 l 1
 230 231 l 1
EndSplineSet
EndChar

StartChar: u0B9A
Encoding: 71 2970 71
Width: 603
Flags: HW
AnchorPoint: "V" 330 455 basechar 0
AnchorPoint: "N" 330 8.56096 basechar 0
LayerCount: 2
Fore
SplineSet
492 294 m 0
 484.666666667 268.666666667 468.666666667 251 444 241 c 0
 424 233 395 229 357 229 c 1
 356 164 l 2
 356 113.333333333 341.666666667 73.3333333333 313 44 c 128
 284.333333333 14.6666666667 241.666666667 0 185 0 c 0
 125 0 77.5 10.6666666667 42.5 32 c 128
 7.5 53.3333333333 -10 83.6666666667 -10 123 c 0
 -10 161.666666667 -1.66666666667 193 15 217 c 128
 31.6666666667 241 59 259 97 271 c 1
 97 301 l 2
 97 345.666666667 106.666666667 380.666666667 126 406 c 0
 148 434.666666667 182.333333333 449 229 449 c 0
 249.666666667 449 267.666666667 447.333333333 283 444 c 0
 319 436 341 432 349 432 c 0
 363 432 372.5 432.5 377.5 433.5 c 128
 382.5 434.5 390 437.833333333 400 443.5 c 128
 410 449.166666667 418.666666667 452 426 452 c 0
 440.666666667 452 448 444.666666667 448 430 c 0
 448 422.666666667 445.5 415.833333333 440.5 409.5 c 128
 435.5 403.166666667 427.333333333 397.666666667 416 393 c 0
 395.333333333 383 380.666666667 366.666666667 372 344 c 1
 360 287 l 1
 389.333333333 287 410 288.666666667 422 292 c 0
 440 297.333333333 451 307.666666667 455 323 c 0
 459 328.333333333 465.333333333 331 474 331 c 0
 488.666666667 331 496 324.333333333 496 311 c 0
 496 305 494.666666667 299.333333333 492 294 c 0
265 387 m 1
 257.666666667 389.666666667 252.833333333 391.166666667 250.5 391.5 c 128
 248.166666667 391.833333333 240.333333333 392 227 392 c 0
 199 392 180.333333333 383.666666667 171 367 c 0
 166.333333333 359.666666667 162.666666667 348.166666667 160 332.5 c 128
 157.333333333 316.833333333 156 300.333333333 156 283 c 1
 232 287 l 1
 232.666666667 295 234 304.5 236 315.5 c 128
 238 326.5 240.5 336.333333333 243.5 345 c 128
 246.5 353.666666667 249.5 361 252.5 367 c 128
 255.5 373 259.666666667 379.666666667 265 387 c 1
230 230 m 1
 216.666666667 230 205.333333333 229.5 196 228.5 c 128
 186.666666667 227.5 176.666666667 223.666666667 166 217 c 0
 148.666666667 206.333333333 136.666666667 192.5 130 175.5 c 128
 123.333333333 158.5 120 139 120 117 c 0
 120 95.6666666667 124.333333333 80.3333333333 133 71 c 128
 141.666666667 61.6666666667 154.333333333 57 171 57 c 0
 193.666666667 57 209.333333333 66 218 84 c 0
 224 96.6666666667 227 115.333333333 227 140 c 2
 227 167 l 1
 230 230 l 1
EndSplineSet
EndChar

StartChar: u0B9A_u0BBF
Encoding: 72 -1 72
Width: 689
Flags: HW
AnchorPoint: "V" 330 655.03 basechar 0
AnchorPoint: "N" 330 8.56096 basechar 0
LayerCount: 2
Fore
SplineSet
579 499 m 0
 579 475.666666667 577 454.166666667 573 434.5 c 128
 569 414.833333333 562.666666667 388.666666667 554 356 c 0
 554 348 557.333333333 339.666666667 564 331 c 128
 570.666666667 322.333333333 574 314.666666667 574 308 c 0
 574 298.666666667 570.666666667 290.666666667 564 284 c 128
 557.333333333 277.333333333 549 274 539 274 c 0
 526.333333333 274 515.666666667 280 507 292 c 128
 498.333333333 304 495 316 497 328 c 0
 507 374.666666667 517.333333333 421.666666667 528 469 c 1
 528 501 520.333333333 525.333333333 505 542 c 0
 487.666666667 560.666666667 462 570 428 570 c 0
 395.333333333 570 371 562.333333333 355 547 c 128
 339 531.666666667 331 511.666666667 331 487 c 0
 331 471 335.333333333 455 344 439 c 1
 358 439 368.5 439.5 375.5 440.5 c 128
 382.5 441.5 390.333333333 444.833333333 399 450.5 c 128
 407.666666667 456.166666667 416.333333333 459 425 459 c 0
 440.333333333 459 448 451.333333333 448 436 c 0
 448 429.333333333 445.5 422.666666667 440.5 416 c 128
 435.5 409.333333333 427.333333333 403.666666667 416 399 c 0
 396 390.333333333 381.333333333 374 372 350 c 1
 360 291 l 1
 384 291 399 291.333333333 405 292 c 0
 427.666666667 294.666666667 442.333333333 302.666666667 449 316 c 0
 451.666666667 320.666666667 457.333333333 323 466 323 c 0
 482 323 490 315.333333333 490 300 c 0
 490 294.666666667 488.666666667 289.333333333 486 284 c 0
 478.666666667 265.333333333 464.166666667 252.166666667 442.5 244.5 c 128
 420.833333333 236.833333333 392.333333333 233 357 233 c 1
 356 167 l 2
 356 115 341.666666667 74.1666666667 313 44.5 c 128
 284.333333333 14.8333333333 241.666666667 0 185 0 c 0
 124.333333333 0 76.6666666667 10.8333333333 42 32.5 c 128
 7.33333333333 54.1666666667 -10 85 -10 125 c 0
 -10 163.666666667 -1.66666666667 195.5 15 220.5 c 128
 31.6666666667 245.5 59 264 97 276 c 1
 97 306 l 2
 97 352 106.666666667 387.666666667 126 413 c 0
 148 442.333333333 182.333333333 457 229 457 c 0
 248.333333333 457 265.333333333 455.333333333 280 452 c 1
 272 476 268 501 268 527 c 0
 268 571.666666667 280.333333333 607.333333333 305 634 c 0
 332.333333333 664 372.666666667 679 426 679 c 0
 477.333333333 679 515.666666667 662.833333333 541 630.5 c 128
 566.333333333 598.166666667 579 554.333333333 579 499 c 0
265 393 m 1
 257.666666667 395.666666667 252.833333333 397.166666667 250.5 397.5 c 128
 248.166666667 397.833333333 240.333333333 398 227 398 c 0
 199 398 180.333333333 389.666666667 171 373 c 0
 166.333333333 365.666666667 162.666666667 354 160 338 c 128
 157.333333333 322 156 305.333333333 156 288 c 1
 232 291 l 1
 234 307.666666667 235.833333333 320 237.5 328 c 128
 239.166666667 336 241.333333333 344 244 352 c 128
 246.666666667 360 249.5 367 252.5 373 c 128
 255.5 379 259.666666667 385.666666667 265 393 c 1
230 234 m 1
 216.666666667 234 205.333333333 233.5 196 232.5 c 128
 186.666666667 231.5 176.666666667 227.666666667 166 221 c 0
 148.666666667 209.666666667 136.666666667 195.5 130 178.5 c 128
 123.333333333 161.5 120 141.666666667 120 119 c 0
 120 97 124.333333333 81.3333333333 133 72 c 128
 141.666666667 62.6666666667 154.333333333 58 171 58 c 0
 193.666666667 58 209.333333333 67 218 85 c 0
 224 97.6666666667 227 117 227 143 c 2
 227 170 l 1
 230 234 l 1
EndSplineSet
EndChar

StartChar: u0B9A_u0BC0
Encoding: 73 -1 73
Width: 669
Flags: HW
AnchorPoint: "V" 330 667.67 basechar 0
AnchorPoint: "N" 330 8.56096 basechar 0
LayerCount: 2
Fore
SplineSet
559 581 m 0
 559 558.333333333 551 537.333333333 535 518 c 0
 513 491.333333333 482 478 442 478 c 0
 400.666666667 478 370 487.333333333 350 506 c 0
 334 521.333333333 326 541.666666667 326 567 c 0
 326 575 326.333333333 580.666666667 327 584 c 1
 316.333333333 577.333333333 308 568.166666667 302 556.5 c 128
 296 544.833333333 293 533.666666667 293 523 c 0
 293 508.333333333 296.833333333 493.5 304.5 478.5 c 128
 312.166666667 463.5 322 450.666666667 334 440 c 1
 349 439 l 2
 363 439 372.5 439.5 377.5 440.5 c 128
 382.5 441.5 389.5 444.833333333 398.5 450.5 c 128
 407.5 456.166666667 416.333333333 459 425 459 c 0
 440.333333333 459 448 451.333333333 448 436 c 0
 448 429.333333333 445.5 422.666666667 440.5 416 c 128
 435.5 409.333333333 427.333333333 403.666666667 416 399 c 0
 396 390.333333333 381.333333333 374 372 350 c 1
 360 291 l 1
 390 291 410.666666667 292.666666667 422 296 c 0
 440 301.333333333 451 312 455 328 c 0
 458.333333333 333.333333333 464.666666667 336 474 336 c 0
 488.666666667 336 496 329.333333333 496 316 c 0
 496 310 494.666666667 304.333333333 492 299 c 0
 484.666666667 273 468.666666667 255 444 245 c 0
 424.666666667 237 395.666666667 233 357 233 c 1
 356 167 l 2
 356 115 341.666666667 74.1666666667 313 44.5 c 128
 284.333333333 14.8333333333 241.666666667 0 185 0 c 0
 124.333333333 0 76.6666666667 10.8333333333 42 32.5 c 128
 7.33333333333 54.1666666667 -10 85 -10 125 c 0
 -10 163.666666667 -1.66666666667 195.5 15 220.5 c 128
 31.6666666667 245.5 59 264 97 276 c 1
 97 306 l 2
 97 352 106.666666667 387.666666667 126 413 c 0
 148 442.333333333 182.333333333 457 229 457 c 2
 249 456 l 1
 238.333333333 478.666666667 233 503.333333333 233 530 c 0
 233 572 248.333333333 607.333333333 279 636 c 0
 313 667.333333333 359.333333333 683 418 683 c 0
 455.333333333 683 488.166666667 673.666666667 516.5 655 c 128
 544.833333333 636.333333333 559 611.666666667 559 581 c 0
433 571 m 0
 433 589 424.333333333 598 407 598 c 0
 388.333333333 598 379 589.666666667 379 573 c 0
 379 555 387.666666667 546 405 546 c 0
 414.333333333 546 421.333333333 548.333333333 426 553 c 128
 430.666666667 557.666666667 433 563.666666667 433 571 c 0
265 393 m 1
 257.666666667 395.666666667 252.833333333 397.166666667 250.5 397.5 c 128
 248.166666667 397.833333333 240.333333333 398 227 398 c 0
 199 398 180.333333333 389.666666667 171 373 c 0
 166.333333333 365.666666667 162.666666667 354 160 338 c 128
 157.333333333 322 156 305.333333333 156 288 c 1
 174 290 199.333333333 291 232 291 c 1
 234 307.666666667 235.833333333 320 237.5 328 c 128
 239.166666667 336 241.333333333 344 244 352 c 128
 246.666666667 360 249.5 367 252.5 373 c 128
 255.5 379 259.666666667 385.666666667 265 393 c 1
230 234 m 1
 216.666666667 234 205.333333333 233.5 196 232.5 c 128
 186.666666667 231.5 176.666666667 227.666666667 166 221 c 0
 148.666666667 209.666666667 136.666666667 195.5 130 178.5 c 128
 123.333333333 161.5 120 141.666666667 120 119 c 0
 120 97 124.333333333 81.3333333333 133 72 c 128
 141.666666667 62.6666666667 154.333333333 58 171 58 c 0
 193.666666667 58 209.333333333 67 218 85 c 0
 224 97.6666666667 227 117 227 143 c 2
 227 170 l 1
 230 234 l 1
EndSplineSet
EndChar

StartChar: u0B9A_u0BC1
Encoding: 74 -1 74
Width: 643
Flags: HW
AnchorPoint: "V" 330 455 basechar 0
AnchorPoint: "N" 330 8.56096 basechar 0
LayerCount: 2
Fore
SplineSet
532 265 m 0
 524.666666667 252.333333333 515 243.333333333 503 238 c 128
 491 232.666666667 485 228 485 224 c 2
 484 140 l 2
 484 110 477.666666667 87.6666666667 465 73 c 128
 452.333333333 58.3333333333 435.666666667 51 415 51 c 0
 397.666666667 51 389 58 389 72 c 0
 389 76 390 80.6666666667 392 86 c 0
 403.333333333 100.666666667 409 119.333333333 409 142 c 2
 409 192 l 2
 409 204 407.666666667 211.666666667 405 215 c 128
 402.333333333 218.333333333 397.333333333 220 390 220 c 0
 375.333333333 220 364 221.666666667 356 225 c 1
 356 164 l 2
 356 113.333333333 341.666666667 73.3333333333 313 44 c 128
 284.333333333 14.6666666667 241.666666667 0 185 0 c 0
 125 0 77.5 10.6666666667 42.5 32 c 128
 7.5 53.3333333333 -10 83.6666666667 -10 123 c 0
 -10 161.666666667 -1.66666666667 193 15 217 c 128
 31.6666666667 241 59 259 97 271 c 1
 97 301 l 2
 97 345.666666667 106.666666667 380.666666667 126 406 c 0
 148 434.666666667 182.333333333 449 229 449 c 0
 249.666666667 449 267.666666667 447.333333333 283 444 c 0
 319 436 341 432 349 432 c 0
 363 432 372.5 432.5 377.5 433.5 c 128
 382.5 434.5 390 437.833333333 400 443.5 c 128
 410 449.166666667 418.666666667 452 426 452 c 0
 440.666666667 452 448 444.666666667 448 430 c 0
 448 422.666666667 445.5 415.833333333 440.5 409.5 c 128
 435.5 403.166666667 427.333333333 397.666666667 416 393 c 0
 395.333333333 383 380.666666667 366.666666667 372 344 c 0
 370 336.666666667 367.833333333 327.333333333 365.5 316 c 128
 363.166666667 304.666666667 361.333333333 293.333333333 360 282 c 1
 383.333333333 274.666666667 408 271 434 271 c 0
 450 271 463.333333333 272.833333333 474 276.5 c 128
 484.666666667 280.166666667 491.666666667 286.333333333 495 295 c 0
 499 300.333333333 505 303 513 303 c 0
 520.333333333 303 526 300.666666667 530 296 c 128
 534 291.333333333 536 286.333333333 536 281 c 256
 536 275.666666667 534.666666667 270.333333333 532 265 c 0
265 387 m 1
 257.666666667 389.666666667 252.833333333 391.166666667 250.5 391.5 c 128
 248.166666667 391.833333333 240.333333333 392 227 392 c 0
 199 392 180.333333333 383.666666667 171 367 c 0
 166.333333333 359.666666667 162.666666667 348.166666667 160 332.5 c 128
 157.333333333 316.833333333 156 300.333333333 156 283 c 1
 232 287 l 1
 232.666666667 295 234 304.5 236 315.5 c 128
 238 326.5 240.5 336.333333333 243.5 345 c 128
 246.5 353.666666667 249.5 361 252.5 367 c 128
 255.5 373 259.666666667 379.666666667 265 387 c 1
230 230 m 1
 216.666666667 230 205.333333333 229.5 196 228.5 c 128
 186.666666667 227.5 176.666666667 223.666666667 166 217 c 0
 148.666666667 206.333333333 136.666666667 192.5 130 175.5 c 128
 123.333333333 158.5 120 139 120 117 c 0
 120 95.6666666667 124.333333333 80.3333333333 133 71 c 128
 141.666666667 61.6666666667 154.333333333 57 171 57 c 0
 193.666666667 57 209.333333333 66 218 84 c 0
 224 96.6666666667 227 115.333333333 227 140 c 2
 227 167 l 1
 230 230 l 1
EndSplineSet
EndChar

StartChar: u0B9A_u0BC2
Encoding: 75 -1 75
Width: 775
Flags: HW
AnchorPoint: "V" 330 455 basechar 0
AnchorPoint: "N" 330 8.56096 basechar 0
LayerCount: 2
Fore
SplineSet
665 42 m 0
 665 -11.3333333333 651.666666667 -57.6666666667 625 -97 c 0
 583.666666667 -158.333333333 513.333333333 -198.666666667 414 -218 c 0
 392.666666667 -222.666666667 369 -225 343 -225 c 0
 289.666666667 -225 244 -214.333333333 206 -193 c 128
 168 -171.666666667 149 -142 149 -104 c 0
 149 -84.6666666667 157.833333333 -68.3333333333 175.5 -55 c 128
 193.166666667 -41.6666666667 216.333333333 -35 245 -35 c 0
 271 -35 299 -41.3333333333 329 -54 c 0
 341 -59.3333333333 347 -65.6666666667 347 -73 c 0
 347 -83 338 -88 320 -88 c 0
 315.333333333 -88 309.333333333 -87 302 -85 c 0
 282 -79.6666666667 262.666666667 -77 244 -77 c 0
 229.333333333 -77 218.166666667 -79 210.5 -83 c 128
 202.833333333 -87 199 -93.6666666667 199 -103 c 0
 199 -126.333333333 210.5 -144.333333333 233.5 -157 c 128
 256.5 -169.666666667 285.666666667 -176 321 -176 c 0
 348.333333333 -176 374.333333333 -172.666666667 399 -166 c 0
 457.666666667 -150.666666667 498.666666667 -121.666666667 522 -79 c 0
 536.666666667 -52.3333333333 544 -19.3333333333 544 20 c 2
 544 42 l 2
 544 62.6666666667 539.333333333 82.5 530 101.5 c 128
 520.666666667 120.5 509 130 495 130 c 0
 493.666666667 130 490.333333333 129.333333333 485 128 c 1
 485 99.3333333333 478.666666667 78.3333333333 466 65 c 128
 453.333333333 51.6666666667 436.333333333 45 415 45 c 0
 397.666666667 45 389 52 389 66 c 0
 389 70 390 75 392 81 c 0
 403.333333333 95.6666666667 409 114.666666667 409 138 c 2
 409 188 l 2
 409 200.666666667 407.666666667 208.666666667 405 212 c 128
 402.333333333 215.333333333 397.333333333 217 390 217 c 0
 385.333333333 217 380 217.166666667 374 217.5 c 128
 368 217.833333333 362 219 356 221 c 1
 356 160 l 2
 356 108 341.666666667 67.1666666667 313 37.5 c 128
 284.333333333 7.83333333333 241.666666667 -7 185 -7 c 0
 124.333333333 -7 76.6666666667 3.83333333333 42 25.5 c 128
 7.33333333333 47.1666666667 -10 78 -10 118 c 0
 -10 156.666666667 -1.66666666667 188.333333333 15 213 c 128
 31.6666666667 237.666666667 59 256.333333333 97 269 c 1
 97 299 l 2
 97 344.333333333 106.666666667 379.666666667 126 405 c 0
 148 434.333333333 182.333333333 449 229 449 c 0
 249.666666667 449 267.666666667 447.333333333 283 444 c 0
 319 436 341 432 349 432 c 0
 363 432 372.5 432.5 377.5 433.5 c 128
 382.5 434.5 390 437.666666667 400 443 c 0
 408 448.333333333 416.333333333 451 425 451 c 0
 440.333333333 451 448 443.666666667 448 429 c 0
 448 421.666666667 445.5 414.833333333 440.5 408.5 c 128
 435.5 402.166666667 427.333333333 396.666666667 416 392 c 0
 395.333333333 382 380.666666667 365.333333333 372 342 c 0
 367.333333333 328 363.333333333 307 360 279 c 1
 383.333333333 271.666666667 407.666666667 268 433 268 c 0
 449.666666667 268 463.333333333 269.833333333 474 273.5 c 128
 484.666666667 277.166666667 491.666666667 283.666666667 495 293 c 0
 499 298.333333333 505 301 513 301 c 0
 520.333333333 301 526 298.666666667 530 294 c 128
 534 289.333333333 536 284.333333333 536 279 c 256
 536 273.666666667 534.666666667 268 532 262 c 0
 524.666666667 250 515 241 503 235 c 128
 491 229 485 224 485 220 c 2
 485 189 l 1
 501 193 501 193 505 194 c 0
 515 194 515 194 519 194 c 0
 556.333333333 194 589 181.333333333 617 156 c 0
 649 127.333333333 665 89.3333333333 665 42 c 0
265 386 m 1
 257.666666667 388.666666667 252.833333333 390.166666667 250.5 390.5 c 128
 248.166666667 390.833333333 240.333333333 391 227 391 c 0
 199 391 180.166666667 382.666666667 170.5 366 c 128
 160.833333333 349.333333333 156 320.666666667 156 280 c 1
 232 284 l 1
 234 300.666666667 235.833333333 313 237.5 321 c 128
 239.166666667 329 241.333333333 336.5 244 343.5 c 128
 246.666666667 350.5 249.666666667 357.333333333 253 364 c 128
 256.333333333 370.666666667 260.333333333 378 265 386 c 1
230 227 m 1
 202 227 180 222 164 212 c 128
 148 202 136.666666667 188.5 130 171.5 c 128
 123.333333333 154.5 120 134.666666667 120 112 c 0
 120 90 124.333333333 74.3333333333 133 65 c 128
 141.666666667 55.6666666667 154.333333333 51 171 51 c 0
 193.666666667 51 209.333333333 60 218 78 c 0
 224 90.6666666667 227 110 227 136 c 2
 227 163 l 1
 230 227 l 1
EndSplineSet
EndChar

StartChar: u0B9A_u0BCD
Encoding: 76 -1 76
Width: 603
Flags: HW
AnchorPoint: "N" 330 8.56096 basechar 0
LayerCount: 2
Fore
SplineSet
402 579 m 256
 402 558.333333333 395.166666667 541.5 381.5 528.5 c 128
 367.833333333 515.5 350.666666667 509 330 509 c 0
 310 509 293 515.666666667 279 529 c 128
 265 542.333333333 258 559 258 579 c 256
 258 599 264.833333333 615.833333333 278.5 629.5 c 128
 292.166666667 643.166666667 309.333333333 650 330 650 c 0
 350 650 367 643.333333333 381 630 c 128
 395 616.666666667 402 599.666666667 402 579 c 256
492 299 m 0
 484.666666667 273 468.666666667 255 444 245 c 0
 424.666666667 237 395.666666667 233 357 233 c 1
 356 167 l 2
 356 115 341.666666667 74.1666666667 313 44.5 c 128
 284.333333333 14.8333333333 241.666666667 0 185 0 c 0
 124.333333333 0 76.6666666667 10.8333333333 42 32.5 c 128
 7.33333333333 54.1666666667 -10 85 -10 125 c 0
 -10 163.666666667 -1.66666666667 195.333333333 15 220 c 128
 31.6666666667 244.666666667 59 263.333333333 97 276 c 1
 97 306 l 2
 97 351.333333333 106.666666667 386.666666667 126 412 c 0
 148 441.333333333 182.333333333 456 229 456 c 0
 249.666666667 456 267.666666667 454.333333333 283 451 c 0
 319 443 341 439 349 439 c 0
 355 439 362.333333333 439.166666667 371 439.5 c 128
 379.666666667 439.833333333 388.666666667 443 398 449 c 128
 407.333333333 455 416.333333333 458 425 458 c 0
 440.333333333 458 448 450.666666667 448 436 c 0
 448 428.666666667 445.5 421.833333333 440.5 415.5 c 128
 435.5 409.166666667 427.333333333 403.666666667 416 399 c 0
 395.333333333 389 380.666666667 372.333333333 372 349 c 1
 360 291 l 1
 390 291 410.666666667 292.666666667 422 296 c 0
 440 301.333333333 451 312 455 328 c 0
 459 333.333333333 465.333333333 336 474 336 c 0
 488.666666667 336 496 329.333333333 496 316 c 0
 496 310 494.666666667 304.333333333 492 299 c 0
265 393 m 1
 257.666666667 395.666666667 252.833333333 397.166666667 250.5 397.5 c 128
 248.166666667 397.833333333 240.333333333 398 227 398 c 0
 199 398 180.166666667 389.666666667 170.5 373 c 128
 160.833333333 356.333333333 156 327.666666667 156 287 c 1
 232 291 l 1
 234 307 235.833333333 319.333333333 237.5 328 c 128
 239.166666667 336.666666667 241.333333333 344.333333333 244 351 c 128
 246.666666667 357.666666667 249.666666667 364.333333333 253 371 c 128
 256.333333333 377.666666667 260.333333333 385 265 393 c 1
230 234 m 1
 202 234 180 229 164 219 c 128
 148 209 136.666666667 195.5 130 178.5 c 128
 123.333333333 161.5 120 141.333333333 120 118 c 0
 120 96.6666666667 124.333333333 81.3333333333 133 72 c 128
 141.666666667 62.6666666667 154.333333333 58 171 58 c 0
 193.666666667 58 209.333333333 67 218 85 c 0
 224 97.6666666667 227 117 227 143 c 2
 227 170 l 1
 230 234 l 1
EndSplineSet
EndChar

StartChar: u0B9C
Encoding: 77 2972 77
Width: 725
Flags: HW
AnchorPoint: "V" 330 455 basechar 0
AnchorPoint: "N" 330 -153.673 basechar 0
LayerCount: 2
Fore
SplineSet
615 -3 m 0
 615 -41.6666666667 601.666666667 -74.6666666667 575 -102 c 0
 541 -136.666666667 490 -154 422 -154 c 0
 386.666666667 -154 361 -147.166666667 345 -133.5 c 128
 329 -119.833333333 321 -103 321 -83 c 0
 321 -68.3333333333 325 -54.6666666667 333 -42 c 128
 341 -29.3333333333 350.333333333 -22 361 -20 c 1
 369 -42.6666666667 387 -54 415 -54 c 0
 437 -54 454.166666667 -48.8333333333 466.5 -38.5 c 128
 478.833333333 -28.1666666667 485 -16.3333333333 485 -3 c 0
 485 11 482 22.8333333333 476 32.5 c 128
 470 42.1666666667 459.666666667 47 445 47 c 0
 407 47 369 31 331 -1 c 0
 281 -46 281 -46 231 -91 c 1
 188.333333333 -123.666666667 144.666666667 -140 100 -140 c 0
 73.3333333333 -140 49.3333333333 -128.666666667 28 -106 c 0
 2.66666666667 -78.6666666667 -10 -41.6666666667 -10 5 c 0
 -10 43 9.33333333333 72.6666666667 48 94 c 0
 75.3333333333 109.333333333 120.666666667 123 184 135 c 0
 285.333333333 154.333333333 337.333333333 164.333333333 340 165 c 0
 382.666666667 176.333333333 415.333333333 193 438 215 c 0
 464.666666667 241 478 274 478 314 c 0
 478 342 475.333333333 362 470 374 c 128
 464.666666667 386 454.666666667 392 440 392 c 0
 423.333333333 392 410 386 400 374 c 0
 392.666666667 365.333333333 387.333333333 354 384 340 c 1
 388 328 390 317.333333333 390 308 c 2
 390 274 l 2
 390 250 381.5 229.166666667 364.5 211.5 c 128
 347.5 193.833333333 324.666666667 185 296 185 c 0
 285.333333333 185 277.333333333 185.333333333 272 186 c 128
 266.666666667 186.666666667 258.333333333 189 247 193 c 1
 257 207.666666667 263.333333333 220.5 266 231.5 c 128
 268.666666667 242.5 270 258 270 278 c 2
 270 317 l 2
 270 342.333333333 264.166666667 361.166666667 252.5 373.5 c 128
 240.833333333 385.833333333 225 392 205 392 c 0
 182.333333333 392 162 389 144 383 c 1
 196 375.666666667 222 343 222 285 c 0
 222 250.333333333 209 224 183 206 c 0
 161.666666667 191.333333333 135 184 103 184 c 0
 69.6666666667 184 45 191.666666667 29 207 c 128
 13 222.333333333 5 248.666666667 5 286 c 0
 5 336.666666667 23.6666666667 376.666666667 61 406 c 128
 98.3333333333 435.333333333 147 450 207 450 c 0
 238.333333333 450 265.5 445.333333333 288.5 436 c 128
 311.5 426.666666667 331 414 347 398 c 1
 357 412.666666667 371.166666667 425 389.5 435 c 128
 407.833333333 445 429.666666667 450 455 450 c 0
 557 450 608 403.333333333 608 310 c 0
 608 261.333333333 581.666666667 220 529 186 c 0
 489.666666667 160.666666667 438.166666667 140.333333333 374.5 125 c 128
 310.833333333 109.666666667 248.666666667 95 188 81 c 1
 141.333333333 64.3333333333 118 35.6666666667 118 -5 c 0
 118 -14.3333333333 121 -22.3333333333 127 -29 c 128
 133 -35.6666666667 141.666666667 -39 153 -39 c 0
 161.666666667 -39 217 -6.33333333333 319 59 c 0
 367 89.6666666667 410.333333333 105 449 105 c 0
 497 105 534.666666667 98 562 84 c 0
 597.333333333 66 615 37 615 -3 c 0
107 297 m 0
 107 306.333333333 105.333333333 314.166666667 102 320.5 c 128
 98.6666666667 326.833333333 93.3333333333 330 86 330 c 0
 79.3333333333 330 74.1666666667 326.166666667 70.5 318.5 c 128
 66.8333333333 310.833333333 65 301.333333333 65 290 c 0
 65 274.666666667 66 262.833333333 68 254.5 c 128
 70 246.166666667 75.3333333333 242 84 242 c 0
 94.6666666667 242 101.166666667 246.5 103.5 255.5 c 128
 105.833333333 264.5 107 278.333333333 107 297 c 0
EndSplineSet
EndChar

StartChar: u0B9C_u0BBF
Encoding: 78 -1 78
Width: 829
Flags: HW
AnchorPoint: "V" 330 455 basechar 0
AnchorPoint: "N" 330 -153.673 basechar 0
LayerCount: 2
Fore
SplineSet
719 498 m 0
 719 474 717.166666667 452.666666667 713.5 434 c 128
 709.833333333 415.333333333 703.333333333 389 694 355 c 0
 694 347 697.333333333 338.666666667 704 330 c 128
 710.666666667 321.333333333 714 313.333333333 714 306 c 0
 714 296.666666667 710.666666667 288.666666667 704 282 c 128
 697.333333333 275.333333333 689 272 679 272 c 0
 666.333333333 272 655.666666667 278 647 290 c 128
 638.333333333 302 635 314 637 326 c 0
 639 337.333333333 644.666666667 359.5 654 392.5 c 128
 663.333333333 425.5 668 450.666666667 668 468 c 0
 668 500.666666667 660 525.833333333 644 543.5 c 128
 628 561.166666667 602.666666667 570 568 570 c 0
 535.333333333 570 511 562.333333333 495 547 c 128
 479 531.666666667 471 511.333333333 471 486 c 0
 471 475.333333333 472.666666667 465 476 455 c 1
 517.333333333 455 549.666666667 442.333333333 573 417 c 128
 596.333333333 391.666666667 608 357.333333333 608 314 c 0
 608 265.333333333 581.666666667 223.666666667 529 189 c 0
 490.333333333 163.666666667 437.333333333 142.666666667 370 126 c 0
 309.333333333 111.333333333 248.666666667 97 188 83 c 1
 141.333333333 65.6666666667 118 36.6666666667 118 -4 c 0
 118 -13.3333333333 121 -21.3333333333 127 -28 c 128
 133 -34.6666666667 141.666666667 -38 153 -38 c 0
 161 -38 216.333333333 -4.66666666667 319 62 c 0
 366.333333333 92.6666666667 409.666666667 108 449 108 c 0
 496.333333333 108 534 100.666666667 562 86 c 0
 597.333333333 67.3333333333 615 38 615 -2 c 0
 615 -40.6666666667 601.666666667 -73.6666666667 575 -101 c 0
 540.333333333 -136.333333333 489.333333333 -154 422 -154 c 0
 387.333333333 -154 361 -146.333333333 343 -131 c 0
 328.333333333 -118.333333333 321 -102 321 -82 c 0
 321 -67.3333333333 325 -53.6666666667 333 -41 c 128
 341 -28.3333333333 350.333333333 -21 361 -19 c 1
 369 -41.6666666667 387 -53 415 -53 c 0
 437 -53 454.166666667 -47.8333333333 466.5 -37.5 c 128
 478.833333333 -27.1666666667 485 -15.3333333333 485 -2 c 0
 485 12.6666666667 482 24.8333333333 476 34.5 c 128
 470 44.1666666667 459.666666667 49 445 49 c 0
 407.666666667 49 369.666666667 32.6666666667 331 0 c 0
 297.666666667 -30 264.333333333 -60.3333333333 231 -91 c 1
 189 -123.666666667 145.333333333 -140 100 -140 c 0
 72.6666666667 -140 48.6666666667 -128.666666667 28 -106 c 0
 2.66666666667 -78.6666666667 -10 -41.3333333333 -10 6 c 0
 -10 44.6666666667 9.33333333333 74.6666666667 48 96 c 0
 76.6666666667 112 119.5 125.5 176.5 136.5 c 128
 233.5 147.5 288 158 340 168 c 0
 382 178.666666667 414.666666667 195.666666667 438 219 c 0
 464.666666667 245 478 278 478 318 c 0
 478 345.333333333 475.333333333 365.333333333 470 378 c 128
 464.666666667 390.666666667 454.666666667 397 440 397 c 0
 423.333333333 397 410 391 400 379 c 0
 392.666666667 370.333333333 387.333333333 358.666666667 384 344 c 1
 388 332 390 321.333333333 390 312 c 2
 390 278 l 2
 390 254 381.666666667 233 365 215 c 128
 348.333333333 197 325.666666667 188 297 188 c 0
 281.666666667 188 265 191 247 197 c 1
 257.666666667 211.666666667 264.166666667 224.333333333 266.5 235 c 128
 268.833333333 245.666666667 270 261.333333333 270 282 c 2
 270 322 l 2
 270 346.666666667 264.166666667 365.333333333 252.5 378 c 128
 240.833333333 390.666666667 225 397 205 397 c 0
 182.333333333 397 162 394 144 388 c 1
 168 384.666666667 187 374.333333333 201 357 c 128
 215 339.666666667 222 317 222 289 c 0
 222 253.666666667 209 227 183 209 c 0
 161.666666667 194.333333333 135 187 103 187 c 0
 69.6666666667 187 45 194.666666667 29 210 c 128
 13 225.333333333 5 252 5 290 c 0
 5 340.666666667 23.8333333333 380.833333333 61.5 410.5 c 128
 99.1666666667 440.166666667 147.666666667 455 207 455 c 0
 237.666666667 455 264.666666667 450.333333333 288 441 c 128
 311.333333333 431.666666667 331 419.333333333 347 404 c 1
 353.666666667 414 363.5 423.666666667 376.5 433 c 128
 389.5 442.333333333 404 449 420 453 c 1
 412 474.333333333 408 499 408 527 c 0
 408 571.666666667 420.333333333 607.333333333 445 634 c 0
 472.333333333 664 512.666666667 679 566 679 c 0
 617.333333333 679 655.666666667 662.833333333 681 630.5 c 128
 706.333333333 598.166666667 719 554 719 498 c 0
107 301 m 0
 107 310.333333333 105.333333333 318.166666667 102 324.5 c 128
 98.6666666667 330.833333333 93.3333333333 334 86 334 c 0
 79.3333333333 334 74.1666666667 330.166666667 70.5 322.5 c 128
 66.8333333333 314.833333333 65 305.333333333 65 294 c 0
 65 278.666666667 66 266.666666667 68 258 c 128
 70 249.333333333 75.3333333333 245 84 245 c 0
 96.6666666667 245 103.666666667 250.5 105 261.5 c 128
 106.333333333 272.5 107 285.666666667 107 301 c 0
EndSplineSet
EndChar

StartChar: u0B9C_u0BC0
Encoding: 79 -1 79
Width: 838
Flags: HW
AnchorPoint: "V" 330 455 basechar 0
AnchorPoint: "N" 330 -153.673 basechar 0
LayerCount: 2
Fore
SplineSet
729 580 m 0
 729 557.333333333 721 536.333333333 705 517 c 0
 683 490.333333333 652 477 612 477 c 0
 570 477 539.333333333 486.333333333 520 505 c 0
 504 520.333333333 496 541 496 567 c 0
 496 574.333333333 496.333333333 579.666666667 497 583 c 1
 487 577 478.833333333 568 472.5 556 c 128
 466.166666667 544 463 532.666666667 463 522 c 0
 463 509.333333333 465.166666667 497.666666667 469.5 487 c 128
 473.833333333 476.333333333 480.666666667 465 490 453 c 1
 568.666666667 441.666666667 608 395.333333333 608 314 c 0
 608 265.333333333 581.666666667 223.666666667 529 189 c 0
 490.333333333 163.666666667 437.333333333 142.666666667 370 126 c 0
 309.333333333 111.333333333 248.666666667 97 188 83 c 1
 141.333333333 65.6666666667 118 36.6666666667 118 -4 c 0
 118 -13.3333333333 121 -21.3333333333 127 -28 c 128
 133 -34.6666666667 141.666666667 -38 153 -38 c 0
 161 -38 216.333333333 -4.66666666667 319 62 c 0
 366.333333333 92.6666666667 409.666666667 108 449 108 c 0
 496.333333333 108 534 100.666666667 562 86 c 0
 597.333333333 67.3333333333 615 38 615 -2 c 0
 615 -40.6666666667 601.666666667 -73.6666666667 575 -101 c 0
 540.333333333 -136.333333333 489.333333333 -154 422 -154 c 0
 387.333333333 -154 361 -146.333333333 343 -131 c 0
 328.333333333 -118.333333333 321 -102 321 -82 c 0
 321 -67.3333333333 325 -53.6666666667 333 -41 c 128
 341 -28.3333333333 350.333333333 -21 361 -19 c 1
 369 -41.6666666667 387 -53 415 -53 c 0
 437 -53 454.166666667 -47.8333333333 466.5 -37.5 c 128
 478.833333333 -27.1666666667 485 -15.3333333333 485 -2 c 0
 485 12.6666666667 482 24.8333333333 476 34.5 c 128
 470 44.1666666667 459.666666667 49 445 49 c 0
 407.666666667 49 369.666666667 32.6666666667 331 0 c 0
 297.666666667 -30 264.333333333 -60.3333333333 231 -91 c 1
 189 -123.666666667 145.333333333 -140 100 -140 c 0
 72.6666666667 -140 48.6666666667 -128.666666667 28 -106 c 0
 2.66666666667 -78.6666666667 -10 -41.3333333333 -10 6 c 0
 -10 44.6666666667 9.33333333333 74.6666666667 48 96 c 0
 76.6666666667 112 119.5 125.5 176.5 136.5 c 128
 233.5 147.5 288 158 340 168 c 0
 382 178.666666667 414.666666667 195.666666667 438 219 c 0
 464.666666667 245 478 278 478 318 c 0
 478 346 475.5 366.166666667 470.5 378.5 c 128
 465.5 390.833333333 455.333333333 397 440 397 c 0
 423.333333333 397 410 391 400 379 c 0
 392.666666667 370.333333333 387.333333333 358.666666667 384 344 c 1
 388 332 390 321.333333333 390 312 c 2
 390 278 l 2
 390 254 381.666666667 233 365 215 c 128
 348.333333333 197 325.666666667 188 297 188 c 0
 281.666666667 188 265 191 247 197 c 1
 257.666666667 211.666666667 264.166666667 224.333333333 266.5 235 c 128
 268.833333333 245.666666667 270 261.333333333 270 282 c 2
 270 322 l 2
 270 346.666666667 264.166666667 365.333333333 252.5 378 c 128
 240.833333333 390.666666667 225 397 205 397 c 0
 182.333333333 397 162 394 144 388 c 1
 168 384.666666667 187 374.333333333 201 357 c 128
 215 339.666666667 222 317 222 289 c 0
 222 253.666666667 209 227 183 209 c 0
 161.666666667 194.333333333 135 187 103 187 c 0
 69.6666666667 187 45 194.666666667 29 210 c 128
 13 225.333333333 5 252 5 290 c 0
 5 340.666666667 23.8333333333 380.833333333 61.5 410.5 c 128
 99.1666666667 440.166666667 147.666666667 455 207 455 c 0
 238.333333333 455 265.5 450.333333333 288.5 441 c 128
 311.5 431.666666667 331 419 347 403 c 1
 354.333333333 414.333333333 364.166666667 424.333333333 376.5 433 c 128
 388.833333333 441.666666667 403.666666667 448 421 452 c 1
 409 474.666666667 403 500.666666667 403 530 c 0
 403 572 418.333333333 607.333333333 449 636 c 0
 483 667.333333333 529.333333333 683 588 683 c 0
 624.666666667 683 657.333333333 673.333333333 686 654 c 128
 714.666666667 634.666666667 729 610 729 580 c 0
603 571 m 0
 603 589 594.333333333 598 577 598 c 0
 571 598 564.833333333 596.166666667 558.5 592.5 c 128
 552.166666667 588.833333333 549 582.333333333 549 573 c 0
 549 554.333333333 557.666666667 545 575 545 c 0
 593.666666667 545 603 553.666666667 603 571 c 0
107 301 m 0
 107 310.333333333 105.333333333 318.166666667 102 324.5 c 128
 98.6666666667 330.833333333 93.3333333333 334 86 334 c 0
 79.3333333333 334 74.1666666667 330.166666667 70.5 322.5 c 128
 66.8333333333 314.833333333 65 305.333333333 65 294 c 0
 65 278.666666667 66 266.666666667 68 258 c 128
 70 249.333333333 75.3333333333 245 84 245 c 0
 96.6666666667 245 103.666666667 250.5 105 261.5 c 128
 106.333333333 272.5 107 285.666666667 107 301 c 0
EndSplineSet
EndChar

StartChar: u0B9C_u0BCD
Encoding: 80 -1 80
Width: 725
Flags: HW
AnchorPoint: "N" 330 -153.673 basechar 0
LayerCount: 2
Fore
SplineSet
402 579 m 256
 402 558.333333333 395.166666667 541.5 381.5 528.5 c 128
 367.833333333 515.5 350.666666667 509 330 509 c 0
 310 509 293 515.666666667 279 529 c 128
 265 542.333333333 258 559 258 579 c 256
 258 599 264.833333333 615.833333333 278.5 629.5 c 128
 292.166666667 643.166666667 309.333333333 650 330 650 c 0
 350 650 367 643.333333333 381 630 c 128
 395 616.666666667 402 599.666666667 402 579 c 256
615 -2 m 0
 615 -40.6666666667 601.666666667 -73.6666666667 575 -101 c 0
 540.333333333 -136.333333333 489.333333333 -154 422 -154 c 0
 387.333333333 -154 361 -146.333333333 343 -131 c 0
 328.333333333 -118.333333333 321 -102 321 -82 c 0
 321 -67.3333333333 325 -53.6666666667 333 -41 c 128
 341 -28.3333333333 350.333333333 -21 361 -19 c 1
 369.666666667 -42.3333333333 387.666666667 -54 415 -54 c 0
 437 -54 454.166666667 -48.8333333333 466.5 -38.5 c 128
 478.833333333 -28.1666666667 485 -16 485 -2 c 0
 485 12.6666666667 482 24.8333333333 476 34.5 c 128
 470 44.1666666667 459.666666667 49 445 49 c 0
 407.666666667 49 369.666666667 32.6666666667 331 0 c 0
 297.666666667 -30 264.333333333 -60.3333333333 231 -91 c 1
 189 -123.666666667 145.333333333 -140 100 -140 c 0
 72.6666666667 -140 48.6666666667 -128.666666667 28 -106 c 0
 2.66666666667 -78.6666666667 -10 -41.3333333333 -10 6 c 0
 -10 44.6666666667 9.33333333333 74.6666666667 48 96 c 0
 76.6666666667 112 119.5 125.5 176.5 136.5 c 128
 233.5 147.5 288 158 340 168 c 1
 382.666666667 179.333333333 415.333333333 196 438 218 c 0
 464.666666667 244 478 277 478 317 c 0
 478 345 475.5 365.166666667 470.5 377.5 c 128
 465.5 389.833333333 455.333333333 396 440 396 c 0
 423.333333333 396 410 390 400 378 c 0
 392.666666667 369.333333333 387.333333333 358 384 344 c 1
 388 332 390 321 390 311 c 2
 390 277 l 2
 390 253 381.666666667 232 365 214 c 128
 348.333333333 196 325.333333333 187 296 187 c 0
 281.333333333 187 265 190 247 196 c 1
 257.666666667 211.333333333 264.166666667 224.333333333 266.5 235 c 128
 268.833333333 245.666666667 270 261 270 281 c 2
 270 321 l 2
 270 346.333333333 264.166666667 365.166666667 252.5 377.5 c 128
 240.833333333 389.833333333 225 396 205 396 c 0
 183.666666667 396 163.333333333 393.333333333 144 388 c 1
 168 384.666666667 187 374.333333333 201 357 c 128
 215 339.666666667 222 317 222 289 c 0
 222 253.666666667 209 227 183 209 c 0
 161.666666667 194.333333333 135 187 103 187 c 0
 69.6666666667 187 45 194.666666667 29 210 c 128
 13 225.333333333 5 252 5 290 c 0
 5 340.666666667 23.6666666667 380.833333333 61 410.5 c 128
 98.3333333333 440.166666667 147 455 207 455 c 0
 239 455 266.166666667 450.333333333 288.5 441 c 128
 310.833333333 431.666666667 330.333333333 418.666666667 347 402 c 1
 356.333333333 417.333333333 370.166666667 430 388.5 440 c 128
 406.833333333 450 429 455 455 455 c 0
 557 455 608 407.666666667 608 313 c 0
 608 265 581.666666667 223.666666667 529 189 c 0
 488.333333333 162.333333333 436.5 141.5 373.5 126.5 c 128
 310.5 111.5 248.666666667 97 188 83 c 1
 141.333333333 65.6666666667 118 36.6666666667 118 -4 c 0
 118 -13.3333333333 121 -21.3333333333 127 -28 c 128
 133 -34.6666666667 141.666666667 -38 153 -38 c 0
 163 -38 218.333333333 -5.33333333333 319 60 c 0
 367.666666667 91.3333333333 411 107 449 107 c 0
 497 107 534.666666667 100 562 86 c 0
 597.333333333 68 615 38.6666666667 615 -2 c 0
107 301 m 0
 107 310.333333333 105.333333333 318.166666667 102 324.5 c 128
 98.6666666667 330.833333333 93.3333333333 334 86 334 c 0
 79.3333333333 334 74.1666666667 330.166666667 70.5 322.5 c 128
 66.8333333333 314.833333333 65 305.333333333 65 294 c 0
 65 272.666666667 66.1666666667 259.166666667 68.5 253.5 c 128
 70.8333333333 247.833333333 76 245 84 245 c 0
 94.6666666667 245 101.166666667 249.5 103.5 258.5 c 128
 105.833333333 267.5 107 281.666666667 107 301 c 0
EndSplineSet
EndChar

StartChar: u0B9E
Encoding: 81 2974 81
Width: 904
Flags: HW
AnchorPoint: "V" 420 455 basechar 0
AnchorPoint: "N" 420 -205 basechar 0
LayerCount: 2
Fore
SplineSet
794 131 m 0
 794 15 756.666666667 -71 682 -127 c 0
 612 -179 510.333333333 -205 377 -205 c 0
 263.666666667 -205 171.333333333 -175.666666667 100 -117 c 0
 26.6666666667 -56.3333333333 -10 23.3333333333 -10 122 c 0
 -10 161.333333333 -6.16666666667 198.5 1.5 233.5 c 128
 9.16666666667 268.5 19.3333333333 295.333333333 32 314 c 0
 39.3333333333 325.333333333 48.6666666667 331 60 331 c 0
 77.3333333333 331 86 322.333333333 86 305 c 0
 86 296.333333333 83.3333333333 288 78 280 c 0
 69.3333333333 266.666666667 62.5 247.333333333 57.5 222 c 128
 52.5 196.666666667 50 162.333333333 50 119 c 0
 50 37 85.3333333333 -28.3333333333 156 -77 c 0
 218.666666667 -120.333333333 292 -142 376 -142 c 0
 470.666666667 -142 544 -114 596 -58 c 0
 642 -8.66666666667 665 52.6666666667 665 126 c 0
 665 158 661.666666667 183.333333333 655 202 c 128
 648.333333333 220.666666667 637.333333333 230 622 230 c 0
 614 230 605.666666667 227.333333333 597 222 c 1
 595 131 l 2
 595 83.6666666667 581 47.3333333333 553 22 c 0
 529.666666667 0.666666666667 500.333333333 -10 465 -10 c 0
 443.666666667 -10 433 -3.33333333333 433 10 c 0
 433 16 435.333333333 22.6666666667 440 30 c 0
 448.666666667 44 455.166666667 59.6666666667 459.5 77 c 128
 463.833333333 94.3333333333 466 113.333333333 466 134 c 0
 466 154 466.5 175.5 467.5 198.5 c 128
 469 233 469 233 471 279 c 0
 471 296.333333333 473.5 314 478.5 332 c 128
 483.5 350 490.333333333 367.333333333 499 384 c 1
 475.666666667 388.666666667 447.333333333 391 414 391 c 0
 367.333333333 391 326.333333333 380.833333333 291 360.5 c 128
 255.666666667 340.166666667 229.666666667 313.666666667 213 281 c 1
 229.666666667 288.333333333 246 292 262 292 c 0
 298.666666667 292 328.333333333 282.333333333 351 263 c 0
 377 240.333333333 390 207.666666667 390 165 c 0
 390 111 381 70.6666666667 363 44 c 0
 340.333333333 10.6666666667 303 -6 251 -6 c 0
 209.666666667 -6 179.166666667 8.66666666667 159.5 38 c 128
 139.833333333 67.3333333333 130 110.666666667 130 168 c 0
 130 252.666666667 154 320 202 370 c 0
 252.666666667 422.666666667 324 449 416 449 c 0
 450 449 480.333333333 446.833333333 507 442.5 c 128
 533.666666667 438.166666667 560.666666667 433.666666667 588 429 c 1
 604 429 621 433.666666667 639 443 c 0
 647 448.333333333 655.333333333 451 664 451 c 0
 679.333333333 451 687 443.666666667 687 429 c 0
 687 421.666666667 684.5 414.833333333 679.5 408.5 c 128
 674.5 402.166666667 666.333333333 396.666666667 655 392 c 0
 637 384 624 370 616 350 c 128
 608 330 602.666666667 305 600 275 c 1
 603.333333333 277 607.666666667 283 613 293 c 1
 627.666666667 301.666666667 643.666666667 306 661 306 c 0
 695.666666667 306 725.666666667 291.333333333 751 262 c 0
 779.666666667 228.666666667 794 185 794 131 c 0
270 145 m 0
 270 166.333333333 268 181 264 189 c 0
 258 201 247 207 231 207 c 0
 217 207 206.666666667 201.666666667 200 191 c 128
 193.333333333 180.333333333 190 163.333333333 190 140 c 0
 190 81.3333333333 202.666666667 52 228 52 c 0
 245.333333333 52 256.666666667 60.1666666667 262 76.5 c 128
 267.333333333 92.8333333333 270 115.666666667 270 145 c 0
EndSplineSet
EndChar

StartChar: u0B9E_u0BBF
Encoding: 82 -1 82
Width: 922
Flags: HW
AnchorPoint: "V" 420 455 basechar 0
AnchorPoint: "N" 420 -205 basechar 0
LayerCount: 2
Fore
SplineSet
812 313 m 0
 812 305 808.666666667 297.333333333 802 290 c 128
 795.333333333 282.666666667 787 279 777 279 c 0
 764.333333333 279 753.666666667 285 745 297 c 128
 736.333333333 309 733 321.333333333 735 334 c 0
 743.666666667 370 749.666666667 397 753 415 c 128
 756.333333333 433 758 450.666666667 758 468 c 0
 758 500 750.333333333 524.333333333 735 541 c 0
 717.666666667 559.666666667 692 569 658 569 c 0
 625.333333333 569 601 561.333333333 585 546 c 128
 569 530.666666667 561 510.333333333 561 485 c 0
 561 467.666666667 565.666666667 451.333333333 575 436 c 1
 588 435 l 2
 599.333333333 435 607.833333333 435.666666667 613.5 437 c 128
 619.166666667 438.333333333 627.333333333 442.166666667 638 448.5 c 128
 648.666666667 454.833333333 657.666666667 458 665 458 c 0
 679.666666667 458 687 450.333333333 687 435 c 0
 687 427.666666667 684.5 420.666666667 679.5 414 c 128
 674.5 407.333333333 666.333333333 401.666666667 655 397 c 0
 637 389.666666667 624 375.833333333 616 355.5 c 128
 608 335.166666667 602.666666667 309.666666667 600 279 c 0
 600.666666667 278.333333333 601.666666667 278.666666667 603 280 c 128
 604.333333333 281.333333333 607.666666667 287.333333333 613 298 c 1
 626.333333333 306.666666667 642 311 660 311 c 0
 694.666666667 311 725 296 751 266 c 0
 779.666666667 232.666666667 794 188.666666667 794 134 c 0
 794 16.6666666667 756.666666667 -70 682 -126 c 0
 612 -178.666666667 510.333333333 -205 377 -205 c 0
 263.666666667 -205 170.833333333 -175 98.5 -115 c 128
 26.1666666667 -55 -10 25 -10 125 c 0
 -10 164.333333333 -6.33333333333 201.666666667 1 237 c 128
 8.33333333333 272.333333333 18.6666666667 299.666666667 32 319 c 0
 39.3333333333 330.333333333 48.6666666667 336 60 336 c 0
 77.3333333333 336 86 327.333333333 86 310 c 0
 86 301.333333333 83.3333333333 293 78 285 c 0
 69.3333333333 271 62.5 251.333333333 57.5 226 c 128
 52.5 200.666666667 50 166 50 122 c 0
 50 39.3333333333 85.3333333333 -26.6666666667 156 -76 c 0
 218 -119.333333333 291.333333333 -141 376 -141 c 0
 470.666666667 -141 544 -113 596 -57 c 0
 642 -7 665 55 665 129 c 0
 665 162.333333333 661.666666667 188.333333333 655 207 c 128
 648.333333333 225.666666667 637.333333333 235 622 235 c 0
 615.333333333 235 607 232 597 226 c 1
 595 134 l 2
 595 86.6666666667 581 50.3333333333 553 25 c 0
 529 3 499.666666667 -8 465 -8 c 0
 443.666666667 -8 433 -1.33333333333 433 12 c 0
 433 18 435.333333333 24.6666666667 440 32 c 0
 448.666666667 46 455.166666667 61.6666666667 459.5 79 c 128
 463.833333333 96.3333333333 466 115.666666667 466 137 c 0
 466 157 466.5 178.666666667 467.5 202 c 128
 468.5 225.333333333 469.666666667 252.333333333 471 283 c 0
 471 301 473.5 319 478.5 337 c 128
 483.5 355 490.333333333 372.666666667 499 390 c 1
 489 391.333333333 476.5 392.666666667 461.5 394 c 128
 446.5 395.333333333 430.666666667 396 414 396 c 0
 367.333333333 396 326.333333333 385.833333333 291 365.5 c 128
 255.666666667 345.166666667 229.666666667 318.666666667 213 286 c 1
 229.666666667 293.333333333 246 297 262 297 c 0
 299.333333333 297 329 287.333333333 351 268 c 0
 377 245.333333333 390 212.333333333 390 169 c 0
 390 114.333333333 381 73.3333333333 363 46 c 0
 340.333333333 12 303 -5 251 -5 c 0
 209.666666667 -5 179.166666667 10 159.5 40 c 128
 139.833333333 70 130 113.666666667 130 171 c 0
 130 257 154.5 325.833333333 203.5 377.5 c 128
 252.5 429.166666667 323.333333333 455 416 455 c 0
 434 455 451 454.333333333 467 453 c 128
 483 451.666666667 497.666666667 450 511 448 c 1
 502.333333333 472.666666667 498 498.666666667 498 526 c 0
 498 571.333333333 510.333333333 607.333333333 535 634 c 0
 562.333333333 664 602.666666667 679 656 679 c 0
 707.333333333 679 745.666666667 662.833333333 771 630.5 c 128
 796.333333333 598.166666667 809 554 809 498 c 0
 809 470.666666667 808 447.666666667 806 429 c 128
 804 410.333333333 799.333333333 388 792 362 c 0
 792 354 795.333333333 345.666666667 802 337 c 128
 808.666666667 328.333333333 812 320.333333333 812 313 c 0
270 148 m 0
 270 170 268 185 264 193 c 0
 258 205 247 211 231 211 c 0
 217 211 206.666666667 205.666666667 200 195 c 128
 193.333333333 184.333333333 190 167 190 143 c 0
 190 83.6666666667 202.666666667 54 228 54 c 0
 245.333333333 54 256.666666667 62.1666666667 262 78.5 c 128
 267.333333333 94.8333333333 270 118 270 148 c 0
EndSplineSet
EndChar

